{
.appVersion = "1342";
classes = (
{
automatic = 1;

glyphs = (
{
glyphname = A;
layers = (
{
anchors = (
{
name = bottom;
position = "{224, 0}";
},
{
name = ogonek;
position = "{420, 0}";
},
{
name = top;
position = "{305, 648}";
}
);
background = {
paths = (
{
closed = 1;
nodes = (
"-43 32 LINE",
"-47 0 LINE",
"133 0 LINE",
"136 32 LINE",
"64 50 LINE",
"127 192 LINE",
"339 192 LINE",
"360 75 LINE",
"360 48 LINE",
"291 32 LINE",
"288 0 LINE",
"485 0 LINE",
"488 32 LINE",
"432 44 LINE",
"320 653 LINE",
"288 653 LINE",
"11 47 LINE"
);
},
{
closed = 1;
nodes = (
"263 497 LINE",
"275 527 LINE",
"277 527 LINE",
"282 497 LINE",
"329 243 LINE",
"150 243 LINE"
);
}
);
};
layerId = "0a8077ec-4085-4bbf-a447-43ab7bcde2db";
paths = (
{
closed = 1;
nodes = (
"133 0 LINE",
"136 32 LINE",
"63 48 LINE",
"127 192 LINE",
"339 192 LINE",
"364 47 LINE",
"291 32 LINE",
"288 0 LINE",
"485 0 LINE",
"488 32 LINE",
"432 45 LINE",
"320 653 LINE",
"288 653 LINE",
"11 47 LINE",
"-44 32 LINE",
"-47 0 LINE"
);
},
{
closed = 1;
nodes = (
"263 497 LINE",
"275 527 LINE",
"277 527 LINE",
"282 497 LINE",
"329 243 LINE",
"150 243 LINE"
);
}
);
width = 508;
},
{
anchors = (
{
name = bottom;
position = "{243, 0}";
},
{
name = ogonek;
position = "{502, 0}";
},
{
name = top;
position = "{334, 648}";
}
);
layerId = "42d03b0b-68f7-4941-bda2-1e253e993363";
paths = (
{
closed = 1;
nodes = (
"181 0 LINE",
"189 65 LINE",
"110 77 LINE",
"150 172 LINE",
"333 172 LINE",
"350 75 LINE",
"285 65 LINE",
"280 0 LINE",
"572 0 LINE",
"576 65 LINE",
"506 77 LINE",
"392 656 LINE",
"281 656 LINE",
"16 75 LINE",
"-40 65 LINE",
"-49 0 LINE"
);
},
{
closed = 1;
nodes = (
"276 463 LINE",
"286 495 LINE",
"291 495 LINE",
"292 463 LINE",
"321 245 LINE",
"182 245 LINE"
);
}
);
width = 575;
}
);
leftKerningGroup = A;
rightKerningGroup = A;
unicode = 0041;
},
{
glyphname = AE;
layers = (
{
anchors = (
{
name = top;
position = "{461, 648}";
}
);
layerId = "0a8077ec-4085-4bbf-a447-43ab7bcde2db";
paths = (
{
closed = 1;
nodes = (
"84 0 LINE",
"87 32 LINE",
"21 48 LINE",
"21 68 LINE",
"168 282 LINE",
"332 282 LINE",
"299 46 LINE",
"228 32 LINE",
"226 0 LINE",
"621 0 LINE",
"639 146 LINE",
"602 146 LINE",
"564 40 LINE",
"460 40 LINE SMOOTH",
"421 40 OFFCURVE",
"380 42 OFFCURVE",
"364 45 CURVE",
"399 282 LINE",
"533 282 LINE",
"539 224 LINE",
"570 224 LINE",
"590 379 LINE",
"560 379 LINE",
"539 321 LINE",
"404 321 LINE",
"444 603 LINE",
"529 607 LINE",
"628 607 LINE",
"628 498 LINE",
"674 498 LINE",
"693 648 LINE",
"359 648 LINE",
"-47 47 LINE",
"-101 32 LINE",
"-106 0 LINE"
);
},
{
closed = 1;
nodes = (
"375 600 LINE",
"379 600 LINE",
"338 321 LINE",
"192 321 LINE"
);
}
);
width = 672;
},
{
anchors = (
{
name = top;
position = "{536, 648}";
}
);
layerId = "42d03b0b-68f7-4941-bda2-1e253e993363";
paths = (
{
closed = 1;
nodes = (
"154 0 LINE",
"162 65 LINE",
"82 75 LINE",
"82 77 LINE",
"202 271 LINE",
"357 271 LINE",
"331 79 LINE",
"260 65 LINE",
"249 0 LINE",
"737 0 LINE",
"760 189 LINE",
"692 189 LINE",
"652 77 LINE",
"560 77 LINE",
"538 80 OFFCURVE",
"515 82 OFFCURVE",
"486 84 CURVE",
"511 271 LINE",
"610 271 LINE",
"609 201 LINE",
"674 201 LINE",
"702 408 LINE",
"634 408 LINE",
"611 343 LINE",
"521 343 LINE",
"553 564 LINE",
"604 571 LINE",
"714 571 LINE",
"714 455 LINE",
"786 455 LINE",
"816 648 LINE",
"348 648 LINE",
"-11 79 LINE",
"-69 65 LINE",
"-78 0 LINE"
);
},
{
closed = 1;
nodes = (
"393 573 LINE",
"399 573 LINE",
"367 343 LINE",
"248 343 LINE"
);
}
);
width = 803;
}
);
leftKerningGroup = AE;
rightKerningGroup = E;
unicode = 00C6;
},
{
glyphname = B;
layers = (
{
anchors = (
{
name = bottom;
position = "{240, 0}";
},
{
name = top;
position = "{331, 648}";
}
);
background = {
paths = (
{
closed = 1;
nodes = (
"232 0 LINE",
"234 32 LINE",
"167 46 LINE",
"245 602 LINE",
"316 616 LINE",
"319 648 LINE",
"114 648 LINE",
"111 616 LINE",
"179 602 LINE",
"100 46 LINE",
"29 32 LINE",
"27 0 LINE"
);
}
);
};
layerId = "0a8077ec-4085-4bbf-a447-43ab7bcde2db";
paths = (
{
closed = 1;
nodes = (
"224 0 LINE SMOOTH",
"385 0 OFFCURVE",
"470 67 OFFCURVE",
"470 196 CURVE SMOOTH",
"470 267 OFFCURVE",
"419 326 OFFCURVE",
"346 336 CURVE",
"428 353 OFFCURVE",
"486 428 OFFCURVE",
"486 516 CURVE SMOOTH",
"486 597 OFFCURVE",
"425 648 OFFCURVE",
"284 648 CURVE SMOOTH",
"114 648 LINE",
"111 616 LINE",
"179 602 LINE",
"100 46 LINE",
"29 32 LINE",
"27 0 LINE"
);
},
{
closed = 1;
nodes = (
"207 41 OFFCURVE",
"179 44 OFFCURVE",
"167 46 CURVE",
"205 314 LINE",
"334 314 OFFCURVE",
"402 276 OFFCURVE",
"402 190 CURVE SMOOTH",
"402 92 OFFCURVE",
"344 41 OFFCURVE",
"233 41 CURVE SMOOTH"
);
},
{
closed = 1;
nodes = (
"245 602 LINE",
"256 604 OFFCURVE",
"271 608 OFFCURVE",
"291 608 CURVE SMOOTH",
"367 608 OFFCURVE",
"418 583 OFFCURVE",
"418 513 CURVE SMOOTH",
"418 405 OFFCURVE",
"346 349 OFFCURVE",
"210 349 CURVE"
);
}
);
width = 520;
},
{
anchors = (
{
name = bottom;
position = "{254, 0}";
},
{
name = top;
position = "{345, 648}";
}
);
background = {
paths = (
{
closed = 1;
nodes = (
"280 0 LINE",
"291 65 LINE",
"220 79 LINE",
"289 569 LINE",
"360 583 LINE",
"370 648 LINE",
"76 648 LINE",
"66 583 LINE",
"137 569 LINE",
"68 79 LINE",
"-3 65 LINE",
"-14 0 LINE"
);
}
);
};
layerId = "42d03b0b-68f7-4941-bda2-1e253e993363";
paths = (
{
closed = 1;
nodes = (
"246 0 LINE SMOOTH",
"435 0 OFFCURVE",
"524 71 OFFCURVE",
"524 206 CURVE SMOOTH",
"524 275 OFFCURVE",
"481 327 OFFCURVE",
"418 338 CURVE",
"494 350 OFFCURVE",
"547 420 OFFCURVE",
"547 508 CURVE SMOOTH",
"547 615 OFFCURVE",
"468 648 OFFCURVE",
"330 648 CURVE SMOOTH",
"76 648 LINE",
"66 583 LINE",
"137 569 LINE",
"68 79 LINE",
"-3 65 LINE",
"-14 0 LINE"
);
},
{
closed = 1;
nodes = (
"257 70 OFFCURVE",
"237 74 OFFCURVE",
"220 80 CURVE",
"250 296 LINE",
"341 296 OFFCURVE",
"374 271 OFFCURVE",
"374 201 CURVE SMOOTH",
"374 115 OFFCURVE",
"337 70 OFFCURVE",
"279 70 CURVE SMOOTH"
);
},
{
closed = 1;
nodes = (
"289 569 LINE",
"294 570 OFFCURVE",
"305 572 OFFCURVE",
"314 572 CURVE SMOOTH",
"368 572 OFFCURVE",
"405 547 OFFCURVE",
"405 497 CURVE SMOOTH",
"405 401 OFFCURVE",
"356 363 OFFCURVE",
"260 363 CURVE"
);
}
);
width = 563;
}
);
leftKerningGroup = H;
leftMetricsKey = H;
rightKerningGroup = B;
unicode = 0042;
},
{
glyphname = C;
layers = (
{
anchors = (
{
name = bottom;
position = "{279, 0}";
},
{
name = top;
position = "{369, 648}";
}
);
layerId = "0a8077ec-4085-4bbf-a447-43ab7bcde2db";
paths = (
{
closed = 1;
nodes = (
"373 -11 OFFCURVE",
"436 17 OFFCURVE",
"464 32 CURVE",
"478 158 LINE",
"442 158 LINE",
"412 67 LINE",
"400 59 OFFCURVE",
"366 36 OFFCURVE",
"296 36 CURVE SMOOTH",
"175 36 OFFCURVE",
"136 115 OFFCURVE",
"136 250 CURVE SMOOTH",
"136 478 OFFCURVE",
"219 612 OFFCURVE",
"367 612 CURVE SMOOTH",
"406 612 OFFCURVE",
"450 601 OFFCURVE",
"464 595 CURVE",
"472 500 LINE",
"507 500 LINE",
"528 640 LINE",
"503 647 OFFCURVE",
"452 660 OFFCURVE",
"377 660 CURVE SMOOTH",
"197 660 OFFCURVE",
"58 487 OFFCURVE",
"58 244 CURVE SMOOTH",
"58 89 OFFCURVE",
"111 -11 OFFCURVE",
"291 -11 CURVE SMOOTH"
);
}
);
width = 538;
},
{
anchors = (
{
name = bottom;
position = "{318, 0}";
},
{
name = top;
position = "{372, 648}";
}
);
layerId = "42d03b0b-68f7-4941-bda2-1e253e993363";
paths = (
{
closed = 1;
nodes = (
"358 -11 OFFCURVE",
"437 -2 OFFCURVE",
"510 24 CURVE",
"526 219 LINE",
"448 219 LINE",
"415 83 LINE",
"392 66 OFFCURVE",
"362 60 OFFCURVE",
"336 60 CURVE SMOOTH",
"239 60 OFFCURVE",
"205 116 OFFCURVE",
"205 248 CURVE SMOOTH",
"205 496 OFFCURVE",
"261 586 OFFCURVE",
"353 586 CURVE SMOOTH",
"397 586 OFFCURVE",
"434 577 OFFCURVE",
"472 557 CURVE",
"475 454 LINE",
"553 454 LINE",
"583 640 LINE",
"526 655 OFFCURVE",
"455 660 OFFCURVE",
"386 660 CURVE SMOOTH",
"148 660 OFFCURVE",
"36 469 OFFCURVE",
"36 244 CURVE SMOOTH",
"36 103 OFFCURVE",
"117 -11 OFFCURVE",
"295 -11 CURVE SMOOTH"
);
}
);
width = 574;
}
);
leftKerningGroup = O;
leftMetricsKey = O;
rightKerningGroup = C;
unicode = 0043;
},
{
glyphname = Ccedilla;
layers = (
{
background = {
paths = (
{
closed = 1;
nodes = (
"280 -185 OFFCURVE",
"344 -174 OFFCURVE",
"344 -95 CURVE SMOOTH",
"344 -76 OFFCURVE",
"332 -61 OFFCURVE",
"317 -51 CURVE SMOOTH",
"283 -29 LINE",
"283 -11 LINE",
"366 -8 OFFCURVE",
"425 17 OFFCURVE",
"453 32 CURVE",
"467 158 LINE",
"431 158 LINE",
"401 67 LINE",
"396 63 OFFCURVE",
"360 36 OFFCURVE",
"285 36 CURVE SMOOTH",
"169 36 OFFCURVE",
"125 115 OFFCURVE",
"125 270 CURVE SMOOTH",
"125 478 OFFCURVE",
"208 612 OFFCURVE",
"356 612 CURVE SMOOTH",
"395 612 OFFCURVE",
"439 601 OFFCURVE",
"453 595 CURVE",
"461 500 LINE",
"496 500 LINE",
"517 640 LINE",
"492 647 OFFCURVE",
"441 660 OFFCURVE",
"366 660 CURVE SMOOTH",
"188 660 OFFCURVE",
"47 487 OFFCURVE",
"47 244 CURVE SMOOTH",
"47 99 OFFCURVE",
"93 3 OFFCURVE",
"236 -10 CURVE",
"207 -49 LINE",
"207 -67 LINE",
"260 -95 LINE",
"270 -102 OFFCURVE",
"283 -111 OFFCURVE",
"283 -122 CURVE SMOOTH",
"283 -140 OFFCURVE",
"267 -147 OFFCURVE",
"233 -147 CURVE SMOOTH",
"201 -147 OFFCURVE",
"189 -141 OFFCURVE",
"176 -131 CURVE",
"158 -156 LINE",
"172 -168 OFFCURVE",
"199 -185 OFFCURVE",
"234 -185 CURVE SMOOTH"
);
}
);
};
components = (
{
name = C;
},
{
name = cedillacomb.case;
transform = "{1, 0, 0, 1, 223, 0}";
}
);
layerId = "0a8077ec-4085-4bbf-a447-43ab7bcde2db";
width = 538;
},
{
background = {
paths = (
{
closed = 1;
nodes = (
"377 -196 OFFCURVE",
"419 -166 OFFCURVE",
"419 -117 CURVE SMOOTH",
"419 -79 OFFCURVE",
"392 -61 OFFCURVE",
"360 -45 CURVE SMOOTH",
"326 -28 LINE",
"326 -10 LINE",
"377 -5 OFFCURVE",
"439 3 OFFCURVE",
"499 24 CURVE",
"515 219 LINE",
"437 219 LINE",
"404 86 LINE",
"376 63 OFFCURVE",
"338 61 OFFCURVE",
"317 61 CURVE SMOOTH",
"226 61 OFFCURVE",
"194 92 OFFCURVE",
"194 248 CURVE SMOOTH",
"194 496 OFFCURVE",
"250 590 OFFCURVE",
"342 590 CURVE SMOOTH",
"389 590 OFFCURVE",
"421 581 OFFCURVE",
"461 553 CURVE",
"464 454 LINE",
"542 454 LINE",
"572 640 LINE",
"515 655 OFFCURVE",
"444 660 OFFCURVE",
"375 660 CURVE SMOOTH",
"137 660 OFFCURVE",
"25 469 OFFCURVE",
"25 244 CURVE SMOOTH",
"25 107 OFFCURVE",
"101 -3 OFFCURVE",
"268 -10 CURVE",
"244 -52 LINE",
"244 -78 LINE",
"289 -100 LINE SMOOTH",
"309 -110 OFFCURVE",
"312 -114 OFFCURVE",
"312 -122 CURVE SMOOTH",
"312 -127 OFFCURVE",
"307 -133 OFFCURVE",
"298 -133 CURVE SMOOTH",
"260 -133 OFFCURVE",
"241 -126 OFFCURVE",
"221 -117 CURVE",
"193 -170 LINE",
"224 -190 OFFCURVE",
"263 -196 OFFCURVE",
"322 -196 CURVE SMOOTH"
);
}
);
};
components = (
{
name = C;
},
{
name = cedillacomb.case;
transform = "{1, 0, 0, 1, 262, 0}";
}
);
layerId = "42d03b0b-68f7-4941-bda2-1e253e993363";
width = 574;
}
);
leftKerningGroup = O;
rightKerningGroup = C;
unicode = 00C7;
},
{
glyphname = D;
layers = (
{
anchors = (
{
name = bottom;
position = "{287, 0}";
},
{
name = center;
position = "{225, 334}";
},
{
name = top;
position = "{372, 648}";
}
);
layerId = "0a8077ec-4085-4bbf-a447-43ab7bcde2db";
paths = (
{
closed = 1;
nodes = (
"231 0 LINE SMOOTH",
"449 0 OFFCURVE",
"591 157 OFFCURVE",
"591 406 CURVE SMOOTH",
"591 558 OFFCURVE",
"497 648 OFFCURVE",
"336 648 CURVE SMOOTH",
"114 648 LINE",
"111 616 LINE",
"179 602 LINE",
"100 46 LINE",
"29 32 LINE",
"26 0 LINE"
);
},
{
closed = 1;
nodes = (
"224 40 OFFCURVE",
"187 43 OFFCURVE",
"166 47 CURVE",
"245 601 LINE",
"252 604 OFFCURVE",
"279 606 OFFCURVE",
"313 606 CURVE SMOOTH",
"448 606 OFFCURVE",
"517 540 OFFCURVE",
"517 395 CURVE SMOOTH",
"517 199 OFFCURVE",
"432 40 OFFCURVE",
"247 40 CURVE SMOOTH"
);
}
);
width = 626;
},
{
anchors = (
{
name = bottom;
position = "{299, 0}";
},
{
name = center;
position = "{208, 334}";
},
{
name = top;
position = "{382, 648}";
}
);
layerId = "42d03b0b-68f7-4941-bda2-1e253e993363";
paths = (
{
closed = 1;
nodes = (
"273 0 LINE SMOOTH",
"513 0 OFFCURVE",
"640 164 OFFCURVE",
"640 409 CURVE SMOOTH",
"640 569 OFFCURVE",
"547 648 OFFCURVE",
"358 648 CURVE SMOOTH",
"75 648 LINE",
"66 583 LINE",
"136 569 LINE",
"67 79 LINE",
"-4 65 LINE",
"-14 0 LINE"
);
},
{
closed = 1;
nodes = (
"255 74 OFFCURVE",
"240 75 OFFCURVE",
"221 77 CURVE",
"290 573 LINE",
"293 573 OFFCURVE",
"306 573 OFFCURVE",
"308 573 CURVE SMOOTH",
"425 573 OFFCURVE",
"471 534 OFFCURVE",
"471 415 CURVE SMOOTH",
"471 233 OFFCURVE",
"420 74 OFFCURVE",
"273 74 CURVE SMOOTH"
);
}
);
width = 653;
}
);
leftKerningGroup = H;
leftMetricsKey = H;
rightKerningGroup = O;
rightMetricsKey = O;
unicode = 0044;
},
{
glyphname = E;
layers = (
{
anchors = (
{
name = bottom;
position = "{254, 0}";
},
{
name = ogonek;
position = "{372, 0}";
},
{
name = top;
position = "{326, 648}";
}
);
layerId = "0a8077ec-4085-4bbf-a447-43ab7bcde2db";
paths = (
{
closed = 1;
nodes = (
"422 0 LINE",
"440 146 LINE",
"405 146 LINE",
"367 41 LINE",
"261 41 LINE SMOOTH",
"243 41 OFFCURVE",
"203 42 OFFCURVE",
"166 46 CURVE",
"205 317 LINE",
"339 317 LINE",
"345 260 LINE",
"376 260 LINE",
"396 414 LINE",
"366 414 LINE",
"345 357 LINE",
"210 357 LINE",
"245 603 LINE",
"330 607 LINE",
"431 607 LINE",
"431 498 LINE",
"475 498 LINE",
"494 648 LINE",
"114 648 LINE",
"111 616 LINE",
"179 602 LINE",
"100 46 LINE",
"29 32 LINE",
"27 0 LINE"
);
}
);
width = 514;
},
{
anchors = (
{
name = bottom;
position = "{263, 0}";
},
{
name = ogonek;
position = "{434, 0}";
},
{
name = top;
position = "{338, 648}";
}
);
layerId = "42d03b0b-68f7-4941-bda2-1e253e993363";
paths = (
{
closed = 1;
nodes = (
"474 0 LINE",
"497 189 LINE",
"430 189 LINE",
"389 77 LINE",
"298 77 LINE SMOOTH",
"273 77 OFFCURVE",
"245 79 OFFCURVE",
"223 84 CURVE",
"252 297 LINE",
"369 297 LINE",
"368 227 LINE",
"433 227 LINE",
"461 434 LINE",
"393 434 LINE",
"370 369 LINE",
"262 369 LINE",
"291 564 LINE",
"341 571 LINE",
"452 571 LINE",
"452 455 LINE",
"523 455 LINE",
"554 648 LINE",
"76 648 LINE",
"66 583 LINE",
"137 569 LINE",
"68 79 LINE",
"-3 65 LINE",
"-13 0 LINE"
);
}
);
width = 542;
}
);
leftKerningGroup = H;
leftMetricsKey = H;
rightKerningGroup = E;
unicode = 0045;
},
{
glyphname = F;
layers = (
{
anchors = (
{
name = bottom;
position = "{230, 0}";
},
{
name = top;
position = "{300, 648}";
}
);
layerId = "0a8077ec-4085-4bbf-a447-43ab7bcde2db";
paths = (
{
closed = 1;
nodes = (
"260 0 LINE",
"263 36 LINE",
"167 50 LINE",
"202 290 LINE",
"348 290 LINE",
"353 229 LINE",
"384 229 LINE",
"406 395 LINE",
"375 395 LINE",
"355 335 LINE",
"207 335 LINE",
"244 595 LINE",
"335 603 LINE",
"437 603 LINE",
"437 507 LINE",
"480 507 LINE",
"502 648 LINE",
"114 648 LINE",
"111 616 LINE",
"179 602 LINE",
"100 46 LINE",
"29 32 LINE",
"27 0 LINE"
);
}
);
width = 484;
},
{
anchors = (
{
name = bottom;
position = "{135, 0}";
},
{
name = top;
position = "{319, 648}";
}
);
layerId = "42d03b0b-68f7-4941-bda2-1e253e993363";
paths = (
{
closed = 1;
nodes = (
"311 0 LINE",
"318 59 LINE",
"220 72 LINE",
"249 275 LINE",
"371 275 LINE",
"369 206 LINE",
"432 206 LINE",
"463 415 LINE",
"398 415 LINE",
"379 350 LINE",
"259 350 LINE",
"290 566 LINE",
"339 573 LINE",
"454 573 LINE",
"454 452 LINE",
"526 452 LINE",
"557 648 LINE",
"76 648 LINE",
"66 583 LINE",
"137 569 LINE",
"68 79 LINE",
"-3 65 LINE",
"-13 0 LINE"
);
}
);
width = 516;
}
);
leftKerningGroup = H;
leftMetricsKey = H;
rightKerningGroup = F;
unicode = 0046;
},
{
glyphname = G;
layers = (
{
anchors = (
{
name = bottom;
position = "{292, 0}";
},
{
name = top;
position = "{363, 648}";
}
);
layerId = "0a8077ec-4085-4bbf-a447-43ab7bcde2db";
paths = (
{
closed = 1;
nodes = (
"348 -11 OFFCURVE",
"397 17 OFFCURVE",
"413 28 CURVE",
"419 28 LINE",
"440 0 LINE",
"462 0 LINE",
"505 318 LINE",
"341 318 LINE",
"336 278 LINE",
"433 260 LINE",
"407 70 LINE",
"371 51 OFFCURVE",
"338 37 OFFCURVE",
"285 37 CURVE SMOOTH",
"196 37 OFFCURVE",
"134 85 OFFCURVE",
"134 255 CURVE SMOOTH",
"134 439 OFFCURVE",
"193 612 OFFCURVE",
"359 612 CURVE SMOOTH",
"410 612 OFFCURVE",
"452 593 OFFCURVE",
"467 585 CURVE",
"473 497 LINE",
"509 497 LINE",
"526 638 LINE",
"488 651 OFFCURVE",
"422 660 OFFCURVE",
"370 660 CURVE SMOOTH",
"166 660 OFFCURVE",
"57 452 OFFCURVE",
"57 241 CURVE SMOOTH",
"57 79 OFFCURVE",
"128 -11 OFFCURVE",
"263 -11 CURVE SMOOTH"
);
}
);
width = 563;
},
{
anchors = (
{
name = bottom;
position = "{304, 0}";
},
{
name = top;
position = "{390, 648}";
}
);
layerId = "42d03b0b-68f7-4941-bda2-1e253e993363";
paths = (
{
closed = 1;
nodes = (
"346 -11 OFFCURVE",
"368 1 OFFCURVE",
"401 22 CURVE",
"408 22 LINE",
"423 0 LINE",
"530 0 LINE",
"573 338 LINE",
"315 338 LINE",
"310 278 LINE",
"425 261 LINE",
"402 79 LINE",
"392 72 OFFCURVE",
"355 60 OFFCURVE",
"328 60 CURVE SMOOTH",
"227 60 OFFCURVE",
"204 124 OFFCURVE",
"204 232 CURVE SMOOTH",
"204 421 OFFCURVE",
"232 590 OFFCURVE",
"362 590 CURVE SMOOTH",
"409 590 OFFCURVE",
"442 580 OFFCURVE",
"478 558 CURVE",
"484 454 LINE",
"562 454 LINE",
"593 641 LINE",
"552 651 OFFCURVE",
"485 660 OFFCURVE",
"391 660 CURVE SMOOTH",
"153 660 OFFCURVE",
"35 464 OFFCURVE",
"35 240 CURVE SMOOTH",
"35 58 OFFCURVE",
"141 -11 OFFCURVE",
"288 -11 CURVE SMOOTH"
);
}
);
width = 615;
}
);
leftKerningGroup = O;
leftMetricsKey = O;
rightKerningGroup = G;
unicode = 0047;
},
{
glyphname = H;
layers = (
{
anchors = (
{
name = bottom;
position = "{298.286, 0}";
},
{
name = center;
position = "{366, 480}";
},
{
name = top;
position = "{389.357, 648}";
},
{
name = topleft;
position = "{114, 648}";
}
);
layerId = "0a8077ec-4085-4bbf-a447-43ab7bcde2db";
paths = (
{
closed = 1;
nodes = (
"232 0 LINE",
"234 32 LINE",
"167 46 LINE",
"204 309 LINE",
"478 309 LINE",
"441 46 LINE",
"370 32 LINE",
"367 0 LINE",
"573 0 LINE",
"575 32 LINE",
"507 46 LINE",
"585 602 LINE",
"656 616 LINE",
"659 648 LINE",
"454 648 LINE",
"451 616 LINE",
"519 602 LINE",
"485 359 LINE",
"212 359 LINE",
"245 602 LINE",
"316 616 LINE",
"319 648 LINE",
"114 648 LINE",
"111 616 LINE",
"179 602 LINE",
"100 46 LINE",
"29 32 LINE",
"26 0 LINE"
);
}
);
width = 666;
},
{
anchors = (
{
name = bottom;
position = "{303.286, 0}";
},
{
name = center;
position = "{369, 480}";
},
{
name = top;
position = "{394.357, 648}";
},
{
name = topleft;
position = "{76.357, 648}";
}
);
layerId = "42d03b0b-68f7-4941-bda2-1e253e993363";
paths = (
{
closed = 1;
nodes = (
"281 0 LINE",
"291 65 LINE",
"220 79 LINE",
"250 292 LINE",
"436 292 LINE",
"407 79 LINE",
"336 65 LINE",
"326 0 LINE",
"620 0 LINE",
"630 65 LINE",
"559 79 LINE",
"629 569 LINE",
"700 583 LINE",
"710 648 LINE",
"416 648 LINE",
"406 583 LINE",
"477 569 LINE",
"447 364 LINE",
"260 364 LINE",
"289 569 LINE",
"360 583 LINE",
"370 648 LINE",
"76 648 LINE",
"66 583 LINE",
"137 569 LINE",
"68 79 LINE",
"-3 65 LINE",
"-12 0 LINE"
);
}
);
width = 675;
}
);
leftKerningGroup = H;
rightKerningGroup = H;
unicode = 0048;
},
{
glyphname = I;
layers = (
{
anchors = (
{
name = bottom;
position = "{134, 0}";
},
{
name = ogonek;
position = "{183, 0}";
},
{
name = top;
position = "{225, 648}";
}
);
layerId = "0a8077ec-4085-4bbf-a447-43ab7bcde2db";
paths = (
{
closed = 1;
nodes = (
"232 0 LINE",
"234 32 LINE",
"167 46 LINE",
"245 602 LINE",
"316 616 LINE",
"319 648 LINE",
"114 648 LINE",
"111 616 LINE",
"179 602 LINE",
"101 46 LINE",
"29 32 LINE",
"27 0 LINE"
);
}
);
width = 325;
},
{
anchors = (
{
name = bottom;
position = "{133, 0}";
},
{
name = ogonek;
position = "{240, 0}";
},
{
name = top;
position = "{221, 648}";
}
);
layerId = "42d03b0b-68f7-4941-bda2-1e253e993363";
paths = (
{
closed = 1;
nodes = (
"280 0 LINE",
"291 65 LINE",
"220 79 LINE",
"289 569 LINE",
"360 583 LINE",
"370 648 LINE",
"76 648 LINE",
"66 583 LINE",
"137 569 LINE",
"68 79 LINE",
"-3 65 LINE",
"-14 0 LINE"
);
}
);
width = 336;
}
);
leftKerningGroup = H;
leftMetricsKey = H;
rightKerningGroup = H;
rightMetricsKey = H;
unicode = 0049;
},
{
glyphname = J;
layers = (
{
anchors = (
{
name = bottom;
position = "{115, 0}";
},
{
name = top;
position = "{296, 648}";
}
);
layerId = "0a8077ec-4085-4bbf-a447-43ab7bcde2db";
paths = (
{
closed = 1;
nodes = (
"193 -14 OFFCURVE",
"243 17 OFFCURVE",
"256 117 CURVE SMOOTH",
"322 602 LINE",
"393 616 LINE",
"397 648 LINE",
"168 648 LINE",
"165 616 LINE",
"256 598 LINE",
"190 114 LINE SMOOTH",
"181 49 OFFCURVE",
"158 29 OFFCURVE",
"104 29 CURVE SMOOTH",
"83 29 OFFCURVE",
"54 34 OFFCURVE",
"32 41 CURVE",
"28 147 LINE",
"-13 147 LINE",
"-33 13 LINE",
"-4 -3 OFFCURVE",
"54 -14 OFFCURVE",
"103 -14 CURVE SMOOTH"
);
}
);
width = 391;
},
{
anchors = (
{
name = bottom;
position = "{127, 0}";
},
{
name = top;
position = "{327, 648}";
}
);
layerId = "42d03b0b-68f7-4941-bda2-1e253e993363";
paths = (
{
closed = 1;
nodes = (
"282 -14 OFFCURVE",
"320 40 OFFCURVE",
"333 135 CURVE SMOOTH",
"393 569 LINE",
"464 583 LINE",
"472 648 LINE",
"179 648 LINE",
"171 583 LINE",
"241 570 LINE",
"182 147 LINE SMOOTH",
"173 80 OFFCURVE",
"159 60 OFFCURVE",
"123 60 CURVE SMOOTH",
"99 60 OFFCURVE",
"82 66 OFFCURVE",
"75 72 CURVE",
"60 190 LINE",
"-8 190 LINE",
"-32 13 LINE",
"4 -6 OFFCURVE",
"80 -14 OFFCURVE",
"115 -14 CURVE SMOOTH"
);
}
);
width = 432;
}
);
leftKerningGroup = J;
rightKerningGroup = J;
unicode = 004A;
},
{
glyphname = K;
layers = (
{
anchors = (
{
name = bottom;
position = "{276, 0}";
},
{
name = top;
position = "{330, 648}";
}
);
layerId = "0a8077ec-4085-4bbf-a447-43ab7bcde2db";
paths = (
{
closed = 1;
nodes = (
"233 0 LINE",
"234 32 LINE",
"167 46 LINE",
"205 312 LINE",
"252 312 LINE",
"394 25 LINE SMOOTH",
"406 2 OFFCURVE",
"418 0 OFFCURVE",
"445 0 CURVE SMOOTH",
"515 0 LINE",
"517 32 LINE",
"456 49 LINE",
"305 346 LINE",
"522 602 LINE",
"568 616 LINE",
"571 648 LINE",
"402 648 LINE",
"397 616 LINE",
"452 601 LINE",
"452 591 LINE",
"253 356 LINE",
"211 356 LINE",
"245 602 LINE",
"316 616 LINE",
"319 648 LINE",
"114 648 LINE",
"111 616 LINE",
"179 602 LINE",
"100 46 LINE",
"29 32 LINE",
"27 0 LINE"
);
}
);
width = 517;
},
{
anchors = (
{
name = bottom;
position = "{289, 0}";
},
{
name = top;
position = "{376, 648}";
}
);
guideLines = (
{
position = "{9, 362}";
}
);
layerId = "42d03b0b-68f7-4941-bda2-1e253e993363";
paths = (
{
closed = 1;
nodes = (
"280 0 LINE",
"291 65 LINE",
"220 79 LINE",
"251 297 LINE",
"264 297 LINE",
"381 52 LINE SMOOTH",
"396 21 OFFCURVE",
"405 0 OFFCURVE",
"436 0 CURVE SMOOTH",
"587 0 LINE",
"598 65 LINE",
"524 82 LINE",
"374 362 LINE",
"564 570 LINE",
"626 583 LINE",
"637 648 LINE",
"410 648 LINE",
"402 583 LINE",
"456 573 LINE",
"456 568 LINE",
"267 361 LINE",
"259 361 LINE",
"289 569 LINE",
"360 583 LINE",
"370 648 LINE",
"76 648 LINE",
"66 583 LINE",
"137 569 LINE",
"68 79 LINE",
"-3 65 LINE",
"-14 0 LINE"
);
}
);
width = 582;
}
);
leftKerningGroup = H;
leftMetricsKey = H;
rightKerningGroup = K;
unicode = 004B;
},
{
glyphname = L;
layers = (
{
anchors = (
{
name = bottom;
position = "{249, 0}";
},
{
name = center;
position = "{174, 324}";
},
{
name = top;
position = "{219, 648}";
},
{
name = topright;
position = "{373, 494}";
}
);
layerId = "0a8077ec-4085-4bbf-a447-43ab7bcde2db";
paths = (
{
closed = 1;
nodes = (
"391 0 LINE",
"413 146 LINE",
"367 146 LINE",
"335 42 LINE",
"208 42 LINE",
"167 46 LINE",
"245 602 LINE",
"316 616 LINE",
"319 648 LINE",
"114 648 LINE",
"111 616 LINE",
"179 602 LINE",
"100 46 LINE",
"29 32 LINE",
"26 0 LINE"
);
}
);
width = 444;
},
{
anchors = (
{
name = bottom;
position = "{244, 0}";
},
{
name = center;
position = "{176, 324}";
},
{
name = top;
position = "{223, 648}";
},
{
name = topright;
position = "{372, 494}";
}
);
layerId = "42d03b0b-68f7-4941-bda2-1e253e993363";
paths = (
{
closed = 1;
nodes = (
"447 0 LINE",
"470 189 LINE",
"396 189 LINE",
"356 71 LINE",
"263 71 LINE",
"220 79 LINE",
"289 569 LINE",
"360 583 LINE",
"369 648 LINE",
"75 648 LINE",
"66 583 LINE",
"136 569 LINE",
"67 79 LINE",
"-4 65 LINE",
"-14 0 LINE"
);
}
);
width = 482;
}
);
leftKerningGroup = H;
leftMetricsKey = H;
rightKerningGroup = L;
unicode = 004C;
},
{
glyphname = LJ;
layers = (
{
components = (
{
alignment = -1;
name = J;
transform = "{1, 0, 0, 1, 415, 0}";
}
);
layerId = "0a8077ec-4085-4bbf-a447-43ab7bcde2db";
paths = (
{
closed = 1;
nodes = (
"371 0 LINE",
"395 146 LINE",
"351 146 LINE",
"315 42 LINE",
"208 42 LINE",
"167 46 LINE",
"245 602 LINE",
"316 616 LINE",
"319 648 LINE",
"114 648 LINE",
"111 616 LINE",
"179 602 LINE",
"100 46 LINE",
"29 32 LINE",
"26 0 LINE"
);
}
);
width = 806;
},
{
components = (
{
alignment = -1;
name = J;
transform = "{1, 0, 0, 1, 483, 0}";
}
);
layerId = "42d03b0b-68f7-4941-bda2-1e253e993363";
paths = (
{
closed = 1;
nodes = (
"427 0 LINE",
"448 189 LINE",
"379 189 LINE",
"336 71 LINE",
"263 71 LINE",
"220 79 LINE",
"289 569 LINE",
"370 583 LINE",
"379 648 LINE",
"75 648 LINE",
"66 583 LINE",
"136 569 LINE",
"67 79 LINE",
"-4 65 LINE",
"-14 0 LINE"
);
}
);
width = 915;
}
);
leftKerningGroup = H;
leftMetricsKey = H;
rightKerningGroup = J;
rightMetricsKey = J;
unicode = 01C7;
},
{
glyphname = Lcaron;
layers = (
{
background = {
paths = (
{
closed = 1;
nodes = (
"380 0 LINE",
"404 146 LINE",
"366 146 LINE",
"327 42 LINE",
"197 42 LINE",
"156 46 LINE",
"234 602 LINE",
"305 616 LINE",
"308 648 LINE",
"103 648 LINE",
"100 616 LINE",
"167 602 LINE",
"89 46 LINE",
"18 32 LINE",
"15 0 LINE"
);
},
{
closed = 1;
nodes = (
"385 561 OFFCURVE",
"441 602 OFFCURVE",
"441 671 CURVE SMOOTH",
"441 698 OFFCURVE",
"426 714 OFFCURVE",
"402 714 CURVE SMOOTH",
"376 714 OFFCURVE",
"365 700 OFFCURVE",
"361 694 CURVE",
"373 676 OFFCURVE",
"375 666 OFFCURVE",
"375 651 CURVE SMOOTH",
"375 599 OFFCURVE",
"354 568 OFFCURVE",
"352 565 CURVE",
"366 553 LINE"
);
}
);
};
components = (
{
name = L;
},
{
name = caroncomb.alt;
transform = "{1, 0, 0, 1, 338, 0}";
}
);
layerId = "0a8077ec-4085-4bbf-a447-43ab7bcde2db";
width = 444;
},
{
background = {
paths = (
{
closed = 1;
nodes = (
"441 0 LINE",
"461 189 LINE",
"393 189 LINE",
"350 71 LINE",
"257 71 LINE",
"213 79 LINE",
"282 569 LINE",
"353 583 LINE",
"363 648 LINE",
"69 648 LINE",
"59 583 LINE",
"130 569 LINE",
"61 79 LINE",
"-10 65 LINE",
"-21 0 LINE"
);
},
{
closed = 1;
nodes = (
"452 548 OFFCURVE",
"544 601 OFFCURVE",
"544 683 CURVE SMOOTH",
"544 713 OFFCURVE",
"529 739 OFFCURVE",
"484 739 CURVE SMOOTH",
"458 739 OFFCURVE",
"442 723 OFFCURVE",
"431 703 CURVE",
"435 695 OFFCURVE",
"441 677 OFFCURVE",
"441 653 CURVE SMOOTH",
"441 608 OFFCURVE",
"412 577 OFFCURVE",
"409 574 CURVE",
"436 540 LINE"
);
}
);
};
components = (
{
name = L;
},
{
name = caroncomb.alt;
transform = "{1, 0, 0, 1, 337, 0}";
}
);
layerId = "42d03b0b-68f7-4941-bda2-1e253e993363";
width = 482;
}
);
leftKerningGroup = H;
rightKerningGroup = Lcaron;
unicode = 013D;
},
{
glyphname = Lslash;
layers = (
{
background = {
paths = (
{
closed = 1;
nodes = (
"380 0 LINE",
"404 146 LINE",
"366 146 LINE",
"327 42 LINE",
"197 42 LINE",
"156 46 LINE",
"192 303 LINE",
"298 345 LINE",
"298 395 LINE",
"200 355 LINE",
"234 602 LINE",
"305 616 LINE",
"308 648 LINE",
"103 648 LINE",
"100 616 LINE",
"167 602 LINE",
"129 327 LINE",
"27 287 LINE",
"27 240 LINE",
"121 277 LINE",
"89 46 LINE",
"18 32 LINE",
"15 0 LINE"
);
}
);
};
components = (
{
name = L;
}
);
layerId = "0a8077ec-4085-4bbf-a447-43ab7bcde2db";
paths = (
{
closed = 1;
nodes = (
"342 344 LINE",
"351 399 LINE",
"65 287 LINE",
"56 232 LINE"
);
}
);
width = 444;
},
{
background = {
paths = (
{
closed = 1;
nodes = (
"441 0 LINE",
"461 189 LINE",
"393 189 LINE",
"350 71 LINE",
"257 71 LINE",
"213 79 LINE",
"245 308 LINE",
"362 354 LINE",
"362 432 LINE",
"256 389 LINE",
"282 569 LINE",
"353 583 LINE",
"363 648 LINE",
"69 648 LINE",
"59 583 LINE",
"130 569 LINE",
"96 324 LINE",
"16 292 LINE",
"16 217 LINE",
"84 244 LINE",
"61 79 LINE",
"-10 65 LINE",
"-21 0 LINE"
);
}
);
};
components = (
{
name = L;
}
);
layerId = "42d03b0b-68f7-4941-bda2-1e253e993363";
paths = (
{
closed = 1;
nodes = (
"349 351 LINE",
"359 426 LINE",
"33 297 LINE",
"23 222 LINE"
);
}
);
width = 482;
}
);
leftKerningGroup = H;
rightKerningGroup = L;
unicode = 0141;
},
{
glyphname = M;
layers = (
{
anchors = (
{
name = bottom;
position = "{329, 0}";
},
{
name = top;
position = "{433, 648}";
}
);
background = {
paths = (
{
closed = 1;
nodes = (
"206 0 LINE",
"208 32 LINE",
"141 46 LINE",
"211 544 LINE",
"214 576 LINE",
"221 576 LINE",
"304 0 LINE",
"347 0 LINE",
"605 575 LINE",
"612 575 LINE",
"605 531 LINE",
"537 46 LINE",
"463 32 LINE",
"460 0 LINE",
"663 0 LINE",
"665 32 LINE",
"598 46 LINE",
"677 602 LINE",
"747 616 LINE",
"750 648 LINE",
"591 648 LINE",
"378 171 LINE",
"357 113 LINE",
"345 113 LINE",
"341 173 LINE",
"272 648 LINE",
"114 648 LINE",
"111 616 LINE",
"176 602 LINE",
"98 46 LINE",
"29 32 LINE",
"26 0 LINE"
);
}
);
};
layerId = "0a8077ec-4085-4bbf-a447-43ab7bcde2db";
paths = (
{
closed = 1;
nodes = (
"206 0 LINE",
"208 32 LINE",
"141 46 LINE",
"211 544 LINE",
"215 581 LINE",
"220 581 LINE",
"304 0 LINE",
"347 0 LINE",
"606 580 LINE",
"611 580 LINE",
"605 531 LINE",
"537 46 LINE",
"463 32 LINE",
"460 0 LINE",
"663 0 LINE",
"665 32 LINE",
"598 46 LINE",
"677 602 LINE",
"747 616 LINE",
"750 648 LINE",
"591 648 LINE",
"370 151 LINE",
"352 103 LINE",
"348 103 LINE",
"344 153 LINE",
"272 648 LINE",
"114 648 LINE",
"111 616 LINE",
"176 602 LINE",
"98 46 LINE",
"29 32 LINE",
"26 0 LINE"
);
}
);
width = 756;
},
{
anchors = (
{
name = bottom;
position = "{327, 0}";
},
{
name = top;
position = "{437, 648}";
}
);
background = {
paths = (
{
closed = 1;
nodes = (
"224 0 LINE",
"232 65 LINE",
"158 79 LINE",
"205 403 LINE",
"204 431 LINE",
"214 431 LINE",
"283 0 LINE",
"368 0 LINE",
"558 437 LINE",
"568 437 LINE",
"559 405 LINE",
"511 79 LINE",
"439 65 LINE",
"429 0 LINE",
"717 0 LINE",
"728 65 LINE",
"658 79 LINE",
"729 569 LINE",
"798 583 LINE",
"806 648 LINE",
"563 648 LINE",
"403 283 LINE",
"383 222 LINE",
"363 222 LINE",
"365 283 LINE",
"307 648 LINE",
"76 648 LINE",
"66 583 LINE",
"141 569 LINE",
"70 79 LINE",
"-5 65 LINE",
"-15 0 LINE"
);
}
);
};
layerId = "42d03b0b-68f7-4941-bda2-1e253e993363";
paths = (
{
closed = 1;
nodes = (
"224 0 LINE",
"232 65 LINE",
"158 79 LINE",
"202 383 LINE",
"208 441 LINE",
"213 441 LINE",
"283 0 LINE",
"368 0 LINE",
"558 437 LINE",
"564 437 LINE",
"557 385 LINE",
"511 79 LINE",
"439 65 LINE",
"429 0 LINE",
"717 0 LINE",
"728 65 LINE",
"658 79 LINE",
"729 569 LINE",
"798 583 LINE",
"806 648 LINE",
"563 648 LINE",
"401 279 LINE",
"376 212 LINE",
"370 212 LINE",
"365 283 LINE",
"307 648 LINE",
"76 648 LINE",
"66 583 LINE",
"141 569 LINE",
"70 79 LINE",
"-5 65 LINE",
"-15 0 LINE"
);
}
);
width = 773;
}
);
leftKerningGroup = H;
leftMetricsKey = H;
rightKerningGroup = H;
rightMetricsKey = H;
unicode = 004D;
},
{
glyphname = N;
layers = (
{
anchors = (
{
name = bottom;
position = "{307, 0}";
},
{
name = top;
position = "{388, 648}";
}
);
layerId = "0a8077ec-4085-4bbf-a447-43ab7bcde2db";
paths = (
{
closed = 1;
nodes = (
"210 0 LINE",
"212 32 LINE",
"144 46 LINE",
"214 542 LINE",
"218 542 LINE",
"227 512 LINE",
"438 0 LINE",
"503 0 LINE",
"588 602 LINE",
"657 616 LINE",
"660 648 LINE",
"475 648 LINE",
"473 616 LINE",
"542 602 LINE",
"472 112 LINE",
"470 94 LINE",
"466 94 LINE",
"457 124 LINE",
"241 648 LINE",
"114 648 LINE",
"111 616 LINE",
"176 602 LINE",
"98 46 LINE",
"29 32 LINE",
"26 0 LINE"
);
}
);
width = 661;
},
{
anchors = (
{
name = bottom;
position = "{306, 0}";
},
{
name = top;
position = "{387, 648}";
}
);
layerId = "42d03b0b-68f7-4941-bda2-1e253e993363";
paths = (
{
closed = 1;
nodes = (
"229 0 LINE",
"238 65 LINE",
"166 79 LINE",
"219 454 LINE",
"224 454 LINE",
"234 398 LINE",
"403 0 LINE",
"529 0 LINE",
"607 569 LINE",
"678 583 LINE",
"686 648 LINE",
"447 648 LINE",
"439 583 LINE",
"511 569 LINE",
"470 270 LINE",
"466 212 LINE",
"462 212 LINE",
"444 270 LINE",
"285 648 LINE",
"75 648 LINE",
"66 583 LINE",
"139 569 LINE",
"70 79 LINE",
"-4 65 LINE",
"-14 0 LINE"
);
}
);
width = 650;
}
);
leftKerningGroup = H;
leftMetricsKey = H;
rightKerningGroup = N;
unicode = 004E;
},
{
glyphname = Eng;
layers = (
{
anchors = (
{
name = top;
position = "{388, 648}";
}
);
background = {
components = (
{
name = N;
}
);
};
layerId = "0a8077ec-4085-4bbf-a447-43ab7bcde2db";
paths = (
{
closed = 1;
nodes = (
"388 -166 OFFCURVE",
"487 -110 OFFCURVE",
"508 36 CURVE SMOOTH",
"588 602 LINE",
"657 616 LINE",
"660 648 LINE",
"475 648 LINE",
"473 616 LINE",
"541 602 LINE",
"472 115 LINE",
"470 104 LINE",
"465 104 LINE",
"461 114 LINE",
"248 648 LINE",
"114 648 LINE",
"111 616 LINE",
"176 602 LINE",
"98 46 LINE",
"29 32 LINE",
"26 0 LINE",
"210 0 LINE",
"212 32 LINE",
"145 46 LINE",
"213 532 LINE",
"219 532 LINE",
"223 522 LINE",
"434 -4 LINE",
"425 -55 OFFCURVE",
"403 -80 OFFCURVE",
"398 -83 CURVE SMOOTH",
"391 -89 OFFCURVE",
"366 -95 OFFCURVE",
"338 -95 CURVE SMOOTH",
"272 -95 LINE",
"271 -96 OFFCURVE",
"260 -107 OFFCURVE",
"260 -134 CURVE SMOOTH",
"260 -160 OFFCURVE",
"271 -166 OFFCURVE",
"291 -166 CURVE SMOOTH"
);
}
);
width = 661;
},
{
anchors = (
{
name = top;
position = "{387, 648}";
}
);
background = {
components = (
{
name = N;
}
);
};
layerId = "42d03b0b-68f7-4941-bda2-1e253e993363";
paths = (
{
closed = 1;
nodes = (
"435 -174 OFFCURVE",
"520 -64 OFFCURVE",
"535 45 CURVE SMOOTH",
"607 569 LINE",
"678 583 LINE",
"686 648 LINE",
"447 648 LINE",
"439 583 LINE",
"510 569 LINE",
"466 260 LINE",
"463 222 LINE",
"459 222 LINE",
"448 260 LINE",
"285 648 LINE",
"75 648 LINE",
"66 583 LINE",
"139 569 LINE",
"70 79 LINE",
"-4 65 LINE",
"-14 0 LINE",
"229 0 LINE",
"238 65 LINE",
"166 79 LINE",
"218 444 LINE",
"222 444 LINE",
"229 411 LINE",
"390 29 LINE",
"382 -23 OFFCURVE",
"378 -41 OFFCURVE",
"370 -56 CURVE SMOOTH",
"370 -60 OFFCURVE",
"351 -66 OFFCURVE",
"323 -66 CURVE SMOOTH",
"238 -66 LINE",
"236 -67 OFFCURVE",
"222 -87 OFFCURVE",
"222 -114 CURVE SMOOTH",
"222 -155 OFFCURVE",
"246 -174 OFFCURVE",
"305 -174 CURVE SMOOTH"
);
}
);
width = 650;
}
);
leftKerningGroup = H;
leftMetricsKey = H;
rightKerningGroup = N;
rightMetricsKey = N;
unicode = 014A;
},
{
glyphname = Nhookleft;
layers = (
{
anchors = (
{
name = bottom;
position = "{293, 0}";
},
{
name = top;
position = "{384, 648}";
}
);
layerId = "0a8077ec-4085-4bbf-a447-43ab7bcde2db";
paths = (
{
closed = 1;
nodes = (
"33 -166 OFFCURVE",
"124 -109 OFFCURVE",
"144 36 CURVE SMOOTH",
"212 532 LINE",
"217 532 LINE",
"225 514 LINE",
"432 0 LINE",
"502 0 LINE",
"588 602 LINE",
"657 616 LINE",
"660 648 LINE",
"475 648 LINE",
"473 616 LINE",
"541 602 LINE",
"475 132 LINE",
"471 104 LINE",
"465 104 LINE",
"452 136 LINE",
"248 648 LINE",
"112 648 LINE",
"109 616 LINE",
"176 602 LINE",
"91 -4 LINE SMOOTH",
"86 -41 OFFCURVE",
"74 -66 OFFCURVE",
"53 -79 CURVE SMOOTH",
"40 -87 OFFCURVE",
"21 -95 OFFCURVE",
"-7 -95 CURVE SMOOTH",
"-73 -95 LINE",
"-75 -97 OFFCURVE",
"-86 -111 OFFCURVE",
"-86 -135 CURVE SMOOTH",
"-86 -162 OFFCURVE",
"-72 -166 OFFCURVE",
"-51 -166 CURVE SMOOTH"
);
}
);
width = 661;
},
{
anchors = (
{
name = bottom;
position = "{284, 0}";
},
{
name = top;
position = "{375, 648}";
}
);
layerId = "42d03b0b-68f7-4941-bda2-1e253e993363";
paths = (
{
closed = 1;
nodes = (
"80 -174 OFFCURVE",
"144 -66 OFFCURVE",
"160 42 CURVE SMOOTH",
"218 444 LINE",
"222 444 LINE",
"230 408 LINE",
"403 0 LINE",
"529 0 LINE",
"607 569 LINE",
"678 583 LINE",
"686 648 LINE",
"447 648 LINE",
"439 583 LINE",
"510 569 LINE",
"466 259 LINE",
"463 222 LINE",
"459 222 LINE",
"448 260 LINE",
"284 648 LINE",
"75 648 LINE",
"66 583 LINE",
"139 569 LINE",
"66 52 LINE SMOOTH",
"55 -19 OFFCURVE",
"45 -43 OFFCURVE",
"39 -57 CURVE",
"38 -60 OFFCURVE",
"23 -66 OFFCURVE",
"-10 -66 CURVE SMOOTH",
"-95 -66 LINE",
"-97 -67 OFFCURVE",
"-110 -87 OFFCURVE",
"-110 -113 CURVE SMOOTH",
"-110 -154 OFFCURVE",
"-87 -174 OFFCURVE",
"-28 -174 CURVE SMOOTH"
);
}
);
width = 650;
}
);
leftKerningGroup = H;
rightKerningGroup = N;
rightMetricsKey = N;
unicode = 019D;
},
{
glyphname = O;
layers = (
{
anchors = (
{
name = bottom;
position = "{300, 0}";
},
{
name = center;
position = "{334, 324}";
},
{
name = ogonek;
position = "{390, 0}";
},
{
name = top;
position = "{382, 648}";
},
{
name = topright;
position = "{465, 648}";
}
);
layerId = "0a8077ec-4085-4bbf-a447-43ab7bcde2db";
paths = (
{
closed = 1;
nodes = (
"515 -11 OFFCURVE",
"613 186 OFFCURVE",
"613 402 CURVE SMOOTH",
"613 573 OFFCURVE",
"528 660 OFFCURVE",
"379 660 CURVE SMOOTH",
"166 660 OFFCURVE",
"58 460 OFFCURVE",
"58 248 CURVE SMOOTH",
"58 90 OFFCURVE",
"132 -11 OFFCURVE",
"284 -11 CURVE SMOOTH"
);
},
{
closed = 1;
nodes = (
"177 37 OFFCURVE",
"136 108 OFFCURVE",
"136 265 CURVE SMOOTH",
"136 453 OFFCURVE",
"203 612 OFFCURVE",
"366 612 CURVE SMOOTH",
"492 612 OFFCURVE",
"540 542 OFFCURVE",
"535 378 CURVE SMOOTH",
"529 192 OFFCURVE",
"480 37 OFFCURVE",
"304 37 CURVE SMOOTH"
);
}
);
width = 649;
},
{
anchors = (
{
name = bottom;
position = "{306, 0}";
},
{
name = center;
position = "{340, 324}";
},
{
name = ogonek;
position = "{415, 0}";
},
{
name = top;
position = "{372, 648}";
},
{
name = topright;
position = "{468, 648}";
}
);
layerId = "42d03b0b-68f7-4941-bda2-1e253e993363";
paths = (
{
closed = 1;
nodes = (
"516 -11 OFFCURVE",
"643 146 OFFCURVE",
"643 402 CURVE SMOOTH",
"643 523 OFFCURVE",
"582 660 OFFCURVE",
"372 660 CURVE SMOOTH",
"206 660 OFFCURVE",
"37 539 OFFCURVE",
"37 247 CURVE SMOOTH",
"37 68 OFFCURVE",
"165 -11 OFFCURVE",
"298 -11 CURVE SMOOTH"
);
},
{
closed = 1;
nodes = (
"267 60 OFFCURVE",
"206 86 OFFCURVE",
"206 218 CURVE SMOOTH",
"206 421 OFFCURVE",
"221 590 OFFCURVE",
"365 590 CURVE SMOOTH",
"414 590 OFFCURVE",
"475 562 OFFCURVE",
"475 427 CURVE SMOOTH",
"475 231 OFFCURVE",
"457 60 OFFCURVE",
"315 60 CURVE SMOOTH"
);
}
);
width = 657;
}
);
leftKerningGroup = O;
rightKerningGroup = O;
unicode = 004F;
},
{
glyphname = Oslash;
layers = (
{
anchors = (
{
name = top;
position = "{347, 648}";
}
);
layerId = "0a8077ec-4085-4bbf-a447-43ab7bcde2db";
paths = (
{
closed = 1;
nodes = (
"221 -4 LINE",
"241 -8 OFFCURVE",
"262 -11 OFFCURVE",
"284 -11 CURVE SMOOTH",
"513 -11 OFFCURVE",
"613 201 OFFCURVE",
"613 402 CURVE SMOOTH",
"613 514 OFFCURVE",
"575 588 OFFCURVE",
"510 629 CURVE",
"546 706 LINE",
"501 727 LINE",
"465 648 LINE",
"439 656 OFFCURVE",
"410 660 OFFCURVE",
"379 660 CURVE SMOOTH",
"166 660 OFFCURVE",
"58 450 OFFCURVE",
"58 248 CURVE SMOOTH",
"58 136 OFFCURVE",
"97 52 OFFCURVE",
"172 13 CURVE",
"136 -67 LINE",
"183 -90 LINE"
);
},
{
closed = 1;
nodes = (
"151 103 OFFCURVE",
"136 173 OFFCURVE",
"136 281 CURVE SMOOTH",
"136 467 OFFCURVE",
"201 612 OFFCURVE",
"356 612 CURVE SMOOTH",
"390 612 OFFCURVE",
"418 607 OFFCURVE",
"441 598 CURVE",
"195 63 LINE"
);
},
{
closed = 1;
nodes = (
"286 37 OFFCURVE",
"264 39 OFFCURVE",
"243 44 CURVE",
"485 573 LINE",
"521 537 OFFCURVE",
"535 476 OFFCURVE",
"535 388 CURVE SMOOTH",
"535 192 OFFCURVE",
"480 37 OFFCURVE",
"314 37 CURVE SMOOTH"
);
}
);
width = 648;
},
{
anchors = (
{
name = top;
position = "{320, 648}";
}
);
layerId = "42d03b0b-68f7-4941-bda2-1e253e993363";
paths = (
{
closed = 1;
nodes = (
"221 -1 LINE",
"245 -8 OFFCURVE",
"271 -11 OFFCURVE",
"298 -11 CURVE SMOOTH",
"520 -11 OFFCURVE",
"643 141 OFFCURVE",
"643 402 CURVE SMOOTH",
"643 487 OFFCURVE",
"608 585 OFFCURVE",
"510 632 CURVE",
"547 714 LINE",
"480 746 LINE",
"438 654 LINE",
"418 659 OFFCURVE",
"396 660 OFFCURVE",
"372 660 CURVE SMOOTH",
"201 660 OFFCURVE",
"37 539 OFFCURVE",
"37 247 CURVE SMOOTH",
"37 139 OFFCURVE",
"84 67 OFFCURVE",
"150 27 CURVE",
"108 -66 LINE",
"176 -99 LINE"
);
},
{
closed = 1;
nodes = (
"209 177 OFFCURVE",
"206 200 OFFCURVE",
"206 228 CURVE SMOOTH",
"206 503 OFFCURVE",
"250 590 OFFCURVE",
"365 590 CURVE SMOOTH",
"378 590 OFFCURVE",
"392 588 OFFCURVE",
"405 583 CURVE",
"212 161 LINE"
);
},
{
closed = 1;
nodes = (
"293 60 OFFCURVE",
"274 64 OFFCURVE",
"257 76 CURVE",
"461 523 LINE",
"469 498 OFFCURVE",
"475 463 OFFCURVE",
"475 417 CURVE SMOOTH",
"475 145 OFFCURVE",
"426 60 OFFCURVE",
"315 60 CURVE SMOOTH"
);
}
);
width = 658;
}
);
leftKerningGroup = O;
leftMetricsKey = O;
rightKerningGroup = O;
rightMetricsKey = O;
unicode = 00D8;
},
{
glyphname = OE;
layers = (
{
anchors = (
{
name = top;
position = "{503, 648}";
}
);
layerId = "0a8077ec-4085-4bbf-a447-43ab7bcde2db";
paths = (
{
closed = 1;
nodes = (
"707 0 LINE",
"726 146 LINE",
"688 146 LINE",
"650 40 LINE",
"546 40 LINE SMOOTH",
"507 40 OFFCURVE",
"466 42 OFFCURVE",
"450 45 CURVE",
"490 317 LINE",
"625 317 LINE",
"631 260 LINE",
"662 260 LINE",
"681 414 LINE",
"651 414 LINE",
"630 356 LINE",
"495 356 LINE",
"530 603 LINE",
"615 607 LINE",
"715 607 LINE",
"715 498 LINE",
"760 498 LINE",
"779 648 LINE",
"387 648 LINE SMOOTH",
"170 648 OFFCURVE",
"58 453 OFFCURVE",
"58 248 CURVE SMOOTH",
"58 90 OFFCURVE",
"139 0 OFFCURVE",
"291 0 CURVE SMOOTH"
);
},
{
closed = 1;
nodes = (
"184 43 OFFCURVE",
"136 96 OFFCURVE",
"136 281 CURVE SMOOTH",
"136 467 OFFCURVE",
"205 609 OFFCURVE",
"369 609 CURVE SMOOTH",
"405 609 OFFCURVE",
"434 606 OFFCURVE",
"463 599 CURVE",
"386 46 LINE",
"368 43 OFFCURVE",
"348 43 OFFCURVE",
"318 43 CURVE SMOOTH"
);
}
);
width = 799;
},
{
anchors = (
{
name = top;
position = "{527, 648}";
}
);
layerId = "42d03b0b-68f7-4941-bda2-1e253e993363";
paths = (
{
closed = 1;
nodes = (
"775 0 LINE",
"798 189 LINE",
"731 189 LINE",
"690 77 LINE",
"599 77 LINE",
"575 79 OFFCURVE",
"553 81 OFFCURVE",
"525 84 CURVE",
"553 297 LINE",
"664 297 LINE",
"663 227 LINE",
"729 227 LINE",
"757 434 LINE",
"689 434 LINE",
"667 369 LINE",
"563 369 LINE",
"592 564 LINE",
"643 571 LINE",
"753 571 LINE",
"753 455 LINE",
"825 455 LINE",
"855 648 LINE",
"375 648 LINE SMOOTH",
"183 648 OFFCURVE",
"36 494 OFFCURVE",
"36 247 CURVE SMOOTH",
"36 68 OFFCURVE",
"145 0 OFFCURVE",
"278 0 CURVE SMOOTH"
);
},
{
closed = 1;
nodes = (
"204 72 OFFCURVE",
"204 205 OFFCURVE",
"204 228 CURVE SMOOTH",
"204 503 OFFCURVE",
"274 576 OFFCURVE",
"364 576 CURVE SMOOTH",
"395 576 OFFCURVE",
"420 573 OFFCURVE",
"439 570 CURVE",
"369 79 LINE",
"350 75 OFFCURVE",
"330 72 OFFCURVE",
"313 72 CURVE SMOOTH"
);
}
);
width = 843;
}
);
leftKerningGroup = O;
leftMetricsKey = O;
rightKerningGroup = E;
rightMetricsKey = E;
unicode = 0152;
},
{
glyphname = P;
layers = (
{
anchors = (
{
name = bottom;
position = "{126, 0}";
},
{
name = top;
position = "{313, 648}";
}
);
layerId = "0a8077ec-4085-4bbf-a447-43ab7bcde2db";
paths = (
{
closed = 1;
nodes = (
"243 0 LINE",
"245 32 LINE",
"166 46 LINE",
"244 599 LINE",
"264 604 OFFCURVE",
"282 606 OFFCURVE",
"304 606 CURVE SMOOTH",
"395 606 OFFCURVE",
"435 566 OFFCURVE",
"435 476 CURVE SMOOTH",
"435 358 OFFCURVE",
"370 300 OFFCURVE",
"235 300 CURVE",
"235 270 LINE",
"250 268 OFFCURVE",
"265 267 OFFCURVE",
"279 267 CURVE SMOOTH",
"424 267 OFFCURVE",
"506 363 OFFCURVE",
"506 483 CURVE SMOOTH",
"506 593 OFFCURVE",
"438 648 OFFCURVE",
"305 648 CURVE SMOOTH",
"115 648 LINE",
"112 616 LINE",
"178 602 LINE",
"99 46 LINE",
"28 32 LINE",
"25 0 LINE"
);
}
);
width = 500;
},
{
anchors = (
{
name = bottom;
position = "{133, 0}";
},
{
name = top;
position = "{327, 648}";
}
);
layerId = "42d03b0b-68f7-4941-bda2-1e253e993363";
paths = (
{
closed = 1;
nodes = (
"306 0 LINE",
"315 65 LINE",
"222 79 LINE",
"291 569 LINE",
"298 571 OFFCURVE",
"307 572 OFFCURVE",
"313 572 CURVE SMOOTH",
"358 572 OFFCURVE",
"405 555 OFFCURVE",
"405 478 CURVE SMOOTH",
"405 373 OFFCURVE",
"360 316 OFFCURVE",
"273 313 CURVE",
"273 257 LINE",
"276 257 OFFCURVE",
"279 257 OFFCURVE",
"282 257 CURVE SMOOTH",
"459 252 OFFCURVE",
"552 329 OFFCURVE",
"552 480 CURVE SMOOTH",
"552 605 OFFCURVE",
"476 648 OFFCURVE",
"339 648 CURVE SMOOTH",
"75 648 LINE",
"66 583 LINE",
"137 569 LINE",
"68 79 LINE",
"-3 65 LINE",
"-14 0 LINE"
);
}
);
width = 533;
}
);
leftKerningGroup = H;
leftMetricsKey = H;
rightKerningGroup = P;
unicode = 0050;
},
{
glyphname = Thorn;
layers = (
{
layerId = "0a8077ec-4085-4bbf-a447-43ab7bcde2db";
paths = (
{
closed = 1;
nodes = (
"232 0 LINE",
"234 32 LINE",
"166 46 LINE",
"184 169 LINE",
"201 164 OFFCURVE",
"226 161 OFFCURVE",
"264 161 CURVE SMOOTH",
"344 161 OFFCURVE",
"470 207 OFFCURVE",
"470 346 CURVE SMOOTH",
"470 460 OFFCURVE",
"396 501 OFFCURVE",
"295 501 CURVE SMOOTH",
"231 501 LINE",
"245 602 LINE",
"316 616 LINE",
"319 648 LINE",
"114 648 LINE",
"111 616 LINE",
"178 602 LINE",
"100 46 LINE",
"29 32 LINE",
"26 0 LINE"
);
},
{
closed = 1;
nodes = (
"217 197 OFFCURVE",
"201 199 OFFCURVE",
"188 203 CURVE",
"223 453 LINE",
"238 457 OFFCURVE",
"256 459 OFFCURVE",
"277 459 CURVE SMOOTH",
"339 459 OFFCURVE",
"397 445 OFFCURVE",
"397 347 CURVE SMOOTH",
"397 251 OFFCURVE",
"349 197 OFFCURVE",
"238 197 CURVE"
);
}
);
width = 483;
},
{
layerId = "42d03b0b-68f7-4941-bda2-1e253e993363";
paths = (
{
closed = 1;
nodes = (
"280 0 LINE",
"291 65 LINE",
"220 79 LINE",
"228 139 LINE",
"233 139 OFFCURVE",
"239 139 OFFCURVE",
"244 139 CURVE SMOOTH",
"504 139 OFFCURVE",
"541 260 OFFCURVE",
"541 383 CURVE SMOOTH",
"541 474 OFFCURVE",
"463 521 OFFCURVE",
"313 521 CURVE SMOOTH",
"281 521 LINE",
"289 569 LINE",
"360 583 LINE",
"369 648 LINE",
"75 648 LINE",
"66 583 LINE",
"137 569 LINE",
"68 79 LINE",
"-3 65 LINE",
"-14 0 LINE"
);
},
{
closed = 1;
nodes = (
"250 205 OFFCURVE",
"245 205 OFFCURVE",
"237 206 CURVE",
"271 444 LINE",
"285 445 OFFCURVE",
"291 445 OFFCURVE",
"298 445 CURVE SMOOTH",
"359 445 OFFCURVE",
"382 419 OFFCURVE",
"382 361 CURVE SMOOTH",
"382 265 OFFCURVE",
"360 205 OFFCURVE",
"251 205 CURVE SMOOTH"
);
}
);
width = 529;
}
);
leftKerningGroup = H;
leftMetricsKey = H;
rightKerningGroup = Thorn;
unicode = 00DE;
},
{
glyphname = Q;
layers = (
{
anchors = (
{
name = bottom;
position = "{300, 0}";
},
{
name = top;
position = "{391, 648}";
}
);
components = (
{
name = O;
}
);
layerId = "0a8077ec-4085-4bbf-a447-43ab7bcde2db";
paths = (
{
closed = 1;
nodes = (
"510 -159 OFFCURVE",
"531 -159 OFFCURVE",
"543 -143 CURVE SMOOTH",
"580 -95 LINE",
"560 -73 LINE",
"500 -101 LINE",
"331 -63 LINE SMOOTH",
"314 -59 OFFCURVE",
"296 -55 OFFCURVE",
"281 -53 CURVE",
"331 -1 LINE",
"286 -3 LINE",
"185 -112 LINE",
"203 -133 LINE",
"258 -108 LINE",
"427 -146 LINE SMOOTH",
"454 -152 OFFCURVE",
"479 -159 OFFCURVE",
"496 -159 CURVE SMOOTH"
);
}
);
width = 649;
},
{
anchors = (
{
name = bottom;
position = "{306, 0}";
},
{
name = top;
position = "{397, 648}";
}
);
components = (
{
name = O;
}
);
layerId = "42d03b0b-68f7-4941-bda2-1e253e993363";
paths = (
{
closed = 1;
nodes = (
"538 -195 OFFCURVE",
"555 -179 OFFCURVE",
"567 -163 CURVE SMOOTH",
"623 -90 LINE",
"594 -60 LINE",
"536 -92 LINE",
"352 -49 LINE SMOOTH",
"335 -45 OFFCURVE",
"317 -41 OFFCURVE",
"302 -39 CURVE",
"341 2 LINE",
"270 1 LINE",
"158 -112 LINE",
"199 -165 LINE",
"254 -140 LINE",
"439 -182 LINE SMOOTH",
"466 -188 OFFCURVE",
"491 -195 OFFCURVE",
"508 -195 CURVE SMOOTH"
);
}
);
width = 657;
}
);
leftKerningGroup = O;
leftMetricsKey = O;
rightKerningGroup = O;
unicode = 0051;
},
{
glyphname = R;
layers = (
{
anchors = (
{
name = bottom;
position = "{275, 0}";
},
{
name = top;
position = "{324, 648}";
}
);
layerId = "0a8077ec-4085-4bbf-a447-43ab7bcde2db";
paths = (
{
closed = 1;
nodes = (
"233 0 LINE",
"236 34 LINE",
"166 48 LINE",
"198 288 LINE",
"247 288 OFFCURVE",
"268 274 OFFCURVE",
"290 225 CURVE SMOOTH",
"373 39 LINE SMOOTH",
"386 9 OFFCURVE",
"399 0 OFFCURVE",
"427 0 CURVE SMOOTH",
"508 0 LINE",
"510 34 LINE",
"432 63 LINE",
"365 215 LINE SMOOTH",
"343 265 OFFCURVE",
"324 285 OFFCURVE",
"295 298 CURVE",
"412 308 OFFCURVE",
"494 391 OFFCURVE",
"494 503 CURVE SMOOTH",
"494 592 OFFCURVE",
"438 648 OFFCURVE",
"316 648 CURVE SMOOTH",
"115 648 LINE",
"112 616 LINE",
"178 602 LINE",
"99 46 LINE",
"28 32 LINE",
"26 0 LINE"
);
},
{
closed = 1;
nodes = (
"244 600 LINE",
"251 602 OFFCURVE",
"271 606 OFFCURVE",
"300 606 CURVE SMOOTH",
"385 606 OFFCURVE",
"423 572 OFFCURVE",
"423 495 CURVE SMOOTH",
"423 373 OFFCURVE",
"345 326 OFFCURVE",
"204 326 CURVE"
);
}
);
width = 521;
},
{
anchors = (
{
name = bottom;
position = "{273, 0}";
},
{
name = top;
position = "{338, 648}";
}
);
layerId = "42d03b0b-68f7-4941-bda2-1e253e993363";
paths = (
{
closed = 1;
nodes = (
"272 0 LINE",
"279 54 LINE",
"220 71 LINE",
"250 269 LINE",
"263 269 OFFCURVE",
"270 263 OFFCURVE",
"277 244 CURVE SMOOTH",
"351 43 LINE SMOOTH",
"364 7 OFFCURVE",
"372 0 OFFCURVE",
"420 0 CURVE SMOOTH",
"556 0 LINE",
"563 54 LINE",
"502 71 LINE",
"454 187 LINE SMOOTH",
"435 234 OFFCURVE",
"419 274 OFFCURVE",
"378 295 CURVE",
"477 316 OFFCURVE",
"544 392 OFFCURVE",
"544 492 CURVE SMOOTH",
"544 621 OFFCURVE",
"455 648 OFFCURVE",
"339 648 CURVE SMOOTH",
"75 648 LINE",
"66 583 LINE",
"137 569 LINE",
"68 79 LINE",
"-3 65 LINE",
"-14 0 LINE"
);
},
{
closed = 1;
nodes = (
"291 568 LINE",
"296 570 OFFCURVE",
"302 572 OFFCURVE",
"318 572 CURVE SMOOTH",
"368 572 OFFCURVE",
"396 540 OFFCURVE",
"396 489 CURVE SMOOTH",
"396 389 OFFCURVE",
"349 337 OFFCURVE",
"258 337 CURVE"
);
}
);
width = 545;
}
);
leftKerningGroup = H;
leftMetricsKey = H;
rightKerningGroup = R;
unicode = 0052;
},
{
glyphname = S;
layers = (
{
anchors = (
{
name = bottom;
position = "{195, 0}";
},
{
name = top;
position = "{290, 648}";
}
);
layerId = "0a8077ec-4085-4bbf-a447-43ab7bcde2db";
paths = (
{
closed = 1;
nodes = (
"315 -11 OFFCURVE",
"395 63 OFFCURVE",
"395 179 CURVE SMOOTH",
"395 259 OFFCURVE",
"329 314 OFFCURVE",
"266 367 CURVE SMOOTH",
"208 415 OFFCURVE",
"153 461 OFFCURVE",
"153 520 CURVE SMOOTH",
"153 580 OFFCURVE",
"194 612 OFFCURVE",
"280 612 CURVE SMOOTH",
"310 612 OFFCURVE",
"351 605 OFFCURVE",
"375 595 CURVE",
"382 492 LINE",
"421 492 LINE",
"438 635 LINE",
"405 648 OFFCURVE",
"346 660 OFFCURVE",
"291 660 CURVE SMOOTH",
"176 660 OFFCURVE",
"86 614 OFFCURVE",
"86 499 CURVE SMOOTH",
"86 421 OFFCURVE",
"149 370 OFFCURVE",
"210 320 CURVE SMOOTH",
"270 272 OFFCURVE",
"328 224 OFFCURVE",
"328 161 CURVE SMOOTH",
"328 81 OFFCURVE",
"289 36 OFFCURVE",
"180 36 CURVE SMOOTH",
"136 36 OFFCURVE",
"105 46 OFFCURVE",
"91 61 CURVE",
"80 170 LINE",
"37 170 LINE",
"21 38 LINE",
"41 17 OFFCURVE",
"111 -11 OFFCURVE",
"170 -11 CURVE SMOOTH"
);
}
);
width = 451;
},
{
anchors = (
{
name = bottom;
position = "{218, 0}";
},
{
name = top;
position = "{282, 648}";
}
);
layerId = "42d03b0b-68f7-4941-bda2-1e253e993363";
paths = (
{
closed = 1;
nodes = (
"323 -11 OFFCURVE",
"423 71 OFFCURVE",
"423 201 CURVE SMOOTH",
"423 291 OFFCURVE",
"348 356 OFFCURVE",
"274 421 CURVE SMOOTH",
"187 498 OFFCURVE",
"179 516 OFFCURVE",
"179 537 CURVE SMOOTH",
"179 560 OFFCURVE",
"190 589 OFFCURVE",
"243 589 CURVE SMOOTH",
"289 589 OFFCURVE",
"331 577 OFFCURVE",
"352 558 CURVE",
"362 450 LINE",
"438 450 LINE",
"456 640 LINE",
"425 649 OFFCURVE",
"359 660 OFFCURVE",
"273 660 CURVE SMOOTH",
"121 660 OFFCURVE",
"52 571 OFFCURVE",
"52 475 CURVE SMOOTH",
"52 393 OFFCURVE",
"81 364 OFFCURVE",
"204 256 CURVE SMOOTH",
"282 188 OFFCURVE",
"298 153 OFFCURVE",
"298 126 CURVE SMOOTH",
"298 82 OFFCURVE",
"270 61 OFFCURVE",
"227 61 CURVE SMOOTH",
"175 61 OFFCURVE",
"124 78 OFFCURVE",
"103 100 CURVE",
"93 222 LINE",
"14 222 LINE",
"-6 32 LINE",
"16 20 OFFCURVE",
"87 -11 OFFCURVE",
"194 -11 CURVE SMOOTH"
);
}
);
width = 443;
}
);
leftKerningGroup = S;
rightKerningGroup = S;
unicode = 0053;
},
{
glyphname = Scedilla;
layers = (
{
layerId = "0a8077ec-4085-4bbf-a447-43ab7bcde2db";
paths = (
{
closed = 1;
nodes = (
"190 -185 OFFCURVE",
"254 -174 OFFCURVE",
"254 -95 CURVE SMOOTH",
"254 -76 OFFCURVE",
"243 -61 OFFCURVE",
"227 -51 CURVE SMOOTH",
"193 -29 LINE",
"193 -10 LINE",
"318 1 OFFCURVE",
"386 72 OFFCURVE",
"386 182 CURVE SMOOTH",
"386 252 OFFCURVE",
"326 309 OFFCURVE",
"267 359 CURVE SMOOTH",
"200 415 OFFCURVE",
"144 464 OFFCURVE",
"144 520 CURVE SMOOTH",
"144 580 OFFCURVE",
"185 612 OFFCURVE",
"271 612 CURVE SMOOTH",
"301 612 OFFCURVE",
"342 605 OFFCURVE",
"366 595 CURVE",
"373 492 LINE",
"412 492 LINE",
"429 635 LINE",
"396 648 OFFCURVE",
"337 660 OFFCURVE",
"282 660 CURVE SMOOTH",
"167 660 OFFCURVE",
"77 614 OFFCURVE",
"77 491 CURVE SMOOTH",
"77 415 OFFCURVE",
"158 350 OFFCURVE",
"214 305 CURVE SMOOTH",
"260 267 OFFCURVE",
"319 214 OFFCURVE",
"319 161 CURVE SMOOTH",
"319 81 OFFCURVE",
"280 36 OFFCURVE",
"161 36 CURVE SMOOTH",
"127 36 OFFCURVE",
"96 46 OFFCURVE",
"82 61 CURVE",
"71 170 LINE",
"28 170 LINE",
"12 38 LINE",
"30 19 OFFCURVE",
"89 -7 OFFCURVE",
"145 -10 CURVE",
"117 -49 LINE",
"117 -67 LINE",
"170 -95 LINE",
"181 -102 OFFCURVE",
"193 -111 OFFCURVE",
"193 -122 CURVE SMOOTH",
"193 -140 OFFCURVE",
"177 -147 OFFCURVE",
"143 -147 CURVE SMOOTH",
"111 -147 OFFCURVE",
"99 -141 OFFCURVE",
"87 -131 CURVE",
"68 -156 LINE",
"82 -168 OFFCURVE",
"109 -185 OFFCURVE",
"144 -185 CURVE SMOOTH"
);
}
);
width = 451;
},
{
layerId = "42d03b0b-68f7-4941-bda2-1e253e993363";
paths = (
{
closed = 1;
nodes = (
"251 -196 OFFCURVE",
"293 -166 OFFCURVE",
"293 -117 CURVE SMOOTH",
"293 -79 OFFCURVE",
"266 -61 OFFCURVE",
"235 -45 CURVE SMOOTH",
"201 -28 LINE",
"201 -10 LINE",
"324 -5 OFFCURVE",
"419 75 OFFCURVE",
"419 201 CURVE SMOOTH",
"419 291 OFFCURVE",
"344 356 OFFCURVE",
"270 421 CURVE SMOOTH",
"182 497 OFFCURVE",
"176 513 OFFCURVE",
"176 534 CURVE SMOOTH",
"176 557 OFFCURVE",
"186 589 OFFCURVE",
"239 589 CURVE SMOOTH",
"285 589 OFFCURVE",
"327 577 OFFCURVE",
"348 558 CURVE",
"358 450 LINE",
"434 450 LINE",
"452 640 LINE",
"421 649 OFFCURVE",
"355 660 OFFCURVE",
"269 660 CURVE SMOOTH",
"117 660 OFFCURVE",
"48 571 OFFCURVE",
"48 475 CURVE SMOOTH",
"48 393 OFFCURVE",
"77 364 OFFCURVE",
"200 256 CURVE SMOOTH",
"278 188 OFFCURVE",
"292 159 OFFCURVE",
"292 132 CURVE SMOOTH",
"292 91 OFFCURVE",
"264 61 OFFCURVE",
"223 61 CURVE SMOOTH",
"171 61 OFFCURVE",
"120 78 OFFCURVE",
"99 100 CURVE",
"89 222 LINE",
"10 222 LINE",
"-10 32 LINE",
"8 22 OFFCURVE",
"61 -1 OFFCURVE",
"144 -9 CURVE",
"118 -52 LINE",
"118 -78 LINE",
"164 -100 LINE SMOOTH",
"184 -110 OFFCURVE",
"186 -114 OFFCURVE",
"186 -122 CURVE SMOOTH",
"186 -127 OFFCURVE",
"181 -133 OFFCURVE",
"170 -133 CURVE SMOOTH",
"131 -133 OFFCURVE",
"111 -124 OFFCURVE",
"96 -117 CURVE",
"68 -170 LINE",
"100 -190 OFFCURVE",
"137 -196 OFFCURVE",
"196 -196 CURVE SMOOTH"
);
}
);
width = 443;
}
);
leftKerningGroup = S;
rightKerningGroup = S;
unicode = 015E;
},
{
glyphname = Germandbls;
layers = (
{
anchors = (
{
name = bottom;
position = "{345, 0}";
},
{
name = top;
position = "{436, 648}";
}
);
layerId = "0a8077ec-4085-4bbf-a447-43ab7bcde2db";
paths = (
{
closed = 1;
nodes = (
"554 -11 OFFCURVE",
"629 55 OFFCURVE",
"629 169 CURVE SMOOTH",
"629 278 OFFCURVE",
"540 322 OFFCURVE",
"443 335 CURVE",
"440 342 LINE",
"632 603 LINE",
"610 641 LINE",
"565 650 OFFCURVE",
"479 659 OFFCURVE",
"426 659 CURVE SMOOTH",
"237 659 OFFCURVE",
"136 525 OFFCURVE",
"111 342 CURVE SMOOTH",
"71 46 LINE",
"0 32 LINE",
"-3 0 LINE",
"219 0 LINE",
"221 32 LINE",
"137 46 LINE",
"182 370 LINE SMOOTH",
"201 509 OFFCURVE",
"247 603 OFFCURVE",
"409 603 CURVE SMOOTH",
"447 603 OFFCURVE",
"488 598 OFFCURVE",
"522 592 CURVE",
"532 574 LINE",
"354 328 LINE",
"369 289 LINE",
"496 277 OFFCURVE",
"562 233 OFFCURVE",
"562 160 CURVE SMOOTH",
"562 78 OFFCURVE",
"526 36 OFFCURVE",
"423 36 CURVE SMOOTH",
"382 36 OFFCURVE",
"351 48 OFFCURVE",
"339 61 CURVE",
"328 170 LINE",
"284 170 LINE",
"269 38 LINE",
"289 17 OFFCURVE",
"359 -11 OFFCURVE",
"422 -11 CURVE"
);
}
);
width = 662;
},
{
anchors = (
{
name = bottom;
position = "{322, 0}";
},
{
name = top;
position = "{413, 648}";
}
);
layerId = "42d03b0b-68f7-4941-bda2-1e253e993363";
paths = (
{
closed = 1;
nodes = (
"590 -11 OFFCURVE",
"677 84 OFFCURVE",
"677 192 CURVE SMOOTH",
"677 251 OFFCURVE",
"653 314 OFFCURVE",
"534 341 CURVE",
"529 350 LINE",
"696 566 LINE",
"643 647 LINE",
"600 656 OFFCURVE",
"521 668 OFFCURVE",
"465 668 CURVE SMOOTH",
"256 668 OFFCURVE",
"117 548 OFFCURVE",
"88 343 CURVE SMOOTH",
"51 79 LINE",
"-20 65 LINE",
"-30 0 LINE",
"192 0 LINE",
"201 62 LINE",
"203 79 LINE",
"242 369 LINE SMOOTH",
"262 517 OFFCURVE",
"304 589 OFFCURVE",
"428 589 CURVE SMOOTH",
"465 589 OFFCURVE",
"498 583 OFFCURVE",
"527 574 CURVE",
"534 561 LINE",
"368 343 LINE",
"400 266 LINE",
"539 262 OFFCURVE",
"548 185 OFFCURVE",
"548 163 CURVE SMOOTH",
"548 100 OFFCURVE",
"519 61 OFFCURVE",
"464 61 CURVE SMOOTH",
"423 61 OFFCURVE",
"383 80 OFFCURVE",
"367 100 CURVE",
"356 222 LINE",
"278 222 LINE",
"258 32 LINE",
"275 20 OFFCURVE",
"342 -11 OFFCURVE",
"426 -11 CURVE SMOOTH"
);
}
);
width = 697;
}
);
leftKerningGroup = Germandbls;
rightKerningGroup = Germandbls;
unicode = 1E9E;
},
{
glyphname = Schwa;
layers = (
{
anchors = (
{
name = bottom;
position = "{300, 0}";
},
{
name = center;
position = "{334, 324}";
},
{
name = top;
position = "{382, 648}";
},
{
name = topright;
position = "{420, 648}";
}
);
layerId = "0a8077ec-4085-4bbf-a447-43ab7bcde2db";
paths = (
{
closed = 1;
nodes = (
"483 -11 OFFCURVE",
"578 199 OFFCURVE",
"578 405 CURVE SMOOTH",
"578 565 OFFCURVE",
"491 660 OFFCURVE",
"329 660 CURVE SMOOTH",
"236 660 OFFCURVE",
"173 632 OFFCURVE",
"144 617 CURVE",
"130 491 LINE",
"166 491 LINE",
"197 582 LINE",
"205 588 OFFCURVE",
"243 613 OFFCURVE",
"312 613 CURVE SMOOTH",
"449 613 OFFCURVE",
"500 545 OFFCURVE",
"500 391 CURVE",
"500 380 OFFCURVE",
"500 371 OFFCURVE",
"500 360 CURVE",
"69 360 LINE",
"62 323 OFFCURVE",
"58 286 OFFCURVE",
"58 248 CURVE SMOOTH",
"58 90 OFFCURVE",
"127 -11 OFFCURVE",
"267 -11 CURVE SMOOTH"
);
},
{
closed = 1;
nodes = (
"164 37 OFFCURVE",
"132 116 OFFCURVE",
"132 281 CURVE SMOOTH",
"132 290 OFFCURVE",
"132 299 OFFCURVE",
"133 307 CURVE",
"496 307 LINE",
"483 151 OFFCURVE",
"428 37 OFFCURVE",
"297 37 CURVE SMOOTH"
);
}
);
width = 613;
},
{
anchors = (
{
name = bottom;
position = "{306, 0}";
},
{
name = center;
position = "{340, 324}";
},
{
name = top;
position = "{372, 648}";
},
{
name = topright;
position = "{437, 648}";
}
);
layerId = "42d03b0b-68f7-4941-bda2-1e253e993363";
paths = (
{
closed = 1;
nodes = (
"498 -11 OFFCURVE",
"615 151 OFFCURVE",
"615 383 CURVE SMOOTH",
"615 566 OFFCURVE",
"524 660 OFFCURVE",
"330 660 CURVE SMOOTH",
"266 660 OFFCURVE",
"180 651 OFFCURVE",
"104 625 CURVE",
"88 430 LINE",
"166 430 LINE",
"199 563 LINE",
"231 586 OFFCURVE",
"266 588 OFFCURVE",
"307 588 CURVE SMOOTH",
"416 588 OFFCURVE",
"446 544 OFFCURVE",
"446 396 CURVE SMOOTH",
"446 385 OFFCURVE",
"446 374 OFFCURVE",
"445 363 CURVE",
"47 363 LINE",
"41 328 OFFCURVE",
"37 289 OFFCURVE",
"37 247 CURVE SMOOTH",
"37 68 OFFCURVE",
"157 -11 OFFCURVE",
"283 -11 CURVE SMOOTH"
);
},
{
closed = 1;
nodes = (
"259 60 OFFCURVE",
"207 87 OFFCURVE",
"207 228 CURVE SMOOTH",
"207 251 OFFCURVE",
"207 271 OFFCURVE",
"208 292 CURVE",
"442 292 LINE",
"429 117 OFFCURVE",
"383 60 OFFCURVE",
"301 60 CURVE SMOOTH"
);
}
);
width = 631;
}
);
leftKerningGroup = O;
leftMetricsKey = O;
rightKerningGroup = O;
rightMetricsKey = O;
unicode = 018F;
},
{
glyphname = T;
layers = (
{
anchors = (
{
name = bottom;
position = "{203, 0}";
},
{
name = center;
position = "{247, 324}";
},
{
name = top;
position = "{294, 648}";
}
);
layerId = "0a8077ec-4085-4bbf-a447-43ab7bcde2db";
paths = (
{
closed = 1;
nodes = (
"304 0 LINE",
"306 32 LINE",
"238 46 LINE",
"317 602 LINE",
"442 602 LINE",
"434 489 LINE",
"483 489 LINE",
"511 648 LINE",
"61 648 LINE",
"42 489 LINE",
"82 489 LINE",
"119 602 LINE",
"250 602 LINE",
"172 46 LINE",
"101 32 LINE",
"98 0 LINE"
);
}
);
width = 463;
},
{
anchors = (
{
name = bottom;
position = "{231, 0}";
},
{
name = center;
position = "{280, 324}";
},
{
name = top;
position = "{322, 648}";
}
);
layerId = "42d03b0b-68f7-4941-bda2-1e253e993363";
paths = (
{
closed = 1;
nodes = (
"379 0 LINE",
"389 65 LINE",
"318 79 LINE",
"386 573 LINE",
"480 573 LINE",
"483 457 LINE",
"553 457 LINE",
"581 648 LINE",
"49 648 LINE",
"28 457 LINE",
"99 457 LINE",
"136 573 LINE",
"236 573 LINE",
"166 79 LINE",
"95 65 LINE",
"86 0 LINE"
);
}
);
width = 523;
}
);
leftKerningGroup = T;
rightKerningGroup = T;
unicode = 0054;
},
{
glyphname = U;
layers = (
{
anchors = (
{
name = bottom;
position = "{280, 0}";
},
{
name = ogonek;
position = "{369, 0}";
},
{
name = top;
position = "{371, 648}";
},
{
name = topright;
position = "{652, 648}";
}
);
layerId = "0a8077ec-4085-4bbf-a447-43ab7bcde2db";
paths = (
{
closed = 1;
nodes = (
"446 -11 OFFCURVE",
"506 87 OFFCURVE",
"532 279 CURVE SMOOTH",
"576 601 LINE",
"648 616 LINE",
"652 648 LINE",
"456 648 LINE",
"453 616 LINE",
"519 601 LINE",
"474 276 LINE SMOOTH",
"455 137 OFFCURVE",
"414 41 OFFCURVE",
"291 41 CURVE SMOOTH",
"182 41 OFFCURVE",
"152 77 OFFCURVE",
"152 183 CURVE SMOOTH",
"152 212 OFFCURVE",
"154 240 OFFCURVE",
"159 276 CURVE SMOOTH",
"204 602 LINE",
"277 616 LINE",
"280 648 LINE",
"74 648 LINE",
"71 616 LINE",
"135 602 LINE",
"90 280 LINE SMOOTH",
"84 239 OFFCURVE",
"81 200 OFFCURVE",
"81 167 CURVE SMOOTH",
"81 55 OFFCURVE",
"144 -11 OFFCURVE",
"265 -11 CURVE SMOOTH"
);
}
);
width = 613;
},
{
anchors = (
{
name = bottom;
position = "{301, 0}";
},
{
name = ogonek;
position = "{416, 0}";
},
{
name = top;
position = "{392, 648}";
},
{
name = topright;
position = "{692, 648}";
}
);
layerId = "42d03b0b-68f7-4941-bda2-1e253e993363";
paths = (
{
closed = 1;
nodes = (
"475 -11 OFFCURVE",
"543 64 OFFCURVE",
"573 278 CURVE SMOOTH",
"614 569 LINE",
"684 583 LINE",
"692 648 LINE",
"456 648 LINE",
"448 583 LINE",
"518 569 LINE",
"477 278 LINE SMOOTH",
"450 89 OFFCURVE",
"405 57 OFFCURVE",
"325 57 CURVE SMOOTH",
"239 57 OFFCURVE",
"225 113 OFFCURVE",
"225 159 CURVE SMOOTH",
"225 175 OFFCURVE",
"231 229 OFFCURVE",
"238 278 CURVE SMOOTH",
"280 569 LINE",
"350 583 LINE",
"359 648 LINE",
"66 648 LINE",
"56 583 LINE",
"127 569 LINE",
"86 272 LINE SMOOTH",
"80 230 OFFCURVE",
"77 194 OFFCURVE",
"77 162 CURVE SMOOTH",
"77 75 OFFCURVE",
"115 -11 OFFCURVE",
"301 -11 CURVE SMOOTH"
);
}
);
width = 647;
}
);
leftKerningGroup = U;
rightKerningGroup = U;
unicode = 0055;
},
{
glyphname = Uhorn;
layers = (
{
anchors = (
{
name = bottom;
position = "{272.286, 0}";
},
{
name = top;
position = "{363.357, 648}";
}
);
layerId = "0a8077ec-4085-4bbf-a447-43ab7bcde2db";
paths = (
{
closed = 1;
nodes = (
"446 -11 OFFCURVE",
"506 87 OFFCURVE",
"532 279 CURVE SMOOTH",
"576 601 LINE",
"682 624 OFFCURVE",
"704 689 OFFCURVE",
"704 713 CURVE SMOOTH",
"704 754 OFFCURVE",
"688 765 OFFCURVE",
"673 775 CURVE",
"622 738 LINE",
"622 723 LINE",
"636 714 OFFCURVE",
"644 706 OFFCURVE",
"644 688 CURVE SMOOTH",
"644 657 OFFCURVE",
"625 648 OFFCURVE",
"583 648 CURVE SMOOTH",
"456 648 LINE",
"453 616 LINE",
"519 601 LINE",
"474 276 LINE SMOOTH",
"455 137 OFFCURVE",
"414 41 OFFCURVE",
"291 41 CURVE SMOOTH",
"182 41 OFFCURVE",
"152 77 OFFCURVE",
"152 183 CURVE SMOOTH",
"152 212 OFFCURVE",
"154 240 OFFCURVE",
"159 276 CURVE SMOOTH",
"204 602 LINE",
"277 616 LINE",
"280 648 LINE",
"74 648 LINE",
"71 616 LINE",
"135 602 LINE",
"90 280 LINE SMOOTH",
"84 239 OFFCURVE",
"81 200 OFFCURVE",
"81 167 CURVE SMOOTH",
"81 55 OFFCURVE",
"144 -11 OFFCURVE",
"265 -11 CURVE SMOOTH"
);
}
);
width = 613;
},
{
anchors = (
{
name = bottom;
position = "{290, 0}";
},
{
name = top;
position = "{381, 648}";
}
);
layerId = "42d03b0b-68f7-4941-bda2-1e253e993363";
paths = (
{
closed = 1;
nodes = (
"483 -11 OFFCURVE",
"543 64 OFFCURVE",
"573 278 CURVE SMOOTH",
"613 567 LINE",
"735 605 OFFCURVE",
"760 664 OFFCURVE",
"760 719 CURVE SMOOTH",
"760 760 OFFCURVE",
"731 778 OFFCURVE",
"727 780 CURVE",
"648 729 LINE",
"648 714 LINE",
"654 708 OFFCURVE",
"659 701 OFFCURVE",
"659 687 CURVE SMOOTH",
"659 656 OFFCURVE",
"637 648 OFFCURVE",
"588 648 CURVE SMOOTH",
"456 648 LINE",
"448 583 LINE",
"519 569 LINE",
"477 278 LINE SMOOTH",
"450 89 OFFCURVE",
"408 57 OFFCURVE",
"317 57 CURVE SMOOTH",
"236 57 OFFCURVE",
"224 113 OFFCURVE",
"224 159 CURVE SMOOTH",
"224 175 OFFCURVE",
"230 229 OFFCURVE",
"237 278 CURVE SMOOTH",
"280 569 LINE",
"350 583 LINE",
"359 648 LINE",
"66 648 LINE",
"56 583 LINE",
"127 569 LINE",
"86 272 LINE SMOOTH",
"80 230 OFFCURVE",
"77 194 OFFCURVE",
"77 162 CURVE SMOOTH",
"77 75 OFFCURVE",
"111 -11 OFFCURVE",
"301 -11 CURVE SMOOTH"
);
}
);
width = 648;
}
);
leftKerningGroup = U;
leftMetricsKey = U;
rightKerningGroup = U;
unicode = 01AF;
},
{
glyphname = Uogonek;
layers = (
{
background = {
paths = (
{
closed = 1;
nodes = (
"366 -175 OFFCURVE",
"406 -134 OFFCURVE",
"410 -129 CURVE",
"396 -108 LINE",
"390 -113 OFFCURVE",
"361 -128 OFFCURVE",
"338 -128 CURVE SMOOTH",
"309 -128 OFFCURVE",
"296 -110 OFFCURVE",
"296 -86 CURVE SMOOTH",
"296 -41 OFFCURVE",
"331 -10 OFFCURVE",
"353 3 CURVE",
"465 42 OFFCURVE",
"503 134 OFFCURVE",
"523 279 CURVE SMOOTH",
"567 601 LINE",
"639 616 LINE",
"643 648 LINE",
"447 648 LINE",
"444 616 LINE",
"510 601 LINE",
"466 278 LINE SMOOTH",
"447 139 OFFCURVE",
"407 41 OFFCURVE",
"292 41 CURVE SMOOTH",
"168 41 OFFCURVE",
"143 85 OFFCURVE",
"143 186 CURVE SMOOTH",
"143 214 OFFCURVE",
"144 242 OFFCURVE",
"149 278 CURVE SMOOTH",
"194 602 LINE",
"268 616 LINE",
"271 648 LINE",
"65 648 LINE",
"62 616 LINE",
"127 602 LINE",
"81 280 LINE SMOOTH",
"75 239 OFFCURVE",
"72 200 OFFCURVE",
"72 167 CURVE SMOOTH",
"72 55 OFFCURVE",
"136 -11 OFFCURVE",
"247 -11 CURVE SMOOTH",
"260 -11 OFFCURVE",
"274 -11 OFFCURVE",
"289 -10 CURVE",
"290 -13 LINE",
"254 -40 OFFCURVE",
"236 -75 OFFCURVE",
"236 -114 CURVE SMOOTH",
"236 -163 OFFCURVE",
"269 -175 OFFCURVE",
"306 -175 CURVE SMOOTH"
);
}
);
};
components = (
{
name = U;
},
{
name = ogonekcomb.case;
transform = "{1, 0, 0, 1, 306, 0}";
}
);
layerId = "0a8077ec-4085-4bbf-a447-43ab7bcde2db";
width = 613;
},
{
background = {
paths = (
{
closed = 1;
nodes = (
"404 -190 OFFCURVE",
"445 -141 OFFCURVE",
"449 -135 CURVE",
"423 -97 LINE",
"399 -111 OFFCURVE",
"383 -115 OFFCURVE",
"372 -115 CURVE SMOOTH",
"351 -115 OFFCURVE",
"339 -110 OFFCURVE",
"339 -83 CURVE SMOOTH",
"339 -46 OFFCURVE",
"370 -16 OFFCURVE",
"394 2 CURVE",
"495 30 OFFCURVE",
"537 111 OFFCURVE",
"561 278 CURVE SMOOTH",
"602 569 LINE",
"672 583 LINE",
"680 648 LINE",
"444 648 LINE",
"436 583 LINE",
"507 569 LINE",
"465 278 LINE SMOOTH",
"437 89 OFFCURVE",
"396 57 OFFCURVE",
"305 57 CURVE SMOOTH",
"229 57 OFFCURVE",
"213 115 OFFCURVE",
"213 161 CURVE SMOOTH",
"213 177 OFFCURVE",
"218 229 OFFCURVE",
"225 278 CURVE SMOOTH",
"268 569 LINE",
"338 583 LINE",
"347 648 LINE",
"54 648 LINE",
"44 583 LINE",
"115 569 LINE",
"74 272 LINE SMOOTH",
"68 230 OFFCURVE",
"65 194 OFFCURVE",
"65 162 CURVE SMOOTH",
"65 75 OFFCURVE",
"99 -11 OFFCURVE",
"289 -11 CURVE SMOOTH",
"298 -11 OFFCURVE",
"307 -5 OFFCURVE",
"308 -4 CURVE",
"309 -7 LINE",
"274 -30 OFFCURVE",
"235 -67 OFFCURVE",
"235 -117 CURVE SMOOTH",
"235 -166 OFFCURVE",
"278 -190 OFFCURVE",
"339 -190 CURVE SMOOTH"
);
}
);
};
components = (
{
name = U;
},
{
name = ogonekcomb.case;
transform = "{1, 0, 0, 1, 310, 0}";
}
);
layerId = "42d03b0b-68f7-4941-bda2-1e253e993363";
width = 647;
}
);
leftKerningGroup = U;
rightKerningGroup = U;
unicode = 0172;
},
{
glyphname = V;
layers = (
{
anchors = (
{
name = bottom;
position = "{222, 0}";
},
{
name = top;
position = "{313, 648}";
}
);
layerId = "0a8077ec-4085-4bbf-a447-43ab7bcde2db";
paths = (
{
closed = 1;
nodes = (
"234 -9 LINE",
"510 601 LINE",
"558 616 LINE",
"562 648 LINE",
"382 648 LINE",
"378 616 LINE",
"457 599 LINE",
"259 147 LINE",
"246 113 LINE",
"242 113 LINE",
"239 147 LINE",
"158 599 LINE",
"234 616 LINE",
"238 648 LINE",
"42 648 LINE",
"38 616 LINE",
"88 604 LINE",
"202 -9 LINE"
);
}
);
width = 493;
},
{
anchors = (
{
name = bottom;
position = "{248, 0}";
},
{
name = top;
position = "{339, 648}";
}
);
layerId = "42d03b0b-68f7-4941-bda2-1e253e993363";
paths = (
{
closed = 1;
nodes = (
"297 -9 LINE",
"558 569 LINE",
"618 583 LINE",
"627 648 LINE",
"398 648 LINE",
"390 583 LINE",
"470 573 LINE",
"317 229 LINE",
"304 183 LINE",
"299 183 LINE",
"297 229 LINE",
"240 575 LINE",
"304 583 LINE",
"310 648 LINE",
"20 648 LINE",
"13 583 LINE",
"84 568 LINE",
"191 -9 LINE"
);
}
);
width = 540;
}
);
leftKerningGroup = V;
rightKerningGroup = V;
unicode = 0056;
},
{
glyphname = W;
layers = (
{
anchors = (
{
name = bottom;
position = "{348, 0}";
},
{
name = top;
position = "{432, 648}";
}
);
background = {
paths = (
{
closed = 1;
nodes = (
"91 602 LINE",
"171 -8 LINE",
"198 -8 LINE",
"407 439 LINE",
"477 -8 LINE",
"506 -8 LINE",
"757 598 LINE",
"803 614 LINE",
"808 648 LINE",
"628 648 LINE",
"623 614 LINE",
"703 598 LINE",
"534 150 LINE",
"521 111 LINE",
"517 111 LINE",
"513 150 LINE",
"448 598 LINE",
"519 614 LINE",
"523 648 LINE",
"328 648 LINE",
"324 614 LINE",
"376 602 LINE",
"394 505 LINE",
"228 143 LINE",
"216 111 LINE",
"212 111 LINE",
"210 143 LINE",
"163 598 LINE",
"234 614 LINE",
"238 648 LINE",
"42 648 LINE",
"39 614 LINE"
);
}
);
};
layerId = "0a8077ec-4085-4bbf-a447-43ab7bcde2db";
paths = (
{
closed = 1;
nodes = (
"203 -8 LINE",
"407 439 LINE",
"477 -8 LINE",
"511 -8 LINE",
"757 598 LINE",
"803 614 LINE",
"808 648 LINE",
"628 648 LINE",
"623 614 LINE",
"703 598 LINE",
"534 150 LINE",
"521 111 LINE",
"517 111 LINE",
"513 150 LINE",
"448 598 LINE",
"519 614 LINE",
"523 648 LINE",
"328 648 LINE",
"324 614 LINE",
"376 602 LINE",
"394 505 LINE",
"228 143 LINE",
"216 111 LINE",
"212 111 LINE",
"210 143 LINE",
"163 598 LINE",
"234 614 LINE",
"238 648 LINE",
"42 648 LINE",
"39 614 LINE",
"91 602 LINE",
"171 -8 LINE"
);
}
);
width = 739;
},
{
anchors = (
{
name = bottom;
position = "{420, 0}";
},
{
name = top;
position = "{521, 648}";
}
);
background = {
paths = (
{
closed = 1;
nodes = (
"288 -8 LINE",
"463 367 LINE",
"514 -8 LINE",
"644 -8 LINE",
"922 584 LINE",
"983 594 LINE",
"989 648 LINE",
"762 648 LINE",
"756 594 LINE",
"822 577 LINE",
"641 180 LINE",
"637 156 LINE",
"633 157 LINE",
"634 179 LINE",
"595 580 LINE",
"672 594 LINE",
"679 648 LINE",
"376 648 LINE",
"369 594 LINE",
"433 582 LINE",
"442 527 LINE",
"288 184 LINE",
"283 155 LINE",
"279 156 LINE",
"280 184 LINE",
"245 580 LINE",
"313 594 LINE",
"320 648 LINE",
"18 648 LINE",
"12 594 LINE",
"78 582 LINE",
"159 -8 LINE"
);
}
);
};
layerId = "42d03b0b-68f7-4941-bda2-1e253e993363";
paths = (
{
closed = 1;
nodes = (
"288 -8 LINE",
"463 367 LINE",
"514 -8 LINE",
"644 -8 LINE",
"922 584 LINE",
"983 594 LINE",
"989 648 LINE",
"762 648 LINE",
"756 594 LINE",
"822 577 LINE",
"650 200 LINE",
"637 156 LINE",
"633 156 LINE",
"632 199 LINE",
"595 580 LINE",
"672 594 LINE",
"679 648 LINE",
"376 648 LINE",
"369 594 LINE",
"433 582 LINE",
"442 527 LINE",
"297 204 LINE",
"283 155 LINE",
"279 155 LINE",
"278 204 LINE",
"245 580 LINE",
"313 594 LINE",
"320 648 LINE",
"20 648 LINE",
"12 587 LINE",
"79 575 LINE",
"159 -8 LINE"
);
}
);
width = 903;
}
);
leftKerningGroup = V;
leftMetricsKey = V;
rightKerningGroup = V;
rightMetricsKey = V;
unicode = 0057;
},
{
glyphname = X;
layers = (
{
anchors = (
{
name = bottom;
position = "{212, 0}";
},
{
name = top;
position = "{320, 648}";
}
);
background = {
paths = (
{
closed = 1;
nodes = (
"246 342 LINE",
"14 44 LINE",
"-37 31 LINE",
"-41 0 LINE",
"144 0 LINE",
"148 34 LINE",
"80 48 LINE",
"81 59 LINE",
"266 296 LINE"
);
},
{
closed = 1;
nodes = (
"289 376 LINE",
"195 584 LINE",
"195 599 LINE",
"269 614 LINE",
"272 648 LINE",
"57 648 LINE",
"53 616 LINE",
"115 602 LINE",
"360 62 LINE",
"360 49 LINE",
"281 34 LINE",
"278 0 LINE",
"488 0 LINE",
"491 34 LINE",
"435 45 LINE",
"298 352 LINE"
);
},
{
closed = 1;
nodes = (
"295 331 LINE",
"503 601 LINE",
"544 615 LINE",
"549 648 LINE",
"367 648 LINE",
"363 615 LINE",
"439 600 LINE",
"439 589 LINE",
"276 377 LINE"
);
}
);
};
layerId = "0a8077ec-4085-4bbf-a447-43ab7bcde2db";
paths = (
{
closed = 1;
nodes = (
"246 342 LINE",
"14 44 LINE",
"-37 31 LINE",
"-41 0 LINE",
"144 0 LINE",
"148 34 LINE",
"79 48 LINE",
"80 59 LINE",
"265 296 LINE"
);
},
{
closed = 1;
nodes = (
"191 584 LINE",
"191 599 LINE",
"269 614 LINE",
"272 648 LINE",
"57 648 LINE",
"53 616 LINE",
"115 602 LINE",
"359 62 LINE",
"359 49 LINE",
"281 34 LINE",
"278 0 LINE",
"488 0 LINE",
"491 34 LINE",
"435 45 LINE"
);
},
{
closed = 1;
nodes = (
"295 331 LINE",
"503 601 LINE",
"544 615 LINE",
"549 648 LINE",
"367 648 LINE",
"363 615 LINE",
"441 600 LINE",
"441 589 LINE",
"277 377 LINE"
);
}
);
width = 509;
},
{
anchors = (
{
name = bottom;
position = "{248, 0}";
},
{
name = top;
position = "{392, 648}";
}
);
background = {
paths = (
{
closed = 1;
nodes = (
"212 0 LINE",
"218 54 LINE",
"166 69 LINE",
"166 82 LINE",
"282 228 LINE",
"348 85 LINE",
"348 71 LINE",
"288 54 LINE",
"283 0 LINE",
"563 0 LINE",
"570 67 LINE",
"503 86 LINE",
"387 344 LINE",
"561 569 LINE",
"630 584 LINE",
"638 648 LINE",
"417 648 LINE",
"408 590 LINE",
"455 580 LINE",
"455 566 LINE",
"349 428 LINE",
"288 562 LINE",
"288 580 LINE",
"348 594 LINE",
"355 648 LINE",
"68 648 LINE",
"59 582 LINE",
"121 572 LINE",
"241 314 LINE",
"61 86 LINE",
"-29 64 LINE",
"-39 0 LINE"
);
}
);
};
layerId = "42d03b0b-68f7-4941-bda2-1e253e993363";
paths = (
{
closed = 1;
nodes = (
"251 327 LINE",
"61 86 LINE",
"-29 64 LINE",
"-39 0 LINE",
"212 0 LINE",
"218 54 LINE",
"166 69 LINE",
"166 82 LINE",
"292 241 LINE"
);
},
{
closed = 1;
nodes = (
"280 562 LINE",
"280 580 LINE",
"348 594 LINE",
"355 648 LINE",
"68 648 LINE",
"59 582 LINE",
"121 572 LINE",
"348 85 LINE",
"348 71 LINE",
"288 54 LINE",
"283 0 LINE",
"563 0 LINE",
"570 67 LINE",
"502 86 LINE"
);
},
{
closed = 1;
nodes = (
"377 331 LINE",
"561 569 LINE",
"630 584 LINE",
"638 648 LINE",
"417 648 LINE",
"408 590 LINE",
"455 580 LINE",
"455 566 LINE",
"339 415 LINE"
);
}
);
width = 587;
}
);
leftKerningGroup = X;
rightKerningGroup = X;
unicode = 0058;
},
{
glyphname = Y;
layers = (
{
anchors = (
{
name = bottom;
position = "{220, 0}";
},
{
name = top;
position = "{301, 648}";
}
);
background = {
paths = (
{
closed = 1;
nodes = (
"322 0 LINE",
"324 34 LINE",
"258 48 LINE",
"283 228 LINE",
"484 598 LINE",
"534 614 LINE",
"539 648 LINE",
"357 648 LINE",
"352 614 LINE",
"427 599 LINE",
"427 580 LINE",
"274 281 LINE",
"238 281 LINE",
"274 254 LINE",
"165 576 LINE",
"165 599 LINE",
"239 614 LINE",
"243 648 LINE",
"41 648 LINE",
"37 614 LINE",
"91 602 LINE",
"217 232 LINE",
"191 48 LINE",
"118 34 LINE",
"116 0 LINE"
);
}
);
};
layerId = "0a8077ec-4085-4bbf-a447-43ab7bcde2db";
paths = (
{
closed = 1;
nodes = (
"322 0 LINE",
"324 34 LINE",
"258 48 LINE",
"282 221 LINE",
"484 598 LINE",
"534 614 LINE",
"539 648 LINE",
"357 648 LINE",
"352 614 LINE",
"428 599 LINE",
"428 580 LINE",
"270 277 LINE",
"266 277 LINE",
"165 576 LINE",
"165 599 LINE",
"239 614 LINE",
"243 648 LINE",
"41 648 LINE",
"37 614 LINE",
"91 602 LINE",
"217 232 LINE",
"191 48 LINE",
"118 34 LINE",
"116 0 LINE"
);
}
);
width = 475;
},
{
anchors = (
{
name = bottom;
position = "{242, 0}";
},
{
name = top;
position = "{336, 648}";
}
);
background = {
paths = (
{
closed = 1;
nodes = (
"393 0 LINE",
"400 54 LINE",
"328 68 LINE",
"356 278 LINE",
"520 583 LINE",
"577 594 LINE",
"583 648 LINE",
"368 648 LINE",
"362 594 LINE",
"420 581 LINE",
"420 572 LINE",
"308 348 LINE",
"306 348 LINE",
"238 562 LINE",
"238 580 LINE",
"303 594 LINE",
"309 648 LINE",
"33 648 LINE",
"26 591 LINE",
"80 582 LINE",
"200 258 LINE",
"176 68 LINE",
"105 54 LINE",
"98 0 LINE"
);
}
);
};
layerId = "42d03b0b-68f7-4941-bda2-1e253e993363";
paths = (
{
closed = 1;
nodes = (
"387 0 LINE",
"394 54 LINE",
"322 68 LINE",
"350 278 LINE",
"516 576 LINE",
"574 583 LINE",
"583 648 LINE",
"368 648 LINE",
"362 594 LINE",
"420 581 LINE",
"420 572 LINE",
"302 348 LINE",
"300 348 LINE",
"236 562 LINE",
"236 580 LINE",
"303 594 LINE",
"309 648 LINE",
"33 648 LINE",
"25 583 LINE",
"82 575 LINE",
"194 258 LINE",
"170 68 LINE",
"99 54 LINE",
"92 0 LINE"
);
}
);
width = 507;
}
);
leftKerningGroup = Y;
rightKerningGroup = Y;
unicode = 0059;
},
{
glyphname = Z;
layers = (
{
anchors = (
{
name = bottom;
position = "{205, 0}";
},
{
name = top;
position = "{287, 648}";
}
);
background = {
paths = (
{
closed = 1;
nodes = (
"415 0 LINE",
"434 142 LINE",
"394 142 LINE",
"353 40 LINE",
"78 40 LINE",
"73 52 LINE",
"490 610 LINE",
"468 648 LINE",
"87 648 LINE",
"66 502 LINE",
"106 502 LINE",
"146 605 LINE",
"393 605 LINE",
"400 592 LINE",
"-11 41 LINE",
"5 0 LINE"
);
}
);
};
layerId = "0a8077ec-4085-4bbf-a447-43ab7bcde2db";
paths = (
{
closed = 1;
nodes = (
"415 0 LINE",
"434 142 LINE",
"394 142 LINE",
"353 40 LINE",
"78 40 LINE",
"73 50 LINE",
"490 610 LINE",
"468 648 LINE",
"87 648 LINE",
"66 502 LINE",
"106 502 LINE",
"146 605 LINE",
"396 605 LINE",
"401 595 LINE",
"-11 41 LINE",
"5 0 LINE"
);
}
);
width = 481;
},
{
anchors = (
{
name = bottom;
position = "{248, 0}";
},
{
name = top;
position = "{317, 648}";
}
);
background = {
paths = (
{
closed = 1;
nodes = (
"470 0 LINE",
"494 190 LINE",
"427 190 LINE",
"389 77 LINE",
"177 77 LINE",
"174 84 LINE",
"547 567 LINE",
"495 648 LINE",
"68 648 LINE",
"41 459 LINE",
"107 459 LINE",
"151 572 LINE",
"358 572 LINE",
"364 561 LINE",
"-8 77 LINE",
"24 0 LINE"
);
}
);
};
layerId = "42d03b0b-68f7-4941-bda2-1e253e993363";
paths = (
{
closed = 1;
nodes = (
"481 0 LINE",
"505 190 LINE",
"438 190 LINE",
"400 77 LINE",
"190 77 LINE",
"187 84 LINE",
"558 567 LINE",
"506 648 LINE",
"79 648 LINE",
"52 459 LINE",
"118 459 LINE",
"162 572 LINE",
"372 572 LINE",
"376 565 LINE",
"3 77 LINE",
"35 0 LINE"
);
}
);
width = 543;
}
);
leftKerningGroup = Z;
rightKerningGroup = Z;
unicode = 005A;
},
{
glyphname = Y.loclGUA;
layers = (
{
anchors = (
{
name = bottom;
position = "{267, 0}";
},
{
name = top;
position = "{358, 648}";
},
{
name = topright;
position = "{638, 648}";
}
);
background = {
paths = (
{
closed = 1;
nodes = (
"551 0 LINE",
"553 32 LINE",
"486 46 LINE",
"564 602 LINE",
"635 616 LINE",
"638 648 LINE",
"433 648 LINE",
"430 616 LINE",
"498 602 LINE",
"420 46 LINE",
"348 32 LINE",
"346 0 LINE"
);
}
);
};
layerId = "0a8077ec-4085-4bbf-a447-43ab7bcde2db";
paths = (
{
closed = 1;
nodes = (
"396 -14 OFFCURVE",
"488 54 OFFCURVE",
"515 247 CURVE SMOOTH",
"565 602 LINE",
"635 616 LINE",
"638 648 LINE",
"413 648 LINE",
"410 618 LINE",
"498 602 LINE",
"456 308 LINE",
"414 269 OFFCURVE",
"364 244 OFFCURVE",
"310 244 CURVE SMOOTH",
"219 244 OFFCURVE",
"192 297 OFFCURVE",
"192 381 CURVE SMOOTH",
"192 406 OFFCURVE",
"195 431 OFFCURVE",
"198 456 CURVE SMOOTH",
"218 602 LINE",
"309 619 LINE",
"312 648 LINE",
"86 648 LINE",
"83 616 LINE",
"149 602 LINE",
"128 457 LINE SMOOTH",
"121 412 OFFCURVE",
"122 389 OFFCURVE",
"122 367 CURVE SMOOTH",
"122 251 OFFCURVE",
"179 185 OFFCURVE",
"288 185 CURVE SMOOTH",
"354 185 OFFCURVE",
"397 206 OFFCURVE",
"450 250 CURVE",
"427 97 OFFCURVE",
"373 30 OFFCURVE",
"275 30 CURVE SMOOTH",
"225 30 OFFCURVE",
"180 45 OFFCURVE",
"137 72 CURVE",
"124 186 LINE",
"83 186 LINE",
"65 51 LINE",
"134 5 OFFCURVE",
"197 -14 OFFCURVE",
"274 -14 CURVE SMOOTH"
);
}
);
width = 617;
},
{
anchors = (
{
name = bottom;
position = "{288, 0}";
},
{
name = top;
position = "{369, 648}";
},
{
name = topright;
position = "{682, 648}";
}
);
layerId = "42d03b0b-68f7-4941-bda2-1e253e993363";
paths = (
{
closed = 1;
nodes = (
"486 -14 OFFCURVE",
"538 87 OFFCURVE",
"560 262 CURVE SMOOTH",
"599 572 LINE",
"668 585 LINE",
"675 648 LINE",
"394 648 LINE",
"387 585 LINE",
"449 572 LINE",
"418 302 LINE",
"402 288 OFFCURVE",
"372 277 OFFCURVE",
"340 277 CURVE SMOOTH",
"250 277 OFFCURVE",
"240 331 OFFCURVE",
"240 381 CURVE SMOOTH",
"240 396 OFFCURVE",
"246 453 OFFCURVE",
"254 504 CURVE SMOOTH",
"264 572 LINE",
"331 585 LINE",
"339 648 LINE",
"56 648 LINE",
"48 585 LINE",
"115 572 LINE",
"107 504 LINE SMOOTH",
"101 458 OFFCURVE",
"97 417 OFFCURVE",
"97 382 CURVE SMOOTH",
"97 285 OFFCURVE",
"136 210 OFFCURVE",
"322 210 CURVE SMOOTH",
"354 210 OFFCURVE",
"384 214 OFFCURVE",
"405 218 CURVE",
"386 79 OFFCURVE",
"355 60 OFFCURVE",
"271 60 CURVE SMOOTH",
"223 60 OFFCURVE",
"190 69 OFFCURVE",
"179 75 CURVE",
"167 195 LINE",
"88 195 LINE",
"60 13 LINE",
"87 7 OFFCURVE",
"179 -14 OFFCURVE",
"262 -14 CURVE SMOOTH"
);
}
);
width = 640;
}
);
leftKerningGroup = Y.loclGUA;
rightKerningGroup = Y.loclGUA;
},
{
glyphname = a;
layers = (
{
anchors = (
{
name = bottom;
position = "{209, 0}";
},
{
name = ogonek;
position = "{391, 0}";
},
{
name = top;
position = "{289, 494}";
}
);
layerId = "0a8077ec-4085-4bbf-a447-43ab7bcde2db";
paths = (
{
closed = 1;
nodes = (
"223 -9 OFFCURVE",
"281 52 OFFCURVE",
"310 106 CURVE",
"313 104 LINE",
"302 78 OFFCURVE",
"296 62 OFFCURVE",
"296 46 CURVE SMOOTH",
"296 21 OFFCURVE",
"300 -4 OFFCURVE",
"347 -4 CURVE SMOOTH",
"386 -4 OFFCURVE",
"430 23 OFFCURVE",
"435 27 CURVE",
"435 61 LINE",
"362 61 LINE",
"433 517 LINE",
"404 517 LINE",
"382 482 LINE",
"377 485 OFFCURVE",
"320 513 OFFCURVE",
"270 513 CURVE SMOOTH",
"102 513 OFFCURVE",
"43 240 OFFCURVE",
"43 150 CURVE SMOOTH",
"43 57 OFFCURVE",
"74 -9 OFFCURVE",
"162 -9 CURVE SMOOTH"
);
},
{
closed = 1;
nodes = (
"127 41 OFFCURVE",
"116 86 OFFCURVE",
"116 171 CURVE SMOOTH",
"116 278 OFFCURVE",
"149 387 OFFCURVE",
"193 444 CURVE SMOOTH",
"199 452 OFFCURVE",
"208 458 OFFCURVE",
"229 458 CURVE SMOOTH",
"280 458 OFFCURVE",
"325 438 OFFCURVE",
"358 419 CURVE",
"312 149 LINE",
"284 107 OFFCURVE",
"231 41 OFFCURVE",
"183 41 CURVE SMOOTH"
);
}
);
width = 488;
},
{
anchors = (
{
name = bottom;
position = "{231, 0}";
},
{
name = ogonek;
position = "{453, 0}";
},
{
name = top;
position = "{311, 494}";
}
);
layerId = "42d03b0b-68f7-4941-bda2-1e253e993363";
paths = (
{
closed = 1;
nodes = (
"195 -12 OFFCURVE",
"247 44 OFFCURVE",
"288 103 CURVE",
"291 101 LINE",
"277 83 OFFCURVE",
"271 65 OFFCURVE",
"271 45 CURVE SMOOTH",
"271 10 OFFCURVE",
"303 -7 OFFCURVE",
"355 -7 CURVE SMOOTH",
"448 -7 OFFCURVE",
"491 22 OFFCURVE",
"496 26 CURVE",
"496 95 LINE",
"426 95 LINE",
"494 517 LINE",
"405 517 LINE",
"366 478 LINE",
"328 498 OFFCURVE",
"286 513 OFFCURVE",
"238 513 CURVE SMOOTH",
"108 513 OFFCURVE",
"20 290 OFFCURVE",
"20 150 CURVE SMOOTH",
"20 32 OFFCURVE",
"68 -12 OFFCURVE",
"137 -12 CURVE SMOOTH"
);
},
{
closed = 1;
nodes = (
"179 94 OFFCURVE",
"166 127 OFFCURVE",
"166 171 CURVE SMOOTH",
"166 275 OFFCURVE",
"182 365 OFFCURVE",
"207 426 CURVE",
"211 427 OFFCURVE",
"216 428 OFFCURVE",
"221 428 CURVE SMOOTH",
"256 428 OFFCURVE",
"302 402 OFFCURVE",
"326 365 CURVE",
"296 180 LINE",
"268 142 OFFCURVE",
"229 94 OFFCURVE",
"191 94 CURVE SMOOTH"
);
}
);
width = 531;
}
);
leftKerningGroup = o;
rightKerningGroup = a;
unicode = 0061;
},
{
glyphname = ae;
layers = (
{
anchors = (
{
name = top;
position = "{408, 494}";
}
);
layerId = "0a8077ec-4085-4bbf-a447-43ab7bcde2db";
paths = (
{
closed = 1;
nodes = (
"216 -9 OFFCURVE",
"270 29 OFFCURVE",
"300 89 CURVE",
"310 18 OFFCURVE",
"348 -9 OFFCURVE",
"435 -9 CURVE SMOOTH",
"483 -9 OFFCURVE",
"547 22 OFFCURVE",
"587 64 CURVE",
"569 91 LINE",
"530 64 OFFCURVE",
"485 46 OFFCURVE",
"456 46 CURVE SMOOTH",
"387 46 OFFCURVE",
"367 87 OFFCURVE",
"367 227 CURVE SMOOTH",
"367 244 LINE",
"358 218 LINE",
"489 206 OFFCURVE",
"623 306 OFFCURVE",
"623 418 CURVE SMOOTH",
"623 472 OFFCURVE",
"581 513 OFFCURVE",
"527 513 CURVE SMOOTH",
"483 513 OFFCURVE",
"442 496 OFFCURVE",
"408 462 CURVE",
"361 491 OFFCURVE",
"300 513 OFFCURVE",
"266 513 CURVE SMOOTH",
"155 513 OFFCURVE",
"40 329 OFFCURVE",
"40 150 CURVE SMOOTH",
"40 44 OFFCURVE",
"81 -9 OFFCURVE",
"159 -9 CURVE SMOOTH"
);
},
{
closed = 1;
nodes = (
"129 41 OFFCURVE",
"112 73 OFFCURVE",
"112 171 CURVE SMOOTH",
"112 277 OFFCURVE",
"143 387 OFFCURVE",
"189 444 CURVE SMOOTH",
"196 453 OFFCURVE",
"208 458 OFFCURVE",
"225 458 CURVE SMOOTH",
"262 458 OFFCURVE",
"312 440 OFFCURVE",
"363 406 CURVE",
"327 346 OFFCURVE",
"300 260 OFFCURVE",
"297 178 CURVE SMOOTH",
"294 115 OFFCURVE",
"232 41 OFFCURVE",
"179 41 CURVE SMOOTH"
);
},
{
closed = 1;
nodes = (
"379 340 OFFCURVE",
"397 387 OFFCURVE",
"431 441 CURVE SMOOTH",
"437 451 OFFCURVE",
"458 456 OFFCURVE",
"492 456 CURVE SMOOTH",
"534 456 OFFCURVE",
"558 434 OFFCURVE",
"558 397 CURVE SMOOTH",
"558 321 OFFCURVE",
"482 263 OFFCURVE",
"368 254 CURVE"
);
}
);
width = 635;
},
{
anchors = (
{
name = top;
position = "{389, 494}";
}
);
layerId = "42d03b0b-68f7-4941-bda2-1e253e993363";
paths = (
{
closed = 1;
nodes = (
"175 -12 OFFCURVE",
"223 23 OFFCURVE",
"273 89 CURVE",
"288 21 OFFCURVE",
"335 -10 OFFCURVE",
"426 -10 CURVE SMOOTH",
"511 -10 OFFCURVE",
"600 23 OFFCURVE",
"640 70 CURVE",
"617 110 LINE",
"588 92 OFFCURVE",
"544 78 OFFCURVE",
"515 78 CURVE SMOOTH",
"443 78 OFFCURVE",
"412 101 OFFCURVE",
"412 153 CURVE SMOOTH",
"412 226 LINE",
"358 189 LINE",
"613 247 OFFCURVE",
"670 284 OFFCURVE",
"670 403 CURVE SMOOTH",
"670 469 OFFCURVE",
"605 513 OFFCURVE",
"506 513 CURVE SMOOTH",
"464 513 OFFCURVE",
"425 499 OFFCURVE",
"391 470 CURVE",
"333 497 OFFCURVE",
"278 513 OFFCURVE",
"235 513 CURVE SMOOTH",
"128 513 OFFCURVE",
"17 328 OFFCURVE",
"17 150 CURVE SMOOTH",
"17 43 OFFCURVE",
"55 -12 OFFCURVE",
"133 -12 CURVE SMOOTH"
);
},
{
closed = 1;
nodes = (
"173 101 OFFCURVE",
"164 135 OFFCURVE",
"164 171 CURVE SMOOTH",
"164 263 OFFCURVE",
"177 355 OFFCURVE",
"200 426 CURVE",
"206 426 OFFCURVE",
"211 426 OFFCURVE",
"217 426 CURVE SMOOTH",
"249 426 OFFCURVE",
"290 411 OFFCURVE",
"323 377 CURVE",
"291 312 OFFCURVE",
"269 223 OFFCURVE",
"269 144 CURVE",
"226 110 OFFCURVE",
"199 101 OFFCURVE",
"180 101 CURVE"
);
},
{
closed = 1;
nodes = (
"423 312 OFFCURVE",
"450 426 OFFCURVE",
"459 428 CURVE",
"463 432 OFFCURVE",
"482 437 OFFCURVE",
"492 437 CURVE SMOOTH",
"518 437 OFFCURVE",
"531 420 OFFCURVE",
"531 386 CURVE SMOOTH",
"531 316 OFFCURVE",
"520 299 OFFCURVE",
"421 260 CURVE"
);
}
);
width = 675;
}
);
leftKerningGroup = o;
leftMetricsKey = o;
rightKerningGroup = e;
rightMetricsKey = e;
unicode = 00E6;
},
{
glyphname = b;
layers = (
{
anchors = (
{
name = bottom;
position = "{197, 0}";
},
{
name = top;
position = "{180, 648}";
}
);
layerId = "0a8077ec-4085-4bbf-a447-43ab7bcde2db";
paths = (
{
closed = 1;
nodes = (
"383 -9 OFFCURVE",
"433 265 OFFCURVE",
"433 357 CURVE SMOOTH",
"433 449 OFFCURVE",
"405 513 OFFCURVE",
"313 513 CURVE SMOOTH",
"242 513 OFFCURVE",
"180 439 OFFCURVE",
"165 418 CURVE",
"163 421 LINE",
"170 430 OFFCURVE",
"179 442 OFFCURVE",
"179 450 CURVE",
"208 630 LINE",
"208 697 LINE",
"68 678 LINE",
"68 647 LINE",
"148 631 LINE",
"41 32 LINE",
"108 7 LINE",
"128 0 OFFCURVE",
"168 -9 OFFCURVE",
"203 -9 CURVE SMOOTH"
);
},
{
closed = 1;
nodes = (
"180 46 OFFCURVE",
"135 63 OFFCURVE",
"118 70 CURVE",
"168 389 LINE",
"187 407 OFFCURVE",
"240 449 OFFCURVE",
"289 449 CURVE SMOOTH",
"344 449 OFFCURVE",
"361 412 OFFCURVE",
"361 340 CURVE SMOOTH",
"361 233 OFFCURVE",
"321 114 OFFCURVE",
"281 56 CURVE SMOOTH",
"276 49 OFFCURVE",
"272 46 OFFCURVE",
"236 46 CURVE SMOOTH"
);
}
);
width = 471;
},
{
anchors = (
{
name = bottom;
position = "{217, 0}";
},
{
name = top;
position = "{189, 648}";
}
);
layerId = "42d03b0b-68f7-4941-bda2-1e253e993363";
paths = (
{
closed = 1;
nodes = (
"410 -12 OFFCURVE",
"480 231 OFFCURVE",
"480 360 CURVE SMOOTH",
"480 483 OFFCURVE",
"419 513 OFFCURVE",
"363 513 CURVE SMOOTH",
"306 513 OFFCURVE",
"258 476 OFFCURVE",
"211 418 CURVE",
"208 421 LINE",
"214 428 OFFCURVE",
"223 440 OFFCURVE",
"225 450 CURVE SMOOTH",
"250 607 LINE",
"250 710 LINE",
"41 691 LINE",
"41 622 LINE",
"115 604 LINE",
"21 41 LINE",
"154 1 LINE",
"170 -5 OFFCURVE",
"209 -12 OFFCURVE",
"256 -12 CURVE SMOOTH"
);
},
{
closed = 1;
nodes = (
"225 75 OFFCURVE",
"202 91 OFFCURVE",
"171 118 CURVE",
"208 361 LINE",
"239 389 OFFCURVE",
"276 416 OFFCURVE",
"300 416 CURVE SMOOTH",
"321 416 OFFCURVE",
"339 415 OFFCURVE",
"339 313 CURVE SMOOTH",
"339 204 OFFCURVE",
"326 122 OFFCURVE",
"306 76 CURVE",
"301 75 OFFCURVE",
"293 75 OFFCURVE",
"290 75 CURVE SMOOTH"
);
}
);
width = 495;
}
);
leftKerningGroup = l;
rightKerningGroup = o;
rightMetricsKey = o;
unicode = 0062;
},
{
glyphname = c;
layers = (
{
anchors = (
{
name = bottom;
position = "{188, 0}";
},
{
name = top;
position = "{252, 494}";
}
);
layerId = "0a8077ec-4085-4bbf-a447-43ab7bcde2db";
paths = (
{
closed = 1;
nodes = (
"255 -9 OFFCURVE",
"310 54 OFFCURVE",
"316 62 CURVE",
"295 95 LINE",
"290 90 OFFCURVE",
"239 50 OFFCURVE",
"197 50 CURVE SMOOTH",
"128 50 OFFCURVE",
"102 80 OFFCURVE",
"102 208 CURVE SMOOTH",
"102 336 OFFCURVE",
"169 446 OFFCURVE",
"174 444 CURVE",
"189 454 OFFCURVE",
"209 458 OFFCURVE",
"230 458 CURVE SMOOTH",
"276 458 OFFCURVE",
"293 451 OFFCURVE",
"295 450 CURVE",
"303 353 LINE",
"323 353 LINE",
"338 361 OFFCURVE",
"367 384 OFFCURVE",
"367 427 CURVE SMOOTH",
"367 487 OFFCURVE",
"337 513 OFFCURVE",
"264 513 CURVE SMOOTH",
"111 513 OFFCURVE",
"31 324 OFFCURVE",
"31 151 CURVE SMOOTH",
"31 40 OFFCURVE",
"73 -9 OFFCURVE",
"167 -9 CURVE SMOOTH"
);
}
);
width = 367;
},
{
anchors = (
{
name = bottom;
position = "{209, 0}";
},
{
name = top;
position = "{274, 494}";
}
);
layerId = "42d03b0b-68f7-4941-bda2-1e253e993363";
paths = (
{
closed = 1;
nodes = (
"306 -12 OFFCURVE",
"371 47 OFFCURVE",
"389 71 CURVE",
"367 107 LINE",
"357 101 OFFCURVE",
"313 79 OFFCURVE",
"266 79 CURVE SMOOTH",
"208 79 OFFCURVE",
"170 93 OFFCURVE",
"170 190 CURVE SMOOTH",
"170 294 OFFCURVE",
"176 371 OFFCURVE",
"195 418 CURVE",
"206 425 OFFCURVE",
"223 427 OFFCURVE",
"244 427 CURVE SMOOTH",
"275 427 OFFCURVE",
"303 417 OFFCURVE",
"309 414 CURVE",
"318 312 LINE",
"371 312 LINE",
"376 317 OFFCURVE",
"419 367 OFFCURVE",
"419 427 CURVE SMOOTH",
"419 496 OFFCURVE",
"329 513 OFFCURVE",
"265 513 CURVE SMOOTH",
"90 513 OFFCURVE",
"23 305 OFFCURVE",
"23 151 CURVE SMOOTH",
"23 40 OFFCURVE",
"64 -12 OFFCURVE",
"167 -12 CURVE SMOOTH"
);
}
);
width = 423;
}
);
leftKerningGroup = o;
rightKerningGroup = c;
unicode = 0063;
},
{
glyphname = d;
layers = (
{
anchors = (
{
name = bottom;
position = "{210, 0}";
},
{
name = center;
position = "{280, 247}";
},
{
name = top;
position = "{430, 648}";
},
{
name = topright;
position = "{459, 534}";
}
);
layerId = "0a8077ec-4085-4bbf-a447-43ab7bcde2db";
paths = (
{
closed = 1;
nodes = (
"222 -9 OFFCURVE",
"278 45 OFFCURVE",
"313 108 CURVE",
"316 106 LINE",
"302 77 OFFCURVE",
"297 63 OFFCURVE",
"297 42 CURVE SMOOTH",
"297 8 OFFCURVE",
"317 -4 OFFCURVE",
"353 -4 CURVE SMOOTH",
"394 -4 OFFCURVE",
"434 23 OFFCURVE",
"439 27 CURVE",
"439 61 LINE",
"366 61 LINE",
"458 630 LINE",
"458 697 LINE",
"321 678 LINE",
"321 646 LINE",
"399 630 LINE",
"373 487 LINE",
"355 496 OFFCURVE",
"314 513 OFFCURVE",
"268 513 CURVE SMOOTH",
"116 513 OFFCURVE",
"39 275 OFFCURVE",
"39 150 CURVE SMOOTH",
"39 53 OFFCURVE",
"73 -9 OFFCURVE",
"158 -9 CURVE SMOOTH"
);
},
{
closed = 1;
nodes = (
"125 41 OFFCURVE",
"111 101 OFFCURVE",
"111 171 CURVE SMOOTH",
"111 269 OFFCURVE",
"145 376 OFFCURVE",
"188 440 CURVE SMOOTH",
"192 447 OFFCURVE",
"204 458 OFFCURVE",
"226 458 CURVE SMOOTH",
"279 458 OFFCURVE",
"325 441 OFFCURVE",
"360 420 CURVE",
"309 144 LINE",
"280 101 OFFCURVE",
"231 41 OFFCURVE",
"181 41 CURVE SMOOTH"
);
}
);
width = 494;
},
{
anchors = (
{
name = bottom;
position = "{221, 0}";
},
{
name = center;
position = "{291, 247}";
},
{
name = top;
position = "{443, 648}";
},
{
name = topright;
position = "{517, 534}";
}
);
layerId = "42d03b0b-68f7-4941-bda2-1e253e993363";
paths = (
{
closed = 1;
nodes = (
"209 -12 OFFCURVE",
"256 43 OFFCURVE",
"290 105 CURVE",
"294 103 LINE",
"282 80 OFFCURVE",
"275 60 OFFCURVE",
"275 45 CURVE SMOOTH",
"275 3 OFFCURVE",
"294 -7 OFFCURVE",
"356 -7 CURVE SMOOTH",
"432 -7 OFFCURVE",
"485 23 OFFCURVE",
"491 27 CURVE",
"491 95 LINE",
"422 95 LINE",
"501 608 LINE",
"501 710 LINE",
"288 691 LINE",
"288 626 LINE",
"372 608 LINE",
"350 489 LINE",
"321 502 OFFCURVE",
"286 513 OFFCURVE",
"250 513 CURVE SMOOTH",
"97 513 OFFCURVE",
"16 280 OFFCURVE",
"16 150 CURVE SMOOTH",
"16 53 OFFCURVE",
"65 -12 OFFCURVE",
"135 -12 CURVE SMOOTH"
);
},
{
closed = 1;
nodes = (
"174 93 OFFCURVE",
"160 112 OFFCURVE",
"160 165 CURVE SMOOTH",
"160 328 OFFCURVE",
"193 407 OFFCURVE",
"203 425 CURVE",
"208 427 OFFCURVE",
"212 428 OFFCURVE",
"217 428 CURVE SMOOTH",
"260 428 OFFCURVE",
"295 405 OFFCURVE",
"327 364 CURVE",
"297 183 LINE",
"274 150 OFFCURVE",
"228 93 OFFCURVE",
"184 93 CURVE SMOOTH"
);
}
);
width = 517;
}
);
leftKerningGroup = o;
leftMetricsKey = o;
rightKerningGroup = d;
unicode = 0064;
},
{
glyphname = eth;
layers = (
{
layerId = "0a8077ec-4085-4bbf-a447-43ab7bcde2db";
paths = (
{
closed = 1;
nodes = (
"336 -9 OFFCURVE",
"422 136 OFFCURVE",
"422 392 CURVE SMOOTH",
"422 508 OFFCURVE",
"388 588 OFFCURVE",
"313 640 CURVE",
"379 682 LINE",
"355 720 LINE",
"270 664 LINE",
"236 679 OFFCURVE",
"196 686 OFFCURVE",
"154 686 CURVE SMOOTH",
"118 686 OFFCURVE",
"84 682 OFFCURVE",
"70 678 CURVE",
"70 642 LINE",
"127 642 OFFCURVE",
"168 639 OFFCURVE",
"211 625 CURVE",
"126 571 LINE",
"151 536 LINE",
"259 605 LINE",
"294 584 OFFCURVE",
"312 560 OFFCURVE",
"336 503 CURVE",
"320 510 OFFCURVE",
"301 513 OFFCURVE",
"289 513 CURVE SMOOTH",
"149 513 OFFCURVE",
"52 369 OFFCURVE",
"52 160 CURVE SMOOTH",
"52 51 OFFCURVE",
"98 -9 OFFCURVE",
"180 -9 CURVE SMOOTH"
);
},
{
closed = 1;
nodes = (
"144 47 OFFCURVE",
"123 73 OFFCURVE",
"123 168 CURVE SMOOTH",
"123 283 OFFCURVE",
"148 398 OFFCURVE",
"181 436 CURVE SMOOTH",
"189 446 OFFCURVE",
"217 456 OFFCURVE",
"237 456 CURVE SMOOTH",
"280 456 OFFCURVE",
"315 450 OFFCURVE",
"343 438 CURVE",
"347 425 OFFCURVE",
"351 372 OFFCURVE",
"351 316 CURVE SMOOTH",
"351 222 OFFCURVE",
"317 82 OFFCURVE",
"288 62 CURVE",
"277 53 OFFCURVE",
"253 47 OFFCURVE",
"220 47 CURVE SMOOTH"
);
}
);
width = 461;
},
{
layerId = "42d03b0b-68f7-4941-bda2-1e253e993363";
paths = (
{
closed = 1;
nodes = (
"368 -12 OFFCURVE",
"477 130 OFFCURVE",
"477 314 CURVE SMOOTH",
"477 467 OFFCURVE",
"428 579 OFFCURVE",
"335 640 CURVE",
"388 676 LINE",
"349 733 LINE",
"262 677 LINE",
"211 693 OFFCURVE",
"156 701 OFFCURVE",
"95 701 CURVE SMOOTH",
"84 701 OFFCURVE",
"68 701 OFFCURVE",
"50 700 CURVE",
"50 633 LINE",
"93 633 OFFCURVE",
"134 626 OFFCURVE",
"168 616 CURVE",
"88 565 LINE",
"127 504 LINE",
"239 578 LINE",
"258 564 OFFCURVE",
"276 541 OFFCURVE",
"291 514 CURVE",
"287 513 OFFCURVE",
"279 513 OFFCURVE",
"269 513 CURVE SMOOTH",
"147 513 OFFCURVE",
"32 346 OFFCURVE",
"32 168 CURVE SMOOTH",
"32 48 OFFCURVE",
"96 -12 OFFCURVE",
"222 -12 CURVE SMOOTH"
);
},
{
closed = 1;
nodes = (
"199 65 OFFCURVE",
"182 105 OFFCURVE",
"182 200 CURVE SMOOTH",
"182 263 OFFCURVE",
"209 412 OFFCURVE",
"223 424 CURVE",
"224 425 OFFCURVE",
"228 427 OFFCURVE",
"249 427 CURVE SMOOTH",
"275 427 OFFCURVE",
"303 420 OFFCURVE",
"323 401 CURVE",
"327 355 OFFCURVE",
"327 339 OFFCURVE",
"327 313 CURVE SMOOTH",
"327 209 OFFCURVE",
"315 134 OFFCURVE",
"292 73 CURVE",
"288 68 OFFCURVE",
"272 65 OFFCURVE",
"248 65 CURVE SMOOTH"
);
}
);
width = 499;
}
);
leftKerningGroup = o;
leftMetricsKey = "=o-40";
rightKerningGroup = o;
rightMetricsKey = o;
unicode = 00F0;
},
{
glyphname = dcaron;
layers = (
{
components = (
{
name = d;
},
{
name = caroncomb.alt;
transform = "{1, 0, 0, 1, 424, 40}";
}
);
layerId = "0a8077ec-4085-4bbf-a447-43ab7bcde2db";
width = 494;
},
{
background = {
paths = (
{
closed = 1;
nodes = (
"213 -12 OFFCURVE",
"260 43 OFFCURVE",
"294 105 CURVE",
"298 103 LINE",
"286 80 OFFCURVE",
"279 60 OFFCURVE",
"279 45 CURVE SMOOTH",
"279 3 OFFCURVE",
"298 -7 OFFCURVE",
"360 -7 CURVE SMOOTH",
"436 -7 OFFCURVE",
"489 23 OFFCURVE",
"495 27 CURVE",
"495 95 LINE",
"426 95 LINE",
"505 608 LINE",
"505 710 LINE",
"292 691 LINE",
"292 626 LINE",
"376 608 LINE",
"354 489 LINE",
"325 502 OFFCURVE",
"290 513 OFFCURVE",
"254 513 CURVE SMOOTH",
"101 513 OFFCURVE",
"20 280 OFFCURVE",
"20 150 CURVE SMOOTH",
"20 53 OFFCURVE",
"69 -12 OFFCURVE",
"139 -12 CURVE SMOOTH"
);
},
{
closed = 1;
nodes = (
"178 93 OFFCURVE",
"164 112 OFFCURVE",
"164 165 CURVE SMOOTH",
"164 328 OFFCURVE",
"197 407 OFFCURVE",
"207 425 CURVE",
"212 427 OFFCURVE",
"216 428 OFFCURVE",
"221 428 CURVE SMOOTH",
"264 428 OFFCURVE",
"299 405 OFFCURVE",
"331 364 CURVE",
"300 183 LINE",
"277 150 OFFCURVE",
"232 93 OFFCURVE",
"188 93 CURVE SMOOTH"
);
},
{
closed = 1;
nodes = (
"612 561 OFFCURVE",
"668 620 OFFCURVE",
"668 680 CURVE SMOOTH",
"668 710 OFFCURVE",
"653 736 OFFCURVE",
"609 736 CURVE SMOOTH",
"583 736 OFFCURVE",
"567 720 OFFCURVE",
"555 700 CURVE",
"560 689 OFFCURVE",
"565 670 OFFCURVE",
"565 650 CURVE SMOOTH",
"565 605 OFFCURVE",
"538 576 OFFCURVE",
"535 573 CURVE",
"561 539 LINE"
);
}
);
};
components = (
{
name = d;
},
{
name = caroncomb.alt;
transform = "{1, 0, 0, 1, 482, 40}";
}
);
layerId = "42d03b0b-68f7-4941-bda2-1e253e993363";
width = 517;
}
);
leftKerningGroup = o;
rightKerningGroup = dcaron;
unicode = 010F;
},
{
glyphname = dcroat;
layers = (
{
layerId = "0a8077ec-4085-4bbf-a447-43ab7bcde2db";
paths = (
{
closed = 1;
nodes = (
"222 -9 OFFCURVE",
"278 45 OFFCURVE",
"313 108 CURVE",
"316 106 LINE",
"302 77 OFFCURVE",
"297 63 OFFCURVE",
"297 42 CURVE SMOOTH",
"297 8 OFFCURVE",
"317 -4 OFFCURVE",
"353 -4 CURVE SMOOTH",
"394 -4 OFFCURVE",
"434 23 OFFCURVE",
"439 27 CURVE",
"439 61 LINE",
"366 61 LINE",
"448 570 LINE",
"520 570 LINE",
"520 612 LINE",
"455 612 LINE",
"458 630 LINE",
"458 697 LINE",
"346 681 LINE",
"346 659 LINE",
"398 624 LINE",
"396 612 LINE",
"231 612 LINE",
"231 570 LINE",
"388 570 LINE",
"373 487 LINE",
"355 496 OFFCURVE",
"314 513 OFFCURVE",
"268 513 CURVE SMOOTH",
"116 513 OFFCURVE",
"39 275 OFFCURVE",
"39 150 CURVE SMOOTH",
"39 53 OFFCURVE",
"73 -9 OFFCURVE",
"158 -9 CURVE SMOOTH"
);
},
{
closed = 1;
nodes = (
"125 41 OFFCURVE",
"111 101 OFFCURVE",
"111 171 CURVE SMOOTH",
"111 269 OFFCURVE",
"145 376 OFFCURVE",
"188 440 CURVE SMOOTH",
"192 447 OFFCURVE",
"204 458 OFFCURVE",
"226 458 CURVE SMOOTH",
"279 458 OFFCURVE",
"325 441 OFFCURVE",
"360 420 CURVE",
"309 144 LINE",
"280 101 OFFCURVE",
"231 41 OFFCURVE",
"181 41 CURVE SMOOTH"
);
}
);
width = 499;
},
{
layerId = "42d03b0b-68f7-4941-bda2-1e253e993363";
paths = (
{
closed = 1;
nodes = (
"208 -12 OFFCURVE",
"255 43 OFFCURVE",
"289 105 CURVE",
"293 103 LINE",
"281 80 OFFCURVE",
"274 60 OFFCURVE",
"274 45 CURVE SMOOTH",
"274 3 OFFCURVE",
"293 -7 OFFCURVE",
"355 -7 CURVE SMOOTH",
"431 -7 OFFCURVE",
"484 23 OFFCURVE",
"490 27 CURVE",
"490 95 LINE",
"421 95 LINE",
"489 534 LINE",
"522 534 LINE",
"522 621 LINE",
"501 621 LINE",
"505 644 LINE",
"515 710 LINE",
"321 694 LINE",
"321 656 LINE",
"379 647 LINE",
"374 621 LINE",
"180 621 LINE",
"180 534 LINE",
"358 534 LINE",
"346 469 LINE",
"317 482 OFFCURVE",
"282 493 OFFCURVE",
"246 493 CURVE SMOOTH",
"93 493 OFFCURVE",
"15 268 OFFCURVE",
"15 144 CURVE SMOOTH",
"15 51 OFFCURVE",
"64 -12 OFFCURVE",
"134 -12 CURVE SMOOTH"
);
},
{
closed = 1;
nodes = (
"173 93 OFFCURVE",
"159 110 OFFCURVE",
"159 161 CURVE SMOOTH",
"159 314 OFFCURVE",
"189 387 OFFCURVE",
"199 405 CURVE",
"204 407 OFFCURVE",
"208 408 OFFCURVE",
"213 408 CURVE SMOOTH",
"256 408 OFFCURVE",
"291 385 OFFCURVE",
"323 344 CURVE",
"293 177 LINE",
"271 146 OFFCURVE",
"226 93 OFFCURVE",
"183 93 CURVE SMOOTH"
);
}
);
width = 516;
}
);
leftKerningGroup = o;
leftMetricsKey = o;
rightKerningGroup = d;
rightMetricsKey = d;
unicode = 0111;
},
{
glyphname = e;
layers = (
{
anchors = (
{
name = bottom;
position = "{178, 0}";
},
{
name = ogonek;
position = "{248, 0}";
},
{
name = top;
position = "{258, 494}";
}
);
layerId = "0a8077ec-4085-4bbf-a447-43ab7bcde2db";
paths = (
{
closed = 1;
nodes = (
"239 -9 OFFCURVE",
"300 23 OFFCURVE",
"333 68 CURVE",
"315 95 LINE",
"282 66 OFFCURVE",
"238 46 OFFCURVE",
"208 46 CURVE SMOOTH",
"131 46 OFFCURVE",
"113 78 OFFCURVE",
"113 195 CURVE",
"113 204 LINE",
"265 230 OFFCURVE",
"369 260 OFFCURVE",
"369 418 CURVE SMOOTH",
"369 458 OFFCURVE",
"340 513 OFFCURVE",
"270 513 CURVE SMOOTH",
"109 513 OFFCURVE",
"40 294 OFFCURVE",
"40 147 CURVE SMOOTH",
"40 25 OFFCURVE",
"85 -9 OFFCURVE",
"186 -9 CURVE SMOOTH"
);
},
{
closed = 1;
nodes = (
"125 299 OFFCURVE",
"141 386 OFFCURVE",
"176 441 CURVE SMOOTH",
"182 451 OFFCURVE",
"206 456 OFFCURVE",
"236 456 CURVE SMOOTH",
"297 456 OFFCURVE",
"303 418 OFFCURVE",
"303 397 CURVE SMOOTH",
"303 327 OFFCURVE",
"288 280 OFFCURVE",
"116 243 CURVE"
);
}
);
width = 380;
},
{
anchors = (
{
name = bottom;
position = "{185, 0}";
},
{
name = ogonek;
position = "{280, 0}";
},
{
name = top;
position = "{265, 494}";
}
);
layerId = "42d03b0b-68f7-4941-bda2-1e253e993363";
paths = (
{
closed = 1;
nodes = (
"255 -10 OFFCURVE",
"346 23 OFFCURVE",
"388 69 CURVE",
"364 111 LINE",
"327 89 OFFCURVE",
"286 76 OFFCURVE",
"251 76 CURVE SMOOTH",
"200 76 OFFCURVE",
"161 102 OFFCURVE",
"161 162 CURVE SMOOTH",
"161 204 LINE",
"301 232 OFFCURVE",
"418 271 OFFCURVE",
"418 403 CURVE SMOOTH",
"418 463 OFFCURVE",
"367 513 OFFCURVE",
"265 513 CURVE SMOOTH",
"86 513 OFFCURVE",
"17 294 OFFCURVE",
"17 151 CURVE SMOOTH",
"17 49 OFFCURVE",
"74 -10 OFFCURVE",
"182 -10 CURVE SMOOTH"
);
},
{
closed = 1;
nodes = (
"174 363 OFFCURVE",
"201 420 OFFCURVE",
"206 428 CURVE",
"211 431 OFFCURVE",
"225 436 OFFCURVE",
"240 436 CURVE SMOOTH",
"259 436 OFFCURVE",
"279 427 OFFCURVE",
"279 386 CURVE SMOOTH",
"279 327 OFFCURVE",
"271 302 OFFCURVE",
"169 265 CURVE"
);
}
);
width = 423;
}
);
leftKerningGroup = o;
leftMetricsKey = o;
rightKerningGroup = e;
unicode = 0065;
},
{
glyphname = eogonek;
layers = (
{
background = {
paths = (
{
closed = 1;
nodes = (
"269 -175 OFFCURVE",
"309 -134 OFFCURVE",
"313 -129 CURVE",
"299 -108 LINE",
"292 -113 OFFCURVE",
"266 -128 OFFCURVE",
"241 -128 CURVE SMOOTH",
"211 -128 OFFCURVE",
"198 -110 OFFCURVE",
"198 -86 CURVE SMOOTH",
"198 -35 OFFCURVE",
"248 0 OFFCURVE",
"265 9 CURVE SMOOTH",
"308 32 OFFCURVE",
"336 67 OFFCURVE",
"336 68 CURVE",
"318 95 LINE",
"312 89 OFFCURVE",
"260 46 OFFCURVE",
"210 46 CURVE SMOOTH",
"133 46 OFFCURVE",
"116 78 OFFCURVE",
"116 195 CURVE",
"116 197 OFFCURVE",
"116 199 OFFCURVE",
"116 204 CURVE",
"260 231 OFFCURVE",
"372 255 OFFCURVE",
"372 418 CURVE SMOOTH",
"372 458 OFFCURVE",
"344 513 OFFCURVE",
"275 513 CURVE SMOOTH",
"115 513 OFFCURVE",
"43 302 OFFCURVE",
"43 147 CURVE SMOOTH",
"43 25 OFFCURVE",
"89 -9 OFFCURVE",
"189 -9 CURVE SMOOTH",
"193 -9 OFFCURVE",
"196 -9 OFFCURVE",
"200 -8 CURVE",
"161 -37 OFFCURVE",
"139 -74 OFFCURVE",
"139 -114 CURVE SMOOTH",
"139 -163 OFFCURVE",
"171 -175 OFFCURVE",
"209 -175 CURVE SMOOTH"
);
},
{
closed = 1;
nodes = (
"128 299 OFFCURVE",
"143 386 OFFCURVE",
"178 441 CURVE SMOOTH",
"185 451 OFFCURVE",
"209 456 OFFCURVE",
"240 456 CURVE SMOOTH",
"299 456 OFFCURVE",
"305 418 OFFCURVE",
"305 397 CURVE SMOOTH",
"305 327 OFFCURVE",
"292 280 OFFCURVE",
"119 243 CURVE"
);
}
);
};
components = (
{
name = e;
},
{
name = ogonekcomb;
transform = "{1, 0, 0, 1, 185, 0}";
}
);
layerId = "0a8077ec-4085-4bbf-a447-43ab7bcde2db";
width = 380;
},
{
components = (
{
name = e;
},
{
name = ogonekcomb;
transform = "{1, 0, 0, 1, 175, 0}";
}
);
layerId = "42d03b0b-68f7-4941-bda2-1e253e993363";
width = 423;
}
);
leftKerningGroup = o;
rightKerningGroup = e;
unicode = 0119;
},
{
glyphname = f;
layers = (
{
anchors = (
{
name = bottom;
position = "{72, -158}";
},
{
name = top;
position = "{198, 648}";
}
);
layerId = "0a8077ec-4085-4bbf-a447-43ab7bcde2db";
paths = (
{
closed = 1;
nodes = (
"107 -163 LINE",
"194 455 LINE",
"283 455 LINE",
"299 477 LINE",
"299 507 LINE",
"200 507 LINE",
"206 544 LINE SMOOTH",
"215 599 OFFCURVE",
"239 625 OFFCURVE",
"244 630 CURVE SMOOTH",
"250 635 OFFCURVE",
"276 640 OFFCURVE",
"298 640 CURVE SMOOTH",
"366 640 LINE",
"369 644 OFFCURVE",
"378 656 OFFCURVE",
"378 679 CURVE SMOOTH",
"378 705 OFFCURVE",
"365 711 OFFCURVE",
"342 711 CURVE SMOOTH",
"241 711 OFFCURVE",
"160 645 OFFCURVE",
"140 507 CURVE",
"72 507 LINE",
"57 484 LINE",
"57 455 LINE",
"133 455 LINE",
"38 -173 LINE"
);
}
);
width = 272;
},
{
anchors = (
{
name = bottom;
position = "{83, -176}";
},
{
name = top;
position = "{211, 648}";
}
);
layerId = "42d03b0b-68f7-4941-bda2-1e253e993363";
paths = (
{
closed = 1;
nodes = (
"158 -174 LINE",
"241 431 LINE",
"359 431 LINE",
"375 472 LINE",
"375 507 LINE",
"252 507 LINE",
"253 515 LINE SMOOTH",
"260 560 OFFCURVE",
"264 575 OFFCURVE",
"269 580 CURVE SMOOTH",
"279 589 OFFCURVE",
"299 594 OFFCURVE",
"360 594 CURVE SMOOTH",
"427 594 LINE",
"430 597 OFFCURVE",
"454 624 OFFCURVE",
"454 651 CURVE SMOOTH",
"454 692 OFFCURVE",
"431 711 OFFCURVE",
"387 711 CURVE SMOOTH",
"243 711 OFFCURVE",
"163 602 OFFCURVE",
"128 507 CURVE",
"52 507 LINE",
"36 473 LINE",
"36 431 LINE",
"108 431 LINE",
"6 -188 LINE"
);
}
);
width = 328;
}
);
leftKerningGroup = f;
rightKerningGroup = f;
unicode = 0066;
},
{
glyphname = g;
layers = (
{
anchors = (
{
name = bottom;
position = "{167, -155}";
},
{
name = top;
position = "{300, 494}";
}
);
layerId = "0a8077ec-4085-4bbf-a447-43ab7bcde2db";
paths = (
{
closed = 1;
nodes = (
"263 -165 OFFCURVE",
"344 -101 OFFCURVE",
"363 12 CURVE SMOOTH",
"447 517 LINE",
"414 517 LINE",
"395 482 LINE",
"360 500 OFFCURVE",
"311 513 OFFCURVE",
"273 513 CURVE SMOOTH",
"170 513 OFFCURVE",
"58 342 OFFCURVE",
"58 189 CURVE SMOOTH",
"58 88 OFFCURVE",
"100 32 OFFCURVE",
"173 32 CURVE SMOOTH",
"236 32 OFFCURVE",
"304 84 OFFCURVE",
"335 155 CURVE",
"338 153 LINE",
"326 128 OFFCURVE",
"311 60 OFFCURVE",
"296 -10 CURVE SMOOTH",
"280 -83 OFFCURVE",
"240 -122 OFFCURVE",
"180 -122 CURVE SMOOTH",
"134 -122 OFFCURVE",
"87 -110 OFFCURVE",
"68 -93 CURVE",
"68 2 LINE",
"40 2 LINE",
"12 -17 OFFCURVE",
"-3 -43 OFFCURVE",
"-3 -76 CURVE SMOOTH",
"-3 -133 OFFCURVE",
"48 -165 OFFCURVE",
"140 -165 CURVE SMOOTH"
);
},
{
closed = 1;
nodes = (
"156 85 OFFCURVE",
"129 132 OFFCURVE",
"129 196 CURVE SMOOTH",
"129 272 OFFCURVE",
"167 402 OFFCURVE",
"201 442 CURVE SMOOTH",
"209 451 OFFCURVE",
"213 453 OFFCURVE",
"232 453 CURVE SMOOTH",
"268 453 OFFCURVE",
"328 437 OFFCURVE",
"368 416 CURVE",
"326 170 LINE",
"280 122 OFFCURVE",
"224 85 OFFCURVE",
"195 85 CURVE SMOOTH"
);
}
);
width = 469;
},
{
anchors = (
{
name = bottom;
position = "{166, -164}";
},
{
name = top;
position = "{300, 494}";
}
);
layerId = "42d03b0b-68f7-4941-bda2-1e253e993363";
paths = (
{
closed = 1;
nodes = (
"281 -174 OFFCURVE",
"392 -92 OFFCURVE",
"414 41 CURVE SMOOTH",
"493 517 LINE",
"411 517 LINE",
"373 477 LINE",
"329 501 OFFCURVE",
"284 513 OFFCURVE",
"245 513 CURVE SMOOTH",
"134 513 OFFCURVE",
"28 356 OFFCURVE",
"28 190 CURVE SMOOTH",
"28 85 OFFCURVE",
"66 32 OFFCURVE",
"143 32 CURVE SMOOTH",
"195 32 OFFCURVE",
"237 61 OFFCURVE",
"297 142 CURVE",
"301 139 LINE",
"293 117 OFFCURVE",
"284 85 OFFCURVE",
"265 -23 CURVE SMOOTH",
"256 -74 OFFCURVE",
"237 -89 OFFCURVE",
"189 -89 CURVE SMOOTH",
"151 -89 OFFCURVE",
"104 -76 OFFCURVE",
"76 -59 CURVE",
"76 30 LINE",
"12 30 LINE",
"1 35 OFFCURVE",
"-44 -44 OFFCURVE",
"-44 -71 CURVE SMOOTH",
"-44 -138 OFFCURVE",
"14 -174 OFFCURVE",
"122 -174 CURVE SMOOTH"
);
},
{
closed = 1;
nodes = (
"185 133 OFFCURVE",
"174 150 OFFCURVE",
"174 210 CURVE SMOOTH",
"174 296 OFFCURVE",
"191 373 OFFCURVE",
"212 425 CURVE",
"216 427 OFFCURVE",
"219 428 OFFCURVE",
"231 428 CURVE SMOOTH",
"256 428 OFFCURVE",
"297 409 OFFCURVE",
"334 365 CURVE",
"308 222 LINE",
"267 163 OFFCURVE",
"229 133 OFFCURVE",
"200 133 CURVE SMOOTH"
);
}
);
width = 510;
}
);
leftKerningGroup = g;
rightKerningGroup = g;
unicode = 0067;
},
{
glyphname = h;
layers = (
{
anchors = (
{
name = bottom;
position = "{223, 0}";
},
{
name = center;
position = "{261, 247}";
},
{
name = top;
position = "{193, 658}";
}
);
layerId = "0a8077ec-4085-4bbf-a447-43ab7bcde2db";
paths = (
{
closed = 1;
nodes = (
"420 -4 OFFCURVE",
"460 23 OFFCURVE",
"465 27 CURVE",
"465 61 LINE",
"389 61 LINE",
"434 344 LINE SMOOTH",
"437 365 OFFCURVE",
"441 394 OFFCURVE",
"441 421 CURVE SMOOTH",
"441 472 OFFCURVE",
"418 513 OFFCURVE",
"350 513 CURVE SMOOTH",
"287 513 OFFCURVE",
"211 456 OFFCURVE",
"191 440 CURVE",
"221 630 LINE",
"221 697 LINE",
"84 678 LINE",
"84 647 LINE",
"162 630 LINE",
"55 0 LINE",
"124 0 LINE",
"186 401 LINE",
"207 415 OFFCURVE",
"268 450 OFFCURVE",
"325 450 CURVE SMOOTH",
"371 450 OFFCURVE",
"377 430 OFFCURVE",
"377 397 CURVE SMOOTH",
"377 391 OFFCURVE",
"374 370 OFFCURVE",
"372 357 CURVE SMOOTH",
"324 59 LINE SMOOTH",
"323 54 OFFCURVE",
"323 50 OFFCURVE",
"323 46 CURVE SMOOTH",
"323 7 OFFCURVE",
"343 -4 OFFCURVE",
"379 -4 CURVE SMOOTH"
);
}
);
width = 521;
},
{
anchors = (
{
name = bottom;
position = "{246, 0}";
},
{
name = center;
position = "{288, 247}";
},
{
name = top;
position = "{211, 683}";
}
);
layerId = "42d03b0b-68f7-4941-bda2-1e253e993363";
paths = (
{
closed = 1;
nodes = (
"461 -7 OFFCURVE",
"510 22 OFFCURVE",
"516 26 CURVE",
"516 95 LINE",
"447 95 LINE",
"488 335 LINE SMOOTH",
"491 354 OFFCURVE",
"499 406 OFFCURVE",
"499 430 CURVE SMOOTH",
"499 475 OFFCURVE",
"482 513 OFFCURVE",
"408 513 CURVE SMOOTH",
"362 513 OFFCURVE",
"311 489 OFFCURVE",
"243 437 CURVE",
"269 608 LINE",
"269 710 LINE",
"56 691 LINE",
"56 620 LINE",
"140 608 LINE",
"29 0 LINE",
"177 0 LINE",
"234 380 LINE",
"246 388 OFFCURVE",
"293 416 OFFCURVE",
"330 416 CURVE SMOOTH",
"344 416 OFFCURVE",
"353 403 OFFCURVE",
"353 388 CURVE SMOOTH",
"353 366 OFFCURVE",
"352 346 OFFCURVE",
"348 328 CURVE SMOOTH",
"308 126 LINE SMOOTH",
"305 110 OFFCURVE",
"300 79 OFFCURVE",
"300 54 CURVE SMOOTH",
"300 30 OFFCURVE",
"301 -7 OFFCURVE",
"375 -7 CURVE SMOOTH"
);
}
);
width = 554;
}
);
leftKerningGroup = l;
leftMetricsKey = l;
rightKerningGroup = n;
rightMetricsKey = n;
unicode = 0068;
},
{
glyphname = hbar;
layers = (
{
background = {
paths = (
{
closed = 1;
nodes = (
"420 -4 OFFCURVE",
"460 23 OFFCURVE",
"465 27 CURVE",
"465 61 LINE",
"389 61 LINE",
"434 344 LINE SMOOTH",
"437 365 OFFCURVE",
"441 394 OFFCURVE",
"441 421 CURVE SMOOTH",
"441 472 OFFCURVE",
"418 513 OFFCURVE",
"350 513 CURVE SMOOTH",
"287 513 OFFCURVE",
"211 456 OFFCURVE",
"191 440 CURVE",
"221 630 LINE",
"221 697 LINE",
"84 678 LINE",
"84 647 LINE",
"162 630 LINE",
"55 0 LINE",
"124 0 LINE",
"186 401 LINE",
"207 415 OFFCURVE",
"268 450 OFFCURVE",
"325 450 CURVE SMOOTH",
"371 450 OFFCURVE",
"377 430 OFFCURVE",
"377 397 CURVE SMOOTH",
"377 391 OFFCURVE",
"374 370 OFFCURVE",
"372 357 CURVE SMOOTH",
"324 59 LINE SMOOTH",
"323 54 OFFCURVE",
"323 50 OFFCURVE",
"323 46 CURVE SMOOTH",
"323 7 OFFCURVE",
"343 -4 OFFCURVE",
"379 -4 CURVE SMOOTH"
);
}
);
};
layerId = "0a8077ec-4085-4bbf-a447-43ab7bcde2db";
paths = (
{
closed = 1;
nodes = (
"420 -4 OFFCURVE",
"460 23 OFFCURVE",
"465 27 CURVE",
"465 61 LINE",
"389 61 LINE",
"434 344 LINE SMOOTH",
"437 365 OFFCURVE",
"441 394 OFFCURVE",
"441 421 CURVE SMOOTH",
"441 472 OFFCURVE",
"418 513 OFFCURVE",
"350 513 CURVE SMOOTH",
"287 513 OFFCURVE",
"211 456 OFFCURVE",
"191 440 CURVE",
"212 574 LINE",
"374 574 LINE",
"374 614 LINE",
"218 614 LINE",
"221 630 LINE",
"221 697 LINE",
"84 678 LINE",
"84 647 LINE",
"162 630 LINE",
"159 614 LINE",
"85 614 LINE",
"85 574 LINE",
"152 574 LINE",
"55 0 LINE",
"124 0 LINE",
"186 401 LINE",
"207 415 OFFCURVE",
"268 450 OFFCURVE",
"325 450 CURVE SMOOTH",
"371 450 OFFCURVE",
"377 430 OFFCURVE",
"377 397 CURVE SMOOTH",
"377 391 OFFCURVE",
"374 370 OFFCURVE",
"372 357 CURVE SMOOTH",
"324 59 LINE SMOOTH",
"323 54 OFFCURVE",
"323 50 OFFCURVE",
"323 46 CURVE SMOOTH",
"323 7 OFFCURVE",
"343 -4 OFFCURVE",
"379 -4 CURVE SMOOTH"
);
}
);
width = 521;
},
{
background = {
paths = (
{
closed = 1;
nodes = (
"461 -7 OFFCURVE",
"510 22 OFFCURVE",
"516 26 CURVE",
"516 95 LINE",
"447 95 LINE",
"488 335 LINE SMOOTH",
"491 354 OFFCURVE",
"499 406 OFFCURVE",
"499 430 CURVE SMOOTH",
"499 475 OFFCURVE",
"482 513 OFFCURVE",
"408 513 CURVE SMOOTH",
"362 513 OFFCURVE",
"311 489 OFFCURVE",
"243 437 CURVE",
"269 608 LINE",
"269 710 LINE",
"56 691 LINE",
"56 620 LINE",
"140 608 LINE",
"29 0 LINE",
"177 0 LINE",
"234 380 LINE",
"246 388 OFFCURVE",
"293 416 OFFCURVE",
"330 416 CURVE SMOOTH",
"344 416 OFFCURVE",
"353 403 OFFCURVE",
"353 388 CURVE SMOOTH",
"353 366 OFFCURVE",
"352 346 OFFCURVE",
"348 328 CURVE SMOOTH",
"308 126 LINE SMOOTH",
"305 110 OFFCURVE",
"300 79 OFFCURVE",
"300 54 CURVE SMOOTH",
"300 30 OFFCURVE",
"301 -7 OFFCURVE",
"375 -7 CURVE SMOOTH"
);
}
);
};
layerId = "42d03b0b-68f7-4941-bda2-1e253e993363";
paths = (
{
closed = 1;
nodes = (
"462 -7 OFFCURVE",
"510 22 OFFCURVE",
"516 26 CURVE",
"516 95 LINE",
"447 95 LINE",
"484 316 LINE SMOOTH",
"487 334 OFFCURVE",
"497 394 OFFCURVE",
"497 411 CURVE SMOOTH",
"497 455 OFFCURVE",
"483 495 OFFCURVE",
"407 495 CURVE SMOOTH",
"365 495 OFFCURVE",
"308 470 OFFCURVE",
"240 418 CURVE",
"256 522 LINE",
"393 522 LINE",
"393 609 LINE",
"266 609 LINE",
"269 634 LINE",
"269 710 LINE",
"88 694 LINE",
"88 656 LINE",
"150 647 LINE",
"142 609 LINE",
"45 609 LINE",
"45 522 LINE",
"124 522 LINE",
"29 0 LINE",
"177 0 LINE",
"231 363 LINE",
"243 370 OFFCURVE",
"292 396 OFFCURVE",
"329 396 CURVE SMOOTH",
"343 396 OFFCURVE",
"352 384 OFFCURVE",
"352 369 CURVE SMOOTH",
"352 349 OFFCURVE",
"347 326 OFFCURVE",
"344 308 CURVE SMOOTH",
"309 128 LINE SMOOTH",
"306 112 OFFCURVE",
"300 78 OFFCURVE",
"300 54 CURVE SMOOTH",
"300 30 OFFCURVE",
"302 -7 OFFCURVE",
"376 -7 CURVE SMOOTH"
);
}
);
width = 554;
}
);
leftKerningGroup = l;
leftMetricsKey = l;
rightKerningGroup = n;
rightMetricsKey = n;
unicode = 0127;
},
{
glyphname = idotless;
layers = (
{
anchors = (
{
name = bottom;
position = "{113, 0}";
},
{
name = ogonek;
position = "{168, 0}";
},
{
name = top;
position = "{161, 494}";
}
);
layerId = "0a8077ec-4085-4bbf-a447-43ab7bcde2db";
paths = (
{
closed = 1;
nodes = (
"165 -4 OFFCURVE",
"205 23 OFFCURVE",
"210 27 CURVE",
"210 61 LINE",
"136 61 LINE",
"200 437 LINE",
"200 507 LINE",
"60 488 LINE",
"60 457 LINE",
"140 440 LINE",
"72 62 LINE SMOOTH",
"71 55 OFFCURVE",
"70 47 OFFCURVE",
"70 46 CURVE SMOOTH",
"70 7 OFFCURVE",
"87 -4 OFFCURVE",
"127 -4 CURVE SMOOTH"
);
}
);
width = 266;
},
{
anchors = (
{
name = bottom;
position = "{123, 0}";
},
{
name = ogonek;
position = "{223, 0}";
},
{
name = top;
position = "{170, 494}";
}
);
layerId = "42d03b0b-68f7-4941-bda2-1e253e993363";
paths = (
{
closed = 1;
nodes = (
"212 -7 OFFCURVE",
"264 22 OFFCURVE",
"270 26 CURVE",
"270 95 LINE",
"199 95 LINE",
"251 400 LINE",
"251 504 LINE",
"37 485 LINE",
"37 415 LINE",
"111 399 LINE",
"57 126 LINE SMOOTH",
"54 110 OFFCURVE",
"48 78 OFFCURVE",
"48 54 CURVE SMOOTH",
"48 30 OFFCURVE",
"64 -7 OFFCURVE",
"115 -7 CURVE SMOOTH"
);
}
);
width = 308;
}
);
leftKerningGroup = n;
leftMetricsKey = n;
rightKerningGroup = i;
rightMetricsKey = n;
unicode = 0131;
},
{
glyphname = jdotless;
layers = (
{
anchors = (
{
name = bottom;
position = "{213, 0}";
},
{
name = top;
position = "{167, 494}";
}
);
layerId = "0a8077ec-4085-4bbf-a447-43ab7bcde2db";
paths = (
{
closed = 1;
nodes = (
"34 -166 OFFCURVE",
"129 -109 OFFCURVE",
"151 36 CURVE SMOOTH",
"213 449 LINE",
"213 515 LINE",
"72 496 LINE",
"72 465 LINE",
"152 447 LINE",
"82 -4 LINE SMOOTH",
"74 -54 OFFCURVE",
"48 -80 OFFCURVE",
"44 -83 CURVE SMOOTH",
"37 -89 OFFCURVE",
"12 -95 OFFCURVE",
"-16 -95 CURVE SMOOTH",
"-82 -95 LINE",
"-86 -100 OFFCURVE",
"-95 -112 OFFCURVE",
"-95 -134 CURVE SMOOTH",
"-95 -160 OFFCURVE",
"-84 -166 OFFCURVE",
"-63 -166 CURVE SMOOTH"
);
}
);
width = 270;
},
{
anchors = (
{
name = bottom;
position = "{241, 0}";
},
{
name = top;
position = "{167, 494}";
}
);
layerId = "42d03b0b-68f7-4941-bda2-1e253e993363";
paths = (
{
closed = 1;
nodes = (
"93 -174 OFFCURVE",
"178 -66 OFFCURVE",
"193 42 CURVE SMOOTH",
"241 397 LINE",
"241 502 LINE",
"32 483 LINE",
"32 413 LINE",
"105 397 LINE",
"52 52 LINE SMOOTH",
"41 -17 OFFCURVE",
"37 -39 OFFCURVE",
"28 -56 CURVE",
"27 -60 OFFCURVE",
"9 -66 OFFCURVE",
"-19 -66 CURVE SMOOTH",
"-104 -66 LINE",
"-103 -64 OFFCURVE",
"-120 -85 OFFCURVE",
"-120 -114 CURVE SMOOTH",
"-120 -155 OFFCURVE",
"-96 -174 OFFCURVE",
"-37 -174 CURVE SMOOTH"
);
}
);
width = 283;
}
);
leftKerningGroup = j;
rightKerningGroup = j;
unicode = 0237;
},
{
glyphname = k;
layers = (
{
anchors = (
{
name = bottom;
position = "{215, 0}";
},
{
name = top;
position = "{193, 648}";
}
);
background = {
paths = (
{
closed = 1;
nodes = (
"414 -4 OFFCURVE",
"443 24 OFFCURVE",
"446 27 CURVE",
"446 61 LINE",
"363 61 LINE",
"287 217 LINE",
"352 259 OFFCURVE",
"449 322 OFFCURVE",
"449 418 CURVE SMOOTH",
"449 476 OFFCURVE",
"411 513 OFFCURVE",
"348 513 CURVE SMOOTH",
"290 513 OFFCURVE",
"214 458 OFFCURVE",
"191 441 CURVE",
"221 630 LINE",
"221 697 LINE",
"84 678 LINE",
"84 647 LINE",
"162 630 LINE",
"56 0 LINE",
"123 0 LINE",
"184 400 LINE",
"205 413 OFFCURVE",
"267 450 OFFCURVE",
"324 450 CURVE SMOOTH",
"361 450 OFFCURVE",
"381 433 OFFCURVE",
"381 402 CURVE SMOOTH",
"381 339 OFFCURVE",
"284 256 OFFCURVE",
"220 225 CURVE",
"220 210 LINE",
"295 42 LINE SMOOTH",
"309 9 OFFCURVE",
"324 -4 OFFCURVE",
"355 -4 CURVE SMOOTH"
);
}
);
};
layerId = "0a8077ec-4085-4bbf-a447-43ab7bcde2db";
paths = (
{
closed = 1;
nodes = (
"414 -4 OFFCURVE",
"443 24 OFFCURVE",
"446 27 CURVE",
"446 61 LINE",
"363 61 LINE",
"287 217 LINE",
"352 259 OFFCURVE",
"449 322 OFFCURVE",
"449 418 CURVE SMOOTH",
"449 476 OFFCURVE",
"411 513 OFFCURVE",
"348 513 CURVE SMOOTH",
"290 513 OFFCURVE",
"214 455 OFFCURVE",
"191 437 CURVE",
"221 630 LINE",
"221 697 LINE",
"84 678 LINE",
"84 647 LINE",
"162 630 LINE",
"56 0 LINE",
"123 0 LINE",
"184 395 LINE",
"205 409 OFFCURVE",
"267 450 OFFCURVE",
"324 450 CURVE SMOOTH",
"361 450 OFFCURVE",
"381 433 OFFCURVE",
"381 402 CURVE SMOOTH",
"381 339 OFFCURVE",
"284 256 OFFCURVE",
"220 225 CURVE",
"220 210 LINE",
"295 42 LINE SMOOTH",
"309 9 OFFCURVE",
"324 -4 OFFCURVE",
"355 -4 CURVE SMOOTH"
);
}
);
width = 477;
},
{
anchors = (
{
name = bottom;
position = "{235, 0}";
},
{
name = top;
position = "{211, 648}";
}
);
layerId = "42d03b0b-68f7-4941-bda2-1e253e993363";
paths = (
{
closed = 1;
nodes = (
"459 -4 OFFCURVE",
"496 23 OFFCURVE",
"499 27 CURVE",
"499 95 LINE",
"406 95 LINE",
"346 222 LINE",
"413 264 OFFCURVE",
"502 322 OFFCURVE",
"502 418 CURVE SMOOTH",
"502 476 OFFCURVE",
"475 513 OFFCURVE",
"401 513 CURVE SMOOTH",
"343 513 OFFCURVE",
"267 458 OFFCURVE",
"244 441 CURVE",
"269 608 LINE",
"269 710 LINE",
"56 691 LINE",
"56 620 LINE",
"140 608 LINE",
"31 0 LINE",
"178 0 LINE",
"236 383 LINE",
"252 393 OFFCURVE",
"300 416 OFFCURVE",
"330 416 CURVE SMOOTH",
"355 416 OFFCURVE",
"358 402 OFFCURVE",
"358 382 CURVE SMOOTH",
"358 343 OFFCURVE",
"338 309 OFFCURVE",
"231 224 CURVE",
"231 173 LINE",
"287 42 LINE SMOOTH",
"301 8 OFFCURVE",
"332 -4 OFFCURVE",
"394 -4 CURVE SMOOTH"
);
}
);
width = 530;
}
);
leftKerningGroup = l;
leftMetricsKey = l;
rightKerningGroup = k;
unicode = 006B;
},
{
glyphname = kgreenlandic;
layers = (
{
anchors = (
{
name = bottom;
position = "{219, 0}";
},
{
name = top;
position = "{262, 494}";
}
);
layerId = "0a8077ec-4085-4bbf-a447-43ab7bcde2db";
paths = (
{
closed = 1;
nodes = (
"419 -4 OFFCURVE",
"448 24 OFFCURVE",
"451 27 CURVE",
"451 61 LINE",
"368 61 LINE",
"292 217 LINE",
"357 259 OFFCURVE",
"454 323 OFFCURVE",
"454 417 CURVE SMOOTH",
"454 476 OFFCURVE",
"414 513 OFFCURVE",
"363 513 CURVE SMOOTH",
"297 513 OFFCURVE",
"231 468 OFFCURVE",
"200 444 CURVE",
"200 507 LINE",
"60 488 LINE",
"60 457 LINE",
"140 440 LINE",
"61 0 LINE",
"128 0 LINE",
"193 401 LINE",
"212 414 OFFCURVE",
"271 450 OFFCURVE",
"329 450 CURVE SMOOTH",
"366 450 OFFCURVE",
"386 433 OFFCURVE",
"386 403 CURVE SMOOTH",
"386 336 OFFCURVE",
"289 257 OFFCURVE",
"225 225 CURVE",
"225 210 LINE",
"300 42 LINE SMOOTH",
"314 9 OFFCURVE",
"329 -4 OFFCURVE",
"360 -4 CURVE SMOOTH"
);
}
);
width = 482;
},
{
anchors = (
{
name = bottom;
position = "{247, 0}";
},
{
name = top;
position = "{304, 494}";
}
);
layerId = "42d03b0b-68f7-4941-bda2-1e253e993363";
paths = (
{
closed = 1;
nodes = (
"459 -4 OFFCURVE",
"497 18 OFFCURVE",
"504 27 CURVE",
"504 95 LINE",
"411 95 LINE",
"353 222 LINE",
"418 264 OFFCURVE",
"509 322 OFFCURVE",
"509 418 CURVE SMOOTH",
"509 476 OFFCURVE",
"480 513 OFFCURVE",
"404 513 CURVE SMOOTH",
"350 513 OFFCURVE",
"277 459 OFFCURVE",
"252 440 CURVE",
"252 504 LINE",
"37 485 LINE",
"37 416 LINE",
"111 399 LINE",
"36 0 LINE",
"183 0 LINE",
"245 383 LINE",
"272 400 OFFCURVE",
"312 416 OFFCURVE",
"335 416 CURVE SMOOTH",
"352 416 OFFCURVE",
"364 408 OFFCURVE",
"364 384 CURVE SMOOTH",
"364 350 OFFCURVE",
"344 307 OFFCURVE",
"239 224 CURVE",
"239 173 LINE",
"295 42 LINE SMOOTH",
"309 8 OFFCURVE",
"337 -4 OFFCURVE",
"399 -4 CURVE SMOOTH"
);
}
);
width = 535;
}
);
leftKerningGroup = n;
leftMetricsKey = n;
rightKerningGroup = k;
rightMetricsKey = k;
unicode = 0138;
},
{
glyphname = l;
layers = (
{
anchors = (
{
name = bottom;
position = "{131, 0}";
},
{
name = center;
position = "{128, 247}";
},
{
name = top;
position = "{193, 688}";
},
{
name = topright;
position = "{222, 534}";
}
);
layerId = "0a8077ec-4085-4bbf-a447-43ab7bcde2db";
paths = (
{
closed = 1;
nodes = (
"164 -3 OFFCURVE",
"200 24 OFFCURVE",
"204 27 CURVE",
"204 61 LINE",
"130 61 LINE",
"219 630 LINE",
"219 697 LINE",
"84 678 LINE",
"84 646 LINE",
"162 630 LINE",
"64 59 LINE SMOOTH",
"63 53 OFFCURVE",
"63 48 OFFCURVE",
"63 46 CURVE SMOOTH",
"63 7 OFFCURVE",
"87 -3 OFFCURVE",
"124 -3 CURVE SMOOTH"
);
}
);
width = 267;
},
{
anchors = (
{
name = bottom;
position = "{149, 0}";
},
{
name = center;
position = "{150, 247}";
},
{
name = top;
position = "{211, 688}";
},
{
name = topright;
position = "{280, 524}";
}
);
layerId = "42d03b0b-68f7-4941-bda2-1e253e993363";
paths = (
{
closed = 1;
nodes = (
"202 -8 OFFCURVE",
"255 20 OFFCURVE",
"261 24 CURVE",
"261 94 LINE",
"190 94 LINE",
"271 608 LINE",
"271 710 LINE",
"56 691 LINE",
"56 626 LINE",
"140 608 LINE",
"51 125 LINE SMOOTH",
"48 109 OFFCURVE",
"43 82 OFFCURVE",
"43 52 CURVE SMOOTH",
"43 29 OFFCURVE",
"45 -8 OFFCURVE",
"119 -8 CURVE SMOOTH"
);
}
);
width = 295;
}
);
leftKerningGroup = l;
rightKerningGroup = l;
unicode = 006C;
},
{
glyphname = lslash;
layers = (
{
components = (
{
name = l;
}
);
layerId = "0a8077ec-4085-4bbf-a447-43ab7bcde2db";
paths = (
{
closed = 1;
nodes = (
"284 371 LINE",
"284 416 LINE",
"10 317 LINE",
"10 272 LINE"
);
}
);
width = 267;
},
{
components = (
{
name = l;
}
);
layerId = "42d03b0b-68f7-4941-bda2-1e253e993363";
paths = (
{
closed = 1;
nodes = (
"315 387 LINE",
"315 447 LINE",
"6 332 LINE",
"6 272 LINE"
);
}
);
width = 295;
}
);
leftKerningGroup = l;
rightKerningGroup = l;
unicode = 0142;
},
{
glyphname = m;
layers = (
{
anchors = (
{
name = bottom;
position = "{346, 0}";
},
{
name = top;
position = "{418, 494}";
}
);
background = {
paths = (
{
closed = 1;
nodes = (
"671 -4 OFFCURVE",
"712 24 OFFCURVE",
"716 27 CURVE",
"718 61 LINE",
"642 61 LINE",
"691 344 LINE SMOOTH",
"695 365 OFFCURVE",
"699 392 OFFCURVE",
"699 420 CURVE SMOOTH",
"699 471 OFFCURVE",
"678 513 OFFCURVE",
"612 513 CURVE SMOOTH",
"539 513 OFFCURVE",
"448 440 OFFCURVE",
"442 435 CURVE",
"441 473 OFFCURVE",
"420 513 OFFCURVE",
"360 513 CURVE SMOOTH",
"281 513 OFFCURVE",
"186 430 OFFCURVE",
"199 439 CURVE",
"199 507 LINE",
"60 488 LINE",
"60 457 LINE",
"139 440 LINE",
"60 0 LINE",
"130 0 LINE",
"191 399 LINE",
"187 397 OFFCURVE",
"262 450 OFFCURVE",
"330 450 CURVE SMOOTH",
"370 450 OFFCURVE",
"376 426 OFFCURVE",
"376 404 CURVE SMOOTH",
"376 391 OFFCURVE",
"375 371 OFFCURVE",
"371 346 CURVE SMOOTH",
"311 0 LINE",
"380 0 LINE",
"437 366 LINE SMOOTH",
"439 382 OFFCURVE",
"440 388 OFFCURVE",
"441 400 CURVE",
"463 414 OFFCURVE",
"527 450 OFFCURVE",
"586 450 CURVE SMOOTH",
"622 450 OFFCURVE",
"633 432 OFFCURVE",
"633 401 CURVE SMOOTH",
"633 385 OFFCURVE",
"630 366 OFFCURVE",
"628 357 CURVE SMOOTH",
"575 59 LINE SMOOTH",
"574 53 OFFCURVE",
"574 50 OFFCURVE",
"574 46 CURVE SMOOTH",
"574 7 OFFCURVE",
"594 -4 OFFCURVE",
"631 -4 CURVE SMOOTH"
);
}
);
};
layerId = "0a8077ec-4085-4bbf-a447-43ab7bcde2db";
paths = (
{
closed = 1;
nodes = (
"671 -4 OFFCURVE",
"712 24 OFFCURVE",
"716 27 CURVE",
"718 61 LINE",
"642 61 LINE",
"691 344 LINE SMOOTH",
"695 365 OFFCURVE",
"699 392 OFFCURVE",
"699 420 CURVE SMOOTH",
"699 471 OFFCURVE",
"678 513 OFFCURVE",
"612 513 CURVE SMOOTH",
"539 513 OFFCURVE",
"448 440 OFFCURVE",
"442 435 CURVE",
"441 473 OFFCURVE",
"420 513 OFFCURVE",
"360 513 CURVE SMOOTH",
"315 513 OFFCURVE",
"254 485 OFFCURVE",
"199 439 CURVE",
"199 507 LINE",
"60 488 LINE",
"60 457 LINE",
"139 440 LINE",
"60 0 LINE",
"130 0 LINE",
"191 399 LINE",
"232 428 OFFCURVE",
"290 450 OFFCURVE",
"330 450 CURVE SMOOTH",
"370 450 OFFCURVE",
"376 426 OFFCURVE",
"376 404 CURVE SMOOTH",
"376 391 OFFCURVE",
"375 371 OFFCURVE",
"371 346 CURVE SMOOTH",
"311 0 LINE",
"380 0 LINE",
"437 366 LINE SMOOTH",
"439 382 OFFCURVE",
"440 388 OFFCURVE",
"441 400 CURVE",
"463 414 OFFCURVE",
"527 450 OFFCURVE",
"586 450 CURVE SMOOTH",
"622 450 OFFCURVE",
"633 432 OFFCURVE",
"633 401 CURVE SMOOTH",
"633 385 OFFCURVE",
"630 366 OFFCURVE",
"628 357 CURVE SMOOTH",
"575 59 LINE SMOOTH",
"574 53 OFFCURVE",
"574 50 OFFCURVE",
"574 46 CURVE SMOOTH",
"574 7 OFFCURVE",
"594 -4 OFFCURVE",
"631 -4 CURVE SMOOTH"
);
}
);
width = 772;
},
{
anchors = (
{
name = bottom;
position = "{370, 0}";
},
{
name = top;
position = "{444, 494}";
}
);
layerId = "42d03b0b-68f7-4941-bda2-1e253e993363";
paths = (
{
closed = 1;
nodes = (
"712 -7 OFFCURVE",
"760 16 OFFCURVE",
"776 26 CURVE",
"776 95 LINE",
"708 95 LINE",
"748 329 LINE SMOOTH",
"751 348 OFFCURVE",
"759 403 OFFCURVE",
"759 434 CURVE SMOOTH",
"759 482 OFFCURVE",
"730 514 OFFCURVE",
"669 514 CURVE SMOOTH",
"626 514 OFFCURVE",
"578 491 OFFCURVE",
"505 436 CURVE",
"503 479 OFFCURVE",
"482 514 OFFCURVE",
"412 514 CURVE SMOOTH",
"375 514 OFFCURVE",
"327 494 OFFCURVE",
"251 436 CURVE",
"251 504 LINE",
"37 485 LINE",
"37 415 LINE",
"111 399 LINE",
"38 0 LINE",
"183 0 LINE",
"242 378 LINE",
"266 392 OFFCURVE",
"314 416 OFFCURVE",
"334 416 CURVE SMOOTH",
"350 416 OFFCURVE",
"364 408 OFFCURVE",
"364 389 CURVE SMOOTH",
"364 370 OFFCURVE",
"360 344 OFFCURVE",
"358 331 CURVE SMOOTH",
"298 0 LINE",
"440 0 LINE",
"492 329 LINE SMOOTH",
"494 339 OFFCURVE",
"497 360 OFFCURVE",
"500 381 CURVE",
"521 395 OFFCURVE",
"566 416 OFFCURVE",
"587 416 CURVE SMOOTH",
"604 416 OFFCURVE",
"618 408 OFFCURVE",
"618 389 CURVE SMOOTH",
"618 368 OFFCURVE",
"615 344 OFFCURVE",
"612 331 CURVE SMOOTH",
"572 126 LINE SMOOTH",
"569 110 OFFCURVE",
"564 81 OFFCURVE",
"564 54 CURVE SMOOTH",
"564 30 OFFCURVE",
"564 -7 OFFCURVE",
"650 -7 CURVE SMOOTH"
);
}
);
width = 814;
}
);
leftKerningGroup = n;
leftMetricsKey = n;
rightKerningGroup = n;
rightMetricsKey = n;
unicode = 006D;
},
{
glyphname = n;
layers = (
{
anchors = (
{
name = bottom;
position = "{229, 0}";
},
{
name = top;
position = "{299, 494}";
}
);
layerId = "0a8077ec-4085-4bbf-a447-43ab7bcde2db";
paths = (
{
closed = 1;
nodes = (
"427 -4 OFFCURVE",
"467 23 OFFCURVE",
"472 27 CURVE",
"472 61 LINE",
"396 61 LINE",
"445 344 LINE SMOOTH",
"449 365 OFFCURVE",
"453 392 OFFCURVE",
"453 420 CURVE SMOOTH",
"453 471 OFFCURVE",
"431 513 OFFCURVE",
"362 513 CURVE SMOOTH",
"297 513 OFFCURVE",
"214 452 OFFCURVE",
"197 438 CURVE",
"194 438 LINE",
"200 507 LINE",
"60 488 LINE",
"60 457 LINE",
"140 440 LINE",
"61 0 LINE",
"131 0 LINE",
"193 398 LINE",
"212 411 OFFCURVE",
"274 450 OFFCURVE",
"334 450 CURVE SMOOTH",
"380 450 OFFCURVE",
"389 432 OFFCURVE",
"389 401 CURVE SMOOTH",
"389 385 OFFCURVE",
"386 366 OFFCURVE",
"384 357 CURVE SMOOTH",
"331 59 LINE SMOOTH",
"330 53 OFFCURVE",
"330 48 OFFCURVE",
"330 46 CURVE SMOOTH",
"330 7 OFFCURVE",
"350 -4 OFFCURVE",
"387 -4 CURVE SMOOTH"
);
}
);
width = 528;
},
{
anchors = (
{
name = bottom;
position = "{248, 0}";
},
{
name = top;
position = "{318, 494}";
}
);
layerId = "42d03b0b-68f7-4941-bda2-1e253e993363";
paths = (
{
closed = 1;
nodes = (
"473 -7 OFFCURVE",
"522 22 OFFCURVE",
"527 26 CURVE",
"527 95 LINE",
"457 95 LINE",
"498 335 LINE SMOOTH",
"501 354 OFFCURVE",
"509 410 OFFCURVE",
"509 433 CURVE SMOOTH",
"509 477 OFFCURVE",
"487 513 OFFCURVE",
"417 513 CURVE SMOOTH",
"369 513 OFFCURVE",
"321 489 OFFCURVE",
"252 436 CURVE",
"251 436 LINE",
"252 504 LINE",
"37 485 LINE",
"37 416 LINE",
"111 399 LINE",
"36 0 LINE",
"186 0 LINE",
"245 380 LINE",
"255 388 OFFCURVE",
"303 416 OFFCURVE",
"340 416 CURVE SMOOTH",
"355 416 OFFCURVE",
"364 403 OFFCURVE",
"364 387 CURVE SMOOTH",
"364 364 OFFCURVE",
"362 346 OFFCURVE",
"358 328 CURVE SMOOTH",
"318 126 LINE SMOOTH",
"315 110 OFFCURVE",
"310 81 OFFCURVE",
"310 54 CURVE SMOOTH",
"310 30 OFFCURVE",
"313 -7 OFFCURVE",
"387 -7 CURVE SMOOTH"
);
}
);
width = 565;
}
);
leftKerningGroup = n;
rightKerningGroup = n;
unicode = 006E;
},
{
glyphname = eng;
layers = (
{
anchors = (
{
name = bottom;
position = "{471, 0}";
},
{
name = top;
position = "{299, 494}";
}
);
layerId = "0a8077ec-4085-4bbf-a447-43ab7bcde2db";
paths = (
{
closed = 1;
nodes = (
"298 -166 OFFCURVE",
"377 -90 OFFCURVE",
"397 36 CURVE SMOOTH",
"445 344 LINE SMOOTH",
"452 390 OFFCURVE",
"453 403 OFFCURVE",
"453 420 CURVE SMOOTH",
"453 481 OFFCURVE",
"422 513 OFFCURVE",
"362 513 CURVE SMOOTH",
"323 513 OFFCURVE",
"251 480 OFFCURVE",
"200 439 CURVE",
"200 507 LINE",
"60 488 LINE",
"60 457 LINE",
"140 440 LINE",
"61 0 LINE",
"131 0 LINE",
"193 398 LINE",
"248 434 OFFCURVE",
"302 450 OFFCURVE",
"334 450 CURVE SMOOTH",
"374 450 OFFCURVE",
"389 437 OFFCURVE",
"389 401 CURVE SMOOTH",
"389 389 OFFCURVE",
"387 375 OFFCURVE",
"383 348 CURVE SMOOTH",
"328 -4 LINE SMOOTH",
"324 -31 OFFCURVE",
"307 -68 OFFCURVE",
"290 -83 CURVE SMOOTH",
"282 -90 OFFCURVE",
"257 -95 OFFCURVE",
"230 -95 CURVE SMOOTH",
"164 -95 LINE",
"157 -106 OFFCURVE",
"151 -117 OFFCURVE",
"151 -134 CURVE SMOOTH",
"151 -157 OFFCURVE",
"160 -166 OFFCURVE",
"183 -166 CURVE SMOOTH"
);
}
);
width = 517;
},
{
anchors = (
{
name = bottom;
position = "{519, 0}";
},
{
name = top;
position = "{318, 494}";
}
);
layerId = "42d03b0b-68f7-4941-bda2-1e253e993363";
paths = (
{
closed = 1;
nodes = (
"341 -174 OFFCURVE",
"440 -81 OFFCURVE",
"457 42 CURVE SMOOTH",
"498 335 LINE SMOOTH",
"504 379 OFFCURVE",
"509 418 OFFCURVE",
"509 433 CURVE SMOOTH",
"509 486 OFFCURVE",
"477 513 OFFCURVE",
"417 513 CURVE SMOOTH",
"371 513 OFFCURVE",
"324 491 OFFCURVE",
"252 436 CURVE",
"252 504 LINE",
"37 485 LINE",
"37 416 LINE",
"111 399 LINE",
"36 0 LINE",
"186 0 LINE",
"245 380 LINE",
"256 387 OFFCURVE",
"302 416 OFFCURVE",
"340 416 CURVE SMOOTH",
"354 416 OFFCURVE",
"364 404 OFFCURVE",
"364 387 CURVE SMOOTH",
"364 374 OFFCURVE",
"363 360 OFFCURVE",
"362 351 CURVE SMOOTH",
"315 52 LINE SMOOTH",
"306 -8 OFFCURVE",
"301 -36 OFFCURVE",
"291 -56 CURVE",
"290 -61 OFFCURVE",
"266 -66 OFFCURVE",
"244 -66 CURVE SMOOTH",
"159 -66 LINE",
"152 -72 OFFCURVE",
"143 -99 OFFCURVE",
"143 -114 CURVE SMOOTH",
"143 -156 OFFCURVE",
"168 -174 OFFCURVE",
"226 -174 CURVE SMOOTH"
);
}
);
width = 547;
}
);
leftKerningGroup = n;
leftMetricsKey = n;
rightKerningGroup = j;
rightMetricsKey = j;
unicode = 014B;
},
{
glyphname = nhookleft;
layers = (
{
anchors = (
{
name = bottom;
position = "{242, 0}";
},
{
name = top;
position = "{312, 494}";
}
);
layerId = "0a8077ec-4085-4bbf-a447-43ab7bcde2db";
paths = (
{
closed = 1;
nodes = (
"34 -166 OFFCURVE",
"129 -109 OFFCURVE",
"151 36 CURVE SMOOTH",
"207 398 LINE",
"225 410 OFFCURVE",
"286 450 OFFCURVE",
"347 450 CURVE SMOOTH",
"392 450 OFFCURVE",
"401 432 OFFCURVE",
"401 401 CURVE SMOOTH",
"401 385 OFFCURVE",
"398 366 OFFCURVE",
"396 357 CURVE SMOOTH",
"344 59 LINE SMOOTH",
"343 53 OFFCURVE",
"343 48 OFFCURVE",
"343 46 CURVE SMOOTH",
"343 7 OFFCURVE",
"363 -4 OFFCURVE",
"400 -4 CURVE SMOOTH",
"440 -4 OFFCURVE",
"480 23 OFFCURVE",
"485 27 CURVE",
"485 61 LINE",
"409 61 LINE",
"458 344 LINE SMOOTH",
"462 365 OFFCURVE",
"466 392 OFFCURVE",
"466 420 CURVE SMOOTH",
"466 471 OFFCURVE",
"444 513 OFFCURVE",
"375 513 CURVE SMOOTH",
"310 513 OFFCURVE",
"229 453 OFFCURVE",
"213 439 CURVE",
"213 507 LINE",
"73 488 LINE",
"73 457 LINE",
"153 440 LINE",
"79 -4 LINE SMOOTH",
"69 -64 OFFCURVE",
"47 -79 OFFCURVE",
"41 -83 CURVE SMOOTH",
"33 -88 OFFCURVE",
"10 -95 OFFCURVE",
"-17 -95 CURVE SMOOTH",
"-82 -95 LINE",
"-86 -100 OFFCURVE",
"-95 -112 OFFCURVE",
"-95 -134 CURVE SMOOTH",
"-95 -160 OFFCURVE",
"-84 -166 OFFCURVE",
"-63 -166 CURVE SMOOTH"
);
}
);
width = 541;
},
{
anchors = (
{
name = bottom;
position = "{248, 0}";
},
{
name = top;
position = "{318, 494}";
}
);
layerId = "42d03b0b-68f7-4941-bda2-1e253e993363";
paths = (
{
closed = 1;
nodes = (
"93 -174 OFFCURVE",
"176 -66 OFFCURVE",
"193 42 CURVE SMOOTH",
"245 380 LINE",
"255 387 OFFCURVE",
"303 416 OFFCURVE",
"340 416 CURVE SMOOTH",
"355 416 OFFCURVE",
"364 403 OFFCURVE",
"364 387 CURVE SMOOTH",
"364 367 OFFCURVE",
"362 346 OFFCURVE",
"358 328 CURVE SMOOTH",
"318 126 LINE SMOOTH",
"315 110 OFFCURVE",
"310 81 OFFCURVE",
"310 54 CURVE SMOOTH",
"310 30 OFFCURVE",
"313 -7 OFFCURVE",
"387 -7 CURVE SMOOTH",
"473 -7 OFFCURVE",
"522 22 OFFCURVE",
"527 26 CURVE",
"527 95 LINE",
"457 95 LINE",
"498 335 LINE SMOOTH",
"501 354 OFFCURVE",
"509 410 OFFCURVE",
"509 433 CURVE SMOOTH",
"509 477 OFFCURVE",
"487 513 OFFCURVE",
"417 513 CURVE SMOOTH",
"369 513 OFFCURVE",
"321 489 OFFCURVE",
"252 436 CURVE",
"252 504 LINE",
"37 485 LINE",
"37 416 LINE",
"111 399 LINE",
"52 52 LINE SMOOTH",
"40 -17 OFFCURVE",
"36 -39 OFFCURVE",
"27 -56 CURVE",
"26 -60 OFFCURVE",
"9 -66 OFFCURVE",
"-19 -66 CURVE SMOOTH",
"-104 -66 LINE",
"-106 -67 OFFCURVE",
"-120 -87 OFFCURVE",
"-120 -114 CURVE SMOOTH",
"-120 -155 OFFCURVE",
"-96 -174 OFFCURVE",
"-37 -174 CURVE SMOOTH"
);
}
);
width = 565;
}
);
leftKerningGroup = j;
leftMetricsKey = j;
rightKerningGroup = n;
rightMetricsKey = n;
unicode = 0272;
},
{
glyphname = o;
layers = (
{
anchors = (
{
name = bottom;
position = "{191, 0}";
},
{
name = center;
position = "{225, 247}";
},
{
name = ogonek;
position = "{246, 0}";
},
{
name = top;
position = "{282, 494}";
},
{
name = topright;
position = "{468, 494}";
}
);
layerId = "0a8077ec-4085-4bbf-a447-43ab7bcde2db";
paths = (
{
closed = 1;
nodes = (
"326 -9 OFFCURVE",
"410 142 OFFCURVE",
"410 347 CURVE SMOOTH",
"410 448 OFFCURVE",
"373 513 OFFCURVE",
"284 513 CURVE SMOOTH",
"129 513 OFFCURVE",
"43 356 OFFCURVE",
"43 156 CURVE SMOOTH",
"43 52 OFFCURVE",
"86 -9 OFFCURVE",
"173 -9 CURVE SMOOTH"
);
},
{
closed = 1;
nodes = (
"135 45 OFFCURVE",
"115 71 OFFCURVE",
"115 200 CURVE SMOOTH",
"115 311 OFFCURVE",
"156 422 OFFCURVE",
"173 438 CURVE SMOOTH",
"188 451 OFFCURVE",
"218 458 OFFCURVE",
"242 458 CURVE SMOOTH",
"323 458 OFFCURVE",
"339 419 OFFCURVE",
"339 302 CURVE SMOOTH",
"339 190 OFFCURVE",
"296 69 OFFCURVE",
"281 60 CURVE",
"265 47 OFFCURVE",
"234 45 OFFCURVE",
"212 45 CURVE SMOOTH"
);
}
);
width = 453;
},
{
anchors = (
{
name = bottom;
position = "{209, 0}";
},
{
name = center;
position = "{243, 247}";
},
{
name = ogonek;
position = "{290, 0}";
},
{
name = top;
position = "{273, 494}";
},
{
name = topright;
position = "{473, 494}";
}
);
layerId = "42d03b0b-68f7-4941-bda2-1e253e993363";
paths = (
{
closed = 1;
nodes = (
"372 -12 OFFCURVE",
"466 156 OFFCURVE",
"466 327 CURVE SMOOTH",
"466 466 OFFCURVE",
"394 513 OFFCURVE",
"272 513 CURVE SMOOTH",
"135 513 OFFCURVE",
"20 371 OFFCURVE",
"20 169 CURVE SMOOTH",
"20 43 OFFCURVE",
"91 -12 OFFCURVE",
"210 -12 CURVE SMOOTH"
);
},
{
closed = 1;
nodes = (
"186 65 OFFCURVE",
"170 114 OFFCURVE",
"170 191 CURVE SMOOTH",
"170 326 OFFCURVE",
"203 414 OFFCURVE",
"212 427 CURVE",
"216 431 OFFCURVE",
"236 437 OFFCURVE",
"251 437 CURVE SMOOTH",
"289 437 OFFCURVE",
"316 431 OFFCURVE",
"316 317 CURVE SMOOTH",
"316 193 OFFCURVE",
"302 127 OFFCURVE",
"281 74 CURVE",
"272 69 OFFCURVE",
"263 65 OFFCURVE",
"240 65 CURVE SMOOTH"
);
}
);
width = 486;
}
);
leftKerningGroup = o;
rightKerningGroup = o;
unicode = 006F;
},
{
glyphname = oslash;
layers = (
{
anchors = (
{
name = top;
position = "{261.714, 494}";
}
);
components = (
{
name = o;
}
);
guideLines = (
{
position = "{0, -12}";
}
);
layerId = "0a8077ec-4085-4bbf-a447-43ab7bcde2db";
paths = (
{
closed = 1;
nodes = (
"392 551 LINE",
"343 571 LINE",
"68 -50 LINE",
"116 -74 LINE"
);
}
);
width = 453;
},
{
anchors = (
{
name = top;
position = "{277.714, 494}";
}
);
components = (
{
name = o;
}
);
layerId = "42d03b0b-68f7-4941-bda2-1e253e993363";
paths = (
{
closed = 1;
nodes = (
"402 548 LINE",
"344 574 LINE",
"69 -47 LINE",
"129 -75 LINE"
);
}
);
width = 486;
}
);
leftKerningGroup = o;
leftMetricsKey = o;
rightKerningGroup = o;
rightMetricsKey = o;
unicode = 00F8;
},
{
glyphname = oe;
layers = (
{
anchors = (
{
name = top;
position = "{403, 494}";
}
);
layerId = "0a8077ec-4085-4bbf-a447-43ab7bcde2db";
paths = (
{
closed = 1;
nodes = (
"242 -9 OFFCURVE",
"299 22 OFFCURVE",
"340 80 CURVE",
"359 19 OFFCURVE",
"402 -9 OFFCURVE",
"485 -9 CURVE SMOOTH",
"534 -9 OFFCURVE",
"594 19 OFFCURVE",
"627 58 CURVE",
"608 85 LINE",
"576 61 OFFCURVE",
"535 46 OFFCURVE",
"506 46 CURVE SMOOTH",
"427 46 OFFCURVE",
"403 82 OFFCURVE",
"403 195 CURVE",
"404 204 LINE",
"590 241 OFFCURVE",
"660 300 OFFCURVE",
"660 418 CURVE SMOOTH",
"660 472 OFFCURVE",
"619 513 OFFCURVE",
"564 513 CURVE SMOOTH",
"500 513 OFFCURVE",
"443 479 OFFCURVE",
"402 414 CURVE",
"387 480 OFFCURVE",
"349 513 OFFCURVE",
"285 513 CURVE SMOOTH",
"140 513 OFFCURVE",
"43 371 OFFCURVE",
"43 156 CURVE SMOOTH",
"43 49 OFFCURVE",
"89 -9 OFFCURVE",
"173 -9 CURVE SMOOTH"
);
},
{
closed = 1;
nodes = (
"132 47 OFFCURVE",
"114 76 OFFCURVE",
"114 200 CURVE SMOOTH",
"114 282 OFFCURVE",
"146 412 OFFCURVE",
"173 436 CURVE SMOOTH",
"186 447 OFFCURVE",
"215 456 OFFCURVE",
"242 456 CURVE SMOOTH",
"319 456 OFFCURVE",
"339 423 OFFCURVE",
"339 302 CURVE SMOOTH",
"339 221 OFFCURVE",
"306 79 OFFCURVE",
"281 62 CURVE SMOOTH",
"269 53 OFFCURVE",
"245 47 OFFCURVE",
"212 47 CURVE SMOOTH"
);
},
{
closed = 1;
nodes = (
"418 321 OFFCURVE",
"440 397 OFFCURVE",
"468 441 CURVE SMOOTH",
"474 451 OFFCURVE",
"496 456 OFFCURVE",
"529 456 CURVE SMOOTH",
"571 456 OFFCURVE",
"595 434 OFFCURVE",
"595 397 CURVE SMOOTH",
"595 310 OFFCURVE",
"551 274 OFFCURVE",
"407 243 CURVE"
);
}
);
width = 676;
},
{
anchors = (
{
name = top;
position = "{416, 494}";
}
);
layerId = "42d03b0b-68f7-4941-bda2-1e253e993363";
paths = (
{
closed = 1;
nodes = (
"256 -12 OFFCURVE",
"302 4 OFFCURVE",
"339 30 CURVE",
"361 5 OFFCURVE",
"402 -10 OFFCURVE",
"460 -10 CURVE SMOOTH",
"543 -10 OFFCURVE",
"635 24 OFFCURVE",
"677 72 CURVE",
"654 112 LINE",
"623 93 OFFCURVE",
"578 78 OFFCURVE",
"549 78 CURVE SMOOTH",
"479 78 OFFCURVE",
"450 102 OFFCURVE",
"450 162 CURVE",
"450 204 LINE",
"638 242 OFFCURVE",
"707 295 OFFCURVE",
"707 403 CURVE SMOOTH",
"707 469 OFFCURVE",
"642 513 OFFCURVE",
"544 513 CURVE SMOOTH",
"501 513 OFFCURVE",
"459 496 OFFCURVE",
"425 463 CURVE",
"388 499 OFFCURVE",
"343 513 OFFCURVE",
"272 513 CURVE SMOOTH",
"127 513 OFFCURVE",
"20 366 OFFCURVE",
"20 169 CURVE SMOOTH",
"20 49 OFFCURVE",
"84 -12 OFFCURVE",
"210 -12 CURVE SMOOTH"
);
},
{
closed = 1;
nodes = (
"192 65 OFFCURVE",
"170 104 OFFCURVE",
"170 191 CURVE SMOOTH",
"170 279 OFFCURVE",
"192 403 OFFCURVE",
"212 430 CURVE SMOOTH",
"215 433 OFFCURVE",
"235 437 OFFCURVE",
"251 437 CURVE SMOOTH",
"301 437 OFFCURVE",
"316 409 OFFCURVE",
"316 317 CURVE SMOOTH",
"316 210 OFFCURVE",
"307 135 OFFCURVE",
"284 73 CURVE",
"283 68 OFFCURVE",
"264 65 OFFCURVE",
"240 65 CURVE SMOOTH"
);
},
{
closed = 1;
nodes = (
"463 342 OFFCURVE",
"486 422 OFFCURVE",
"496 428 CURVE SMOOTH",
"501 432 OFFCURVE",
"519 437 OFFCURVE",
"529 437 CURVE SMOOTH",
"556 437 OFFCURVE",
"568 420 OFFCURVE",
"568 386 CURVE SMOOTH",
"568 319 OFFCURVE",
"548 298 OFFCURVE",
"460 265 CURVE"
);
}
);
width = 712;
}
);
leftKerningGroup = o;
leftMetricsKey = o;
rightKerningGroup = e;
rightMetricsKey = e;
unicode = 0153;
},
{
glyphname = p;
layers = (
{
anchors = (
{
name = bottom;
position = "{65, -163}";
},
{
name = top;
position = "{287, 494}";
}
);
layerId = "0a8077ec-4085-4bbf-a447-43ab7bcde2db";
paths = (
{
closed = 1;
nodes = (
"100 -163 LINE",
"128 16 LINE",
"151 10 OFFCURVE",
"195 0 OFFCURVE",
"236 0 CURVE SMOOTH",
"396 0 OFFCURVE",
"456 271 OFFCURVE",
"456 363 CURVE SMOOTH",
"456 458 OFFCURVE",
"421 513 OFFCURVE",
"336 513 CURVE SMOOTH",
"258 513 OFFCURVE",
"181 415 OFFCURVE",
"183 415 CURVE",
"181 418 LINE",
"187 425 OFFCURVE",
"193 435 OFFCURVE",
"193 447 CURVE SMOOTH",
"193 506 LINE",
"60 487 LINE",
"60 456 LINE",
"140 440 LINE",
"29 -173 LINE"
);
},
{
closed = 1;
nodes = (
"198 51 OFFCURVE",
"155 79 OFFCURVE",
"140 90 CURVE",
"186 389 LINE",
"205 404 OFFCURVE",
"264 449 OFFCURVE",
"315 449 CURVE SMOOTH",
"369 449 OFFCURVE",
"385 410 OFFCURVE",
"385 343 CURVE SMOOTH",
"385 237 OFFCURVE",
"332 92 OFFCURVE",
"306 64 CURVE SMOOTH",
"300 57 OFFCURVE",
"270 51 OFFCURVE",
"249 51 CURVE SMOOTH"
);
}
);
width = 493;
},
{
anchors = (
{
name = bottom;
position = "{82, -174}";
},
{
name = top;
position = "{309, 494}";
}
);
layerId = "42d03b0b-68f7-4941-bda2-1e253e993363";
paths = (
{
closed = 1;
nodes = (
"157 -174 LINE",
"187 14 LINE",
"218 5 OFFCURVE",
"252 0 OFFCURVE",
"289 0 CURVE SMOOTH",
"448 0 OFFCURVE",
"519 238 OFFCURVE",
"519 363 CURVE SMOOTH",
"519 472 OFFCURVE",
"468 513 OFFCURVE",
"402 513 CURVE SMOOTH",
"349 513 OFFCURVE",
"300 479 OFFCURVE",
"246 415 CURVE",
"244 418 LINE",
"253 428 OFFCURVE",
"256 440 OFFCURVE",
"256 455 CURVE SMOOTH",
"256 506 LINE",
"38 486 LINE",
"38 417 LINE",
"112 399 LINE",
"6 -188 LINE"
);
},
{
closed = 1;
nodes = (
"273 88 OFFCURVE",
"239 105 OFFCURVE",
"207 131 CURVE",
"246 360 LINE",
"280 393 OFFCURVE",
"313 417 OFFCURVE",
"338 417 CURVE SMOOTH",
"357 417 OFFCURVE",
"375 402 OFFCURVE",
"375 338 CURVE SMOOTH",
"375 231 OFFCURVE",
"369 135 OFFCURVE",
"341 92 CURVE",
"337 89 OFFCURVE",
"330 88 OFFCURVE",
"320 88 CURVE SMOOTH"
);
}
);
width = 534;
}
);
leftKerningGroup = n;
leftMetricsKey = n;
rightKerningGroup = o;
rightMetricsKey = o;
unicode = 0070;
},
{
glyphname = thorn;
layers = (
{
layerId = "0a8077ec-4085-4bbf-a447-43ab7bcde2db";
paths = (
{
closed = 1;
nodes = (
"170 -166 LINE",
"172 -134 LINE",
"103 -120 LINE",
"123 4 LINE",
"135 -2 OFFCURVE",
"191 -11 OFFCURVE",
"220 -11 CURVE SMOOTH",
"338 -11 OFFCURVE",
"449 166 OFFCURVE",
"449 356 CURVE SMOOTH",
"449 462 OFFCURVE",
"410 513 OFFCURVE",
"329 513 CURVE SMOOTH",
"284 513 OFFCURVE",
"222 472 OFFCURVE",
"182 416 CURVE",
"180 420 LINE",
"191 434 OFFCURVE",
"197 444 OFFCURVE",
"198 451 CURVE",
"224 630 LINE",
"224 697 LINE",
"88 678 LINE",
"88 646 LINE",
"166 630 LINE",
"33 -120 LINE",
"-37 -134 LINE",
"-40 -166 LINE"
);
},
{
closed = 1;
nodes = (
"215 43 OFFCURVE",
"171 52 OFFCURVE",
"133 67 CURVE",
"187 390 LINE",
"227 426 OFFCURVE",
"273 449 OFFCURVE",
"305 449 CURVE SMOOTH",
"357 449 OFFCURVE",
"377 418 OFFCURVE",
"377 335 CURVE SMOOTH",
"377 245 OFFCURVE",
"343 121 OFFCURVE",
"297 53 CURVE",
"291 45 OFFCURVE",
"282 43 OFFCURVE",
"253 43 CURVE"
);
}
);
width = 489;
},
{
layerId = "42d03b0b-68f7-4941-bda2-1e253e993363";
paths = (
{
closed = 1;
nodes = (
"211 -166 LINE",
"222 -102 LINE",
"157 -87 LINE",
"173 18 LINE",
"215 7 OFFCURVE",
"249 3 OFFCURVE",
"284 3 CURVE SMOOTH",
"401 3 OFFCURVE",
"512 180 OFFCURVE",
"512 365 CURVE SMOOTH",
"512 459 OFFCURVE",
"470 513 OFFCURVE",
"394 513 CURVE SMOOTH",
"336 513 OFFCURVE",
"283 484 OFFCURVE",
"236 428 CURVE",
"232 428 LINE",
"235 434 OFFCURVE",
"237 440 OFFCURVE",
"239 447 CURVE",
"265 608 LINE",
"265 710 LINE",
"50 691 LINE",
"50 626 LINE",
"135 608 LINE",
"16 -87 LINE",
"-51 -102 LINE",
"-61 -166 LINE"
);
},
{
closed = 1;
nodes = (
"273 93 OFFCURVE",
"232 105 OFFCURVE",
"191 140 CURVE",
"225 353 LINE",
"272 397 OFFCURVE",
"309 416 OFFCURVE",
"333 416 CURVE SMOOTH",
"357 416 OFFCURVE",
"368 391 OFFCURVE",
"368 340 CURVE SMOOTH",
"368 209 OFFCURVE",
"357 131 OFFCURVE",
"335 97 CURVE",
"335 95 OFFCURVE",
"328 93 OFFCURVE",
"313 93 CURVE SMOOTH"
);
}
);
width = 527;
}
);
leftKerningGroup = l;
leftMetricsKey = "=l-6";
rightKerningGroup = o;
rightMetricsKey = o;
unicode = 00FE;
},
{
glyphname = q;
layers = (
{
anchors = (
{
name = bottom;
position = "{293, -163}";
},
{
name = top;
position = "{266, 494}";
}
);
layerId = "0a8077ec-4085-4bbf-a447-43ab7bcde2db";
paths = (
{
closed = 1;
nodes = (
"327 -163 LINE",
"434 523 LINE",
"407 523 LINE",
"381 485 LINE",
"369 491 OFFCURVE",
"320 513 OFFCURVE",
"268 513 CURVE SMOOTH",
"119 513 OFFCURVE",
"39 275 OFFCURVE",
"39 150 CURVE SMOOTH",
"39 53 OFFCURVE",
"75 -9 OFFCURVE",
"158 -9 CURVE SMOOTH",
"226 -9 OFFCURVE",
"282 45 OFFCURVE",
"316 111 CURVE",
"319 111 LINE",
"310 94 OFFCURVE",
"302 79 OFFCURVE",
"296 46 CURVE SMOOTH",
"257 -173 LINE"
);
},
{
closed = 1;
nodes = (
"124 41 OFFCURVE",
"110 100 OFFCURVE",
"110 171 CURVE SMOOTH",
"110 276 OFFCURVE",
"149 383 OFFCURVE",
"189 441 CURVE SMOOTH",
"194 447 OFFCURVE",
"207 458 OFFCURVE",
"226 458 CURVE SMOOTH",
"277 458 OFFCURVE",
"323 444 OFFCURVE",
"357 423 CURVE",
"312 147 LINE",
"283 104 OFFCURVE",
"230 41 OFFCURVE",
"178 41 CURVE SMOOTH"
);
}
);
width = 465;
},
{
anchors = (
{
name = bottom;
position = "{307, -174}";
},
{
name = top;
position = "{288, 494}";
}
);
layerId = "42d03b0b-68f7-4941-bda2-1e253e993363";
paths = (
{
closed = 1;
nodes = (
"382 -174 LINE",
"493 515 LINE",
"406 515 LINE",
"381 473 LINE",
"350 492 OFFCURVE",
"300 513 OFFCURVE",
"248 513 CURVE SMOOTH",
"95 513 OFFCURVE",
"16 280 OFFCURVE",
"16 150 CURVE SMOOTH",
"16 53 OFFCURVE",
"55 -9 OFFCURVE",
"135 -9 CURVE SMOOTH",
"203 -9 OFFCURVE",
"257 53 OFFCURVE",
"296 108 CURVE",
"299 106 LINE",
"286 91 OFFCURVE",
"269 43 OFFCURVE",
"263 4 CURVE SMOOTH",
"231 -188 LINE"
);
},
{
closed = 1;
nodes = (
"169 93 OFFCURVE",
"160 126 OFFCURVE",
"160 174 CURVE SMOOTH",
"160 284 OFFCURVE",
"177 375 OFFCURVE",
"200 422 CURVE",
"205 426 OFFCURVE",
"208 428 OFFCURVE",
"225 428 CURVE SMOOTH",
"262 428 OFFCURVE",
"299 398 OFFCURVE",
"329 364 CURVE",
"293 164 LINE",
"271 134 OFFCURVE",
"233 93 OFFCURVE",
"193 93 CURVE SMOOTH"
);
}
);
width = 500;
}
);
leftKerningGroup = o;
leftMetricsKey = o;
rightKerningGroup = q;
unicode = 0071;
},
{
glyphname = r;
layers = (
{
anchors = (
{
name = bottom;
position = "{98, 0}";
},
{
name = top;
position = "{230, 494}";
}
);
layerId = "0a8077ec-4085-4bbf-a447-43ab7bcde2db";
paths = (
{
closed = 1;
nodes = (
"132 0 LINE",
"190 378 LINE",
"201 396 OFFCURVE",
"233 432 OFFCURVE",
"301 432 CURVE SMOOTH",
"343 432 LINE",
"347 437 OFFCURVE",
"355 450 OFFCURVE",
"355 472 CURVE SMOOTH",
"355 505 OFFCURVE",
"339 513 OFFCURVE",
"321 513 CURVE SMOOTH",
"263 513 OFFCURVE",
"211 453 OFFCURVE",
"194 412 CURVE",
"190 412 LINE",
"195 422 OFFCURVE",
"200 445 OFFCURVE",
"200 457 CURVE SMOOTH",
"200 507 LINE",
"60 488 LINE",
"60 457 LINE",
"140 440 LINE",
"63 0 LINE"
);
}
);
width = 314;
},
{
anchors = (
{
name = bottom;
position = "{111, 0}";
},
{
name = top;
position = "{259, 494}";
}
);
layerId = "42d03b0b-68f7-4941-bda2-1e253e993363";
paths = (
{
closed = 1;
nodes = (
"185 0 LINE",
"240 356 LINE",
"261 377 OFFCURVE",
"280 384 OFFCURVE",
"334 384 CURVE SMOOTH",
"380 384 LINE",
"398 400 OFFCURVE",
"412 437 OFFCURVE",
"412 464 CURVE SMOOTH",
"412 494 OFFCURVE",
"399 513 OFFCURVE",
"360 513 CURVE SMOOTH",
"315 513 OFFCURVE",
"263 453 OFFCURVE",
"246 412 CURVE",
"242 412 LINE",
"247 425 OFFCURVE",
"252 442 OFFCURVE",
"252 457 CURVE SMOOTH",
"252 504 LINE",
"37 485 LINE",
"37 416 LINE",
"111 399 LINE",
"35 0 LINE"
);
}
);
width = 372;
}
);
leftKerningGroup = n;
leftMetricsKey = n;
rightKerningGroup = r;
unicode = 0072;
},
{
glyphname = s;
layers = (
{
anchors = (
{
name = bottom;
position = "{184, 0}";
},
{
name = top;
position = "{235, 494}";
}
);
layerId = "0a8077ec-4085-4bbf-a447-43ab7bcde2db";
paths = (
{
closed = 1;
nodes = (
"253 -9 OFFCURVE",
"336 60 OFFCURVE",
"336 138 CURVE SMOOTH",
"336 206 OFFCURVE",
"281 250 OFFCURVE",
"229 288 CURVE SMOOTH",
"186 319 OFFCURVE",
"133 357 OFFCURVE",
"133 398 CURVE SMOOTH",
"133 445 OFFCURVE",
"164 463 OFFCURVE",
"240 463 CURVE SMOOTH",
"259 463 OFFCURVE",
"282 458 OFFCURVE",
"295 452 CURVE",
"303 359 LINE",
"323 359 LINE",
"349 369 OFFCURVE",
"367 396 OFFCURVE",
"367 427 CURVE SMOOTH",
"367 479 OFFCURVE",
"316 513 OFFCURVE",
"235 513 CURVE SMOOTH",
"151 513 OFFCURVE",
"69 450 OFFCURVE",
"69 386 CURVE SMOOTH",
"69 315 OFFCURVE",
"127 272 OFFCURVE",
"166 244 CURVE SMOOTH",
"213 211 OFFCURVE",
"269 171 OFFCURVE",
"269 130 CURVE SMOOTH",
"269 64 OFFCURVE",
"240 38 OFFCURVE",
"164 38 CURVE SMOOTH",
"139 38 OFFCURVE",
"108 45 OFFCURVE",
"91 56 CURVE",
"83 154 LINE",
"63 154 LINE SMOOTH",
"50 154 OFFCURVE",
"20 106 OFFCURVE",
"20 83 CURVE SMOOTH",
"20 21 OFFCURVE",
"64 -9 OFFCURVE",
"159 -9 CURVE SMOOTH"
);
}
);
width = 400;
},
{
anchors = (
{
name = bottom;
position = "{195, 0}";
},
{
name = top;
position = "{245, 494}";
}
);
layerId = "42d03b0b-68f7-4941-bda2-1e253e993363";
paths = (
{
closed = 1;
nodes = (
"293 -12 OFFCURVE",
"378 56 OFFCURVE",
"378 152 CURVE SMOOTH",
"378 208 OFFCURVE",
"359 247 OFFCURVE",
"262 316 CURVE SMOOTH",
"180 374 OFFCURVE",
"165 389 OFFCURVE",
"165 406 CURVE SMOOTH",
"165 422 OFFCURVE",
"182 434 OFFCURVE",
"215 434 CURVE SMOOTH",
"244 434 OFFCURVE",
"278 430 OFFCURVE",
"297 422 CURVE",
"307 332 LINE",
"361 332 LINE",
"387 350 OFFCURVE",
"411 393 OFFCURVE",
"411 421 CURVE SMOOTH",
"411 484 OFFCURVE",
"365 514 OFFCURVE",
"272 514 CURVE SMOOTH",
"144 514 OFFCURVE",
"57 444 OFFCURVE",
"57 347 CURVE SMOOTH",
"57 295 OFFCURVE",
"77 262 OFFCURVE",
"196 182 CURVE SMOOTH",
"265 135 OFFCURVE",
"269 122 OFFCURVE",
"269 100 CURVE SMOOTH",
"269 83 OFFCURVE",
"258 69 OFFCURVE",
"206 69 CURVE SMOOTH",
"164 69 OFFCURVE",
"127 76 OFFCURVE",
"120 83 CURVE",
"111 182 LINE",
"58 182 LINE SMOOTH",
"42 182 OFFCURVE",
"3 110 OFFCURVE",
"3 74 CURVE SMOOTH",
"3 13 OFFCURVE",
"52 -12 OFFCURVE",
"170 -12 CURVE SMOOTH"
);
}
);
width = 420;
}
);
leftKerningGroup = s;
rightKerningGroup = s;
unicode = 0073;
},
{
glyphname = saltillo;
layers = (
{
layerId = "0a8077ec-4085-4bbf-a447-43ab7bcde2db";
paths = (
{
closed = 1;
nodes = (
"79 414 LINE",
"140 598 LINE SMOOTH",
"149 626 OFFCURVE",
"163 673 OFFCURVE",
"163 691 CURVE SMOOTH",
"163 702 OFFCURVE",
"160 717 OFFCURVE",
"136 717 CURVE SMOOTH",
"123 717 OFFCURVE",
"106 714 OFFCURVE",
"83 705 CURVE",
"42 414 LINE"
);
}
);
width = 120;
},
{
layerId = "42d03b0b-68f7-4941-bda2-1e253e993363";
paths = (
{
closed = 1;
nodes = (
"101 414 LINE",
"154 541 LINE SMOOTH",
"169 578 OFFCURVE",
"200 659 OFFCURVE",
"200 690 CURVE SMOOTH",
"200 713 OFFCURVE",
"182 722 OFFCURVE",
"144 722 CURVE SMOOTH",
"122 722 OFFCURVE",
"98 715 OFFCURVE",
"80 706 CURVE",
"39 414 LINE"
);
}
);
width = 153;
}
);
leftKerningGroup = saltillo;
rightKerningGroup = saltillo;
unicode = A78C;
},
{
glyphname = germandbls;
layers = (
{
layerId = "0a8077ec-4085-4bbf-a447-43ab7bcde2db";
paths = (
{
closed = 1;
nodes = (
"82 -163 LINE",
"182 534 LINE SMOOTH",
"192 601 OFFCURVE",
"216 645 OFFCURVE",
"307 645 CURVE SMOOTH",
"372 645 OFFCURVE",
"405 607 OFFCURVE",
"405 556 CURVE SMOOTH",
"405 462 OFFCURVE",
"364 430 OFFCURVE",
"262 377 CURVE",
"254 329 LINE",
"387 247 OFFCURVE",
"423 198 OFFCURVE",
"423 145 CURVE SMOOTH",
"423 54 OFFCURVE",
"370 38 OFFCURVE",
"330 38 CURVE SMOOTH",
"283 38 OFFCURVE",
"258 54 OFFCURVE",
"255 56 CURVE",
"246 154 LINE",
"226 154 LINE",
"202 142 OFFCURVE",
"184 112 OFFCURVE",
"184 82 CURVE SMOOTH",
"184 10 OFFCURVE",
"256 -9 OFFCURVE",
"328 -9 CURVE SMOOTH",
"414 -9 OFFCURVE",
"495 39 OFFCURVE",
"495 159 CURVE SMOOTH",
"495 232 OFFCURVE",
"451 276 OFFCURVE",
"325 365 CURVE",
"383 399 OFFCURVE",
"470 449 OFFCURVE",
"470 559 CURVE SMOOTH",
"470 660 OFFCURVE",
"400 701 OFFCURVE",
"318 701 CURVE SMOOTH",
"223 701 OFFCURVE",
"134 626 OFFCURVE",
"115 498 CURVE SMOOTH",
"17 -173 LINE"
);
}
);
width = 543;
},
{
layerId = "42d03b0b-68f7-4941-bda2-1e253e993363";
paths = (
{
closed = 1;
nodes = (
"143 -174 LINE",
"235 486 LINE SMOOTH",
"247 569 OFFCURVE",
"259 626 OFFCURVE",
"335 626 CURVE SMOOTH",
"378 626 OFFCURVE",
"404 594 OFFCURVE",
"404 556 CURVE SMOOTH",
"404 471 OFFCURVE",
"387 441 OFFCURVE",
"312 402 CURVE",
"288 246 LINE",
"431 142 OFFCURVE",
"466 116 OFFCURVE",
"466 94 CURVE SMOOTH",
"466 70 OFFCURVE",
"437 69 OFFCURVE",
"401 69 CURVE SMOOTH",
"339 69 OFFCURVE",
"324 82 OFFCURVE",
"322 84 CURVE",
"313 182 LINE",
"260 182 LINE",
"229 156 OFFCURVE",
"206 111 OFFCURVE",
"206 74 CURVE SMOOTH",
"206 2 OFFCURVE",
"270 -12 OFFCURVE",
"355 -12 CURVE SMOOTH",
"469 -12 OFFCURVE",
"570 40 OFFCURVE",
"570 153 CURVE SMOOTH",
"570 220 OFFCURVE",
"547 238 OFFCURVE",
"391 354 CURVE",
"490 394 OFFCURVE",
"559 439 OFFCURVE",
"559 559 CURVE SMOOTH",
"559 621 OFFCURVE",
"498 701 OFFCURVE",
"361 701 CURVE SMOOTH",
"187 701 OFFCURVE",
"114 590 OFFCURVE",
"87 418 CURVE SMOOTH",
"-8 -187 LINE"
);
}
);
width = 597;
}
);
rightKerningGroup = s;
rightMetricsKey = "=s-15";
unicode = 00DF;
},
{
glyphname = longs;
layers = (
{
anchors = (
{
name = bottom;
position = "{73, -158}";
},
{
name = top;
position = "{199, 648}";
}
);
layerId = "0a8077ec-4085-4bbf-a447-43ab7bcde2db";
paths = (
{
closed = 1;
nodes = (
"108 -163 LINE",
"208 548 LINE SMOOTH",
"212 575 OFFCURVE",
"227 611 OFFCURVE",
"246 630 CURVE SMOOTH",
"253 637 OFFCURVE",
"277 640 OFFCURVE",
"299 640 CURVE SMOOTH",
"367 640 LINE",
"370 643 OFFCURVE",
"379 654 OFFCURVE",
"379 679 CURVE SMOOTH",
"379 703 OFFCURVE",
"370 711 OFFCURVE",
"345 711 CURVE SMOOTH",
"229 711 OFFCURVE",
"156 630 OFFCURVE",
"140 507 CURVE",
"73 507 LINE",
"57 484 LINE",
"57 454 LINE",
"134 454 LINE",
"39 -173 LINE"
);
}
);
width = 273;
},
{
anchors = (
{
name = bottom;
position = "{83, -176}";
},
{
name = top;
position = "{211, 648}";
}
);
layerId = "42d03b0b-68f7-4941-bda2-1e253e993363";
paths = (
{
closed = 1;
nodes = (
"159 -174 LINE",
"250 496 LINE SMOOTH",
"258 553 OFFCURVE",
"266 577 OFFCURVE",
"269 580 CURVE SMOOTH",
"280 590 OFFCURVE",
"308 594 OFFCURVE",
"360 594 CURVE SMOOTH",
"427 594 LINE",
"446 614 OFFCURVE",
"454 639 OFFCURVE",
"454 651 CURVE SMOOTH",
"454 692 OFFCURVE",
"433 711 OFFCURVE",
"387 711 CURVE SMOOTH",
"267 711 OFFCURVE",
"180 638 OFFCURVE",
"128 507 CURVE",
"52 507 LINE",
"36 473 LINE",
"36 431 LINE",
"108 431 LINE",
"6 -188 LINE"
);
}
);
width = 328;
}
);
leftKerningGroup = f;
leftMetricsKey = f;
rightKerningGroup = f;
rightMetricsKey = f;
unicode = 017F;
},
{
glyphname = t;
layers = (
{
anchors = (
{
name = bottom;
position = "{163, 0}";
},
{
name = center;
position = "{186, 247}";
},
{
name = top;
position = "{186, 494}";
},
{
name = topright;
position = "{268, 534}";
}
);
layerId = "0a8077ec-4085-4bbf-a447-43ab7bcde2db";
paths = (
{
closed = 1;
nodes = (
"195 -3 OFFCURVE",
"262 25 OFFCURVE",
"269 29 CURVE",
"269 62 LINE",
"137 62 LINE",
"196 455 LINE",
"319 455 LINE",
"326 507 LINE",
"204 507 LINE",
"223 617 LINE",
"163 607 LINE",
"145 507 LINE",
"57 507 LINE",
"49 455 LINE",
"134 455 LINE",
"76 107 LINE SMOOTH",
"74 93 OFFCURVE",
"71 72 OFFCURVE",
"71 62 CURVE SMOOTH",
"71 16 OFFCURVE",
"88 -3 OFFCURVE",
"142 -3 CURVE SMOOTH"
);
}
);
width = 303;
},
{
anchors = (
{
name = bottom;
position = "{186, 0}";
},
{
name = center;
position = "{202, 247}";
},
{
name = top;
position = "{202, 494}";
},
{
name = topright;
position = "{288, 534}";
}
);
layerId = "42d03b0b-68f7-4941-bda2-1e253e993363";
paths = (
{
closed = 1;
nodes = (
"262 -11 OFFCURVE",
"321 13 OFFCURVE",
"328 16 CURVE",
"328 89 LINE",
"200 89 LINE",
"251 431 LINE",
"374 431 LINE",
"385 507 LINE",
"263 507 LINE",
"286 639 LINE",
"148 622 LINE",
"125 507 LINE",
"37 507 LINE",
"27 431 LINE",
"113 431 LINE",
"56 99 LINE SMOOTH",
"54 85 OFFCURVE",
"51 64 OFFCURVE",
"51 54 CURVE SMOOTH",
"51 8 OFFCURVE",
"82 -11 OFFCURVE",
"164 -11 CURVE SMOOTH"
);
}
);
width = 343;
}
);
leftKerningGroup = t;
rightKerningGroup = t;
unicode = 0074;
},
{
glyphname = tbar;
layers = (
{
components = (
{
alignment = -1;
name = t;
}
);
layerId = "0a8077ec-4085-4bbf-a447-43ab7bcde2db";
paths = (
{
closed = 1;
nodes = (
"296 281 LINE",
"302 322 LINE",
"44 322 LINE",
"38 281 LINE"
);
}
);
width = 303;
},
{
components = (
{
alignment = -1;
name = t;
}
);
layerId = "42d03b0b-68f7-4941-bda2-1e253e993363";
paths = (
{
closed = 1;
nodes = (
"352 250 LINE",
"363 324 LINE",
"22 324 LINE",
"11 250 LINE"
);
}
);
width = 343;
}
);
leftKerningGroup = t;
leftMetricsKey = t;
rightKerningGroup = t;
rightMetricsKey = t;
unicode = 0167;
},
{
glyphname = tcaron;
layers = (
{
background = {
paths = (
{
closed = 1;
nodes = (
"200 -3 OFFCURVE",
"267 25 OFFCURVE",
"274 29 CURVE",
"274 62 LINE",
"142 62 LINE",
"201 453 LINE",
"324 453 LINE",
"331 507 LINE",
"209 507 LINE",
"228 617 LINE",
"168 607 LINE",
"150 507 LINE",
"62 507 LINE",
"54 453 LINE",
"139 453 LINE",
"81 107 LINE SMOOTH",
"79 93 OFFCURVE",
"76 72 OFFCURVE",
"76 62 CURVE SMOOTH",
"76 16 OFFCURVE",
"93 -3 OFFCURVE",
"146 -3 CURVE SMOOTH"
);
},
{
closed = 1;
nodes = (
"324 565 OFFCURVE",
"381 614 OFFCURVE",
"381 683 CURVE SMOOTH",
"381 710 OFFCURVE",
"366 727 OFFCURVE",
"342 727 CURVE SMOOTH",
"316 727 OFFCURVE",
"304 712 OFFCURVE",
"300 706 CURVE",
"313 689 OFFCURVE",
"315 679 OFFCURVE",
"315 663 CURVE SMOOTH",
"315 611 OFFCURVE",
"289 572 OFFCURVE",
"286 568 CURVE",
"304 557 LINE"
);
}
);
};
components = (
{
name = t;
},
{
name = caroncomb.alt;
transform = "{1, 0, 0, 1, 233, 40}";
}
);
layerId = "0a8077ec-4085-4bbf-a447-43ab7bcde2db";
width = 303;
},
{
background = {
paths = (
{
closed = 1;
nodes = (
"261 -11 OFFCURVE",
"320 13 OFFCURVE",
"327 16 CURVE",
"327 89 LINE",
"199 89 LINE",
"251 431 LINE",
"374 431 LINE",
"384 507 LINE",
"262 507 LINE",
"285 639 LINE",
"148 622 LINE",
"125 507 LINE",
"37 507 LINE",
"26 431 LINE",
"112 431 LINE",
"56 99 LINE SMOOTH",
"54 85 OFFCURVE",
"51 64 OFFCURVE",
"51 54 CURVE SMOOTH",
"51 8 OFFCURVE",
"82 -11 OFFCURVE",
"164 -11 CURVE SMOOTH"
);
},
{
closed = 1;
nodes = (
"376 562 OFFCURVE",
"431 621 OFFCURVE",
"431 680 CURVE SMOOTH",
"431 710 OFFCURVE",
"416 736 OFFCURVE",
"371 736 CURVE SMOOTH",
"345 736 OFFCURVE",
"329 720 OFFCURVE",
"318 700 CURVE",
"323 692 OFFCURVE",
"328 669 OFFCURVE",
"328 650 CURVE SMOOTH",
"328 605 OFFCURVE",
"300 576 OFFCURVE",
"297 573 CURVE",
"323 539 LINE"
);
}
);
};
components = (
{
name = t;
},
{
name = caroncomb.alt;
transform = "{1, 0, 0, 1, 253, 40}";
}
);
layerId = "42d03b0b-68f7-4941-bda2-1e253e993363";
width = 343;
}
);
leftKerningGroup = t;
rightKerningGroup = t;
unicode = 0165;
},
{
glyphname = tcedilla;
layers = (
{
background = {
paths = (
{
closed = 1;
nodes = (
"160 -185 OFFCURVE",
"224 -174 OFFCURVE",
"224 -95 CURVE SMOOTH",
"224 -76 OFFCURVE",
"213 -61 OFFCURVE",
"197 -51 CURVE SMOOTH",
"163 -29 LINE",
"163 -2 LINE",
"214 4 OFFCURVE",
"268 26 OFFCURVE",
"274 29 CURVE",
"274 62 LINE",
"142 62 LINE",
"201 453 LINE",
"324 453 LINE",
"331 507 LINE",
"209 507 LINE",
"228 617 LINE",
"168 607 LINE",
"150 507 LINE",
"62 507 LINE",
"54 453 LINE",
"139 453 LINE",
"81 107 LINE SMOOTH",
"79 93 OFFCURVE",
"76 72 OFFCURVE",
"76 62 CURVE SMOOTH",
"76 23 OFFCURVE",
"87 4 OFFCURVE",
"123 -1 CURVE",
"87 -49 LINE",
"87 -67 LINE",
"140 -95 LINE",
"151 -102 OFFCURVE",
"163 -111 OFFCURVE",
"163 -122 CURVE SMOOTH",
"163 -140 OFFCURVE",
"147 -147 OFFCURVE",
"113 -147 CURVE SMOOTH",
"82 -147 OFFCURVE",
"70 -141 OFFCURVE",
"57 -131 CURVE",
"38 -156 LINE",
"53 -168 OFFCURVE",
"79 -185 OFFCURVE",
"115 -185 CURVE SMOOTH"
);
}
);
};
components = (
{
name = t;
},
{
name = cedillacomb;
transform = "{1, 0, 0, 1, 101, 0}";
}
);
layerId = "0a8077ec-4085-4bbf-a447-43ab7bcde2db";
width = 303;
},
{
background = {
paths = (
{
closed = 1;
nodes = (
"234 -196 OFFCURVE",
"276 -166 OFFCURVE",
"276 -117 CURVE SMOOTH",
"276 -79 OFFCURVE",
"249 -61 OFFCURVE",
"217 -45 CURVE SMOOTH",
"183 -28 LINE",
"183 -10 LINE",
"269 -7 OFFCURVE",
"327 16 OFFCURVE",
"327 16 CURVE",
"327 89 LINE",
"199 89 LINE",
"251 431 LINE",
"374 431 LINE",
"384 507 LINE",
"262 507 LINE",
"285 639 LINE",
"148 622 LINE",
"125 507 LINE",
"37 507 LINE",
"26 431 LINE",
"112 431 LINE",
"56 99 LINE SMOOTH",
"54 85 OFFCURVE",
"51 64 OFFCURVE",
"51 54 CURVE SMOOTH",
"51 17 OFFCURVE",
"72 -2 OFFCURVE",
"126 -9 CURVE",
"101 -52 LINE",
"101 -78 LINE",
"146 -100 LINE",
"166 -110 OFFCURVE",
"169 -114 OFFCURVE",
"169 -122 CURVE SMOOTH",
"169 -127 OFFCURVE",
"166 -133 OFFCURVE",
"160 -133 CURVE SMOOTH",
"119 -133 OFFCURVE",
"99 -123 OFFCURVE",
"79 -117 CURVE",
"51 -170 LINE",
"82 -190 OFFCURVE",
"120 -196 OFFCURVE",
"179 -196 CURVE SMOOTH"
);
}
);
};
components = (
{
name = t;
},
{
name = cedillacomb;
transform = "{1, 0, 0, 1, 111, 0}";
}
);
layerId = "42d03b0b-68f7-4941-bda2-1e253e993363";
width = 343;
}
);
leftKerningGroup = t;
rightKerningGroup = t;
unicode = 0163;
},
{
glyphname = u;
layers = (
{
anchors = (
{
name = bottom;
position = "{224, 0}";
},
{
name = ogonek;
position = "{416, 0}";
},
{
name = top;
position = "{304, 494}";
},
{
name = topright;
position = "{513, 494}";
}
);
layerId = "0a8077ec-4085-4bbf-a447-43ab7bcde2db";
paths = (
{
closed = 1;
nodes = (
"244 -5 OFFCURVE",
"315 75 OFFCURVE",
"339 105 CURVE",
"342 103 LINE",
"326 81 OFFCURVE",
"318 65 OFFCURVE",
"318 45 CURVE SMOOTH",
"318 10 OFFCURVE",
"335 -4 OFFCURVE",
"373 -4 CURVE SMOOTH",
"414 -4 OFFCURVE",
"450 20 OFFCURVE",
"460 27 CURVE",
"460 61 LINE",
"384 61 LINE",
"462 514 LINE",
"395 502 LINE",
"333 141 LINE",
"306 116 OFFCURVE",
"239 56 OFFCURVE",
"185 56 CURVE SMOOTH",
"153 56 OFFCURVE",
"143 73 OFFCURVE",
"143 103 CURVE SMOOTH",
"143 120 OFFCURVE",
"145 135 OFFCURVE",
"147 148 CURVE SMOOTH",
"192 441 LINE",
"192 507 LINE",
"52 488 LINE",
"52 456 LINE",
"131 439 LINE",
"79 144 LINE SMOOTH",
"76 125 OFFCURVE",
"72 99 OFFCURVE",
"72 77 CURVE SMOOTH",
"72 12 OFFCURVE",
"106 -5 OFFCURVE",
"148 -5 CURVE SMOOTH"
);
}
);
width = 518;
},
{
anchors = (
{
name = bottom;
position = "{243, 0}";
},
{
name = ogonek;
position = "{469, 0}";
},
{
name = top;
position = "{323, 494}";
},
{
name = topright;
position = "{550, 494}";
}
);
layerId = "42d03b0b-68f7-4941-bda2-1e253e993363";
paths = (
{
closed = 1;
nodes = (
"217 -13 OFFCURVE",
"292 74 OFFCURVE",
"319 105 CURVE",
"322 103 LINE",
"303 81 OFFCURVE",
"299 60 OFFCURVE",
"299 50 CURVE SMOOTH",
"299 10 OFFCURVE",
"324 -7 OFFCURVE",
"379 -7 CURVE SMOOTH",
"434 -7 OFFCURVE",
"480 6 OFFCURVE",
"516 26 CURVE",
"516 95 LINE",
"448 95 LINE",
"515 508 LINE",
"375 497 LINE",
"315 159 LINE",
"291 132 OFFCURVE",
"245 94 OFFCURVE",
"219 94 CURVE SMOOTH",
"203 94 OFFCURVE",
"196 103 OFFCURVE",
"196 118 CURVE SMOOTH",
"196 129 OFFCURVE",
"204 180 OFFCURVE",
"207 198 CURVE SMOOTH",
"247 421 LINE",
"247 510 LINE",
"32 491 LINE",
"32 422 LINE",
"105 405 LINE",
"65 180 LINE SMOOTH",
"61 159 OFFCURVE",
"53 102 OFFCURVE",
"53 78 CURVE SMOOTH",
"53 34 OFFCURVE",
"73 -13 OFFCURVE",
"137 -13 CURVE SMOOTH"
);
}
);
width = 555;
}
);
leftKerningGroup = u;
rightKerningGroup = u;
unicode = 0075;
},
{
glyphname = v;
layers = (
{
anchors = (
{
name = bottom;
position = "{169, 0}";
},
{
name = top;
position = "{239, 494}";
}
);
layerId = "0a8077ec-4085-4bbf-a447-43ab7bcde2db";
paths = (
{
closed = 1;
nodes = (
"169 1 LINE",
"296 147 OFFCURVE",
"418 372 OFFCURVE",
"418 460 CURVE SMOOTH",
"418 487 OFFCURVE",
"373 512 OFFCURVE",
"294 515 CURVE",
"277 483 LINE",
"346 434 LINE",
"320 315 OFFCURVE",
"261 190 OFFCURVE",
"171 66 CURVE",
"165 66 LINE",
"165 136 LINE",
"145 503 LINE",
"1 490 LINE",
"1 459 LINE",
"76 440 LINE",
"104 101 LINE",
"104 -4 LINE"
);
}
);
width = 406;
},
{
anchors = (
{
name = bottom;
position = "{184, 0}";
},
{
name = top;
position = "{254, 494}";
}
);
layerId = "42d03b0b-68f7-4941-bda2-1e253e993363";
paths = (
{
closed = 1;
nodes = (
"224 -5 LINE",
"351 134 OFFCURVE",
"474 361 OFFCURVE",
"474 454 CURVE SMOOTH",
"474 514 OFFCURVE",
"362 531 OFFCURVE",
"312 512 CURVE",
"283 456 LINE",
"351 419 LINE",
"342 297 OFFCURVE",
"325 251 OFFCURVE",
"223 93 CURVE",
"216 93 LINE",
"220 136 LINE",
"193 514 LINE",
"-4 498 LINE",
"-4 427 LINE",
"67 408 LINE",
"91 128 LINE",
"91 -17 LINE"
);
}
);
width = 446;
}
);
leftKerningGroup = v;
rightKerningGroup = v;
unicode = 0076;
},
{
glyphname = w;
layers = (
{
anchors = (
{
name = bottom;
position = "{285, 0}";
},
{
name = top;
position = "{355, 494}";
}
);
guideLines = (
{
position = "{5, 506}";
}
);
layerId = "0a8077ec-4085-4bbf-a447-43ab7bcde2db";
paths = (
{
closed = 1;
nodes = (
"165 0 LINE",
"231 83 OFFCURVE",
"294 185 OFFCURVE",
"331 264 CURVE",
"342 101 LINE",
"342 -5 LINE",
"407 0 LINE",
"560 174 OFFCURVE",
"652 384 OFFCURVE",
"652 460 CURVE SMOOTH",
"652 493 OFFCURVE",
"583 512 OFFCURVE",
"528 515 CURVE",
"511 483 LINE",
"584 432 LINE",
"566 323 OFFCURVE",
"494 189 OFFCURVE",
"410 71 CURVE",
"399 71 LINE",
"399 136 LINE",
"384 360 LINE",
"397 394 OFFCURVE",
"405 430 OFFCURVE",
"405 453 CURVE SMOOTH",
"405 479 OFFCURVE",
"403 503 OFFCURVE",
"360 503 CURVE SMOOTH",
"352 503 OFFCURVE",
"322 502 OFFCURVE",
"304 497 CURVE",
"320 340 LINE",
"300 278 OFFCURVE",
"239 163 OFFCURVE",
"172 71 CURVE",
"162 71 LINE",
"162 136 LINE",
"139 506 LINE",
"1 490 LINE",
"1 459 LINE",
"76 440 LINE",
"105 101 LINE",
"105 -5 LINE"
);
}
);
width = 640;
},
{
anchors = (
{
name = bottom;
position = "{311, 0}";
},
{
name = top;
position = "{381, 494}";
}
);
guideLines = (
{
position = "{11, 506}";
}
);
layerId = "42d03b0b-68f7-4941-bda2-1e253e993363";
paths = (
{
closed = 1;
nodes = (
"225 -5 LINE",
"258 28 OFFCURVE",
"303 98 OFFCURVE",
"337 163 CURVE",
"340 71 LINE",
"332 -16 LINE",
"457 -5 LINE",
"609 168 OFFCURVE",
"712 376 OFFCURVE",
"712 454 CURVE SMOOTH",
"712 515 OFFCURVE",
"604 532 OFFCURVE",
"550 512 CURVE",
"522 456 LINE",
"590 419 LINE",
"582 300 OFFCURVE",
"545 221 OFFCURVE",
"456 91 CURVE",
"453 91 LINE",
"454 135 LINE",
"444 336 LINE",
"466 392 OFFCURVE",
"477 442 OFFCURVE",
"477 465 CURVE SMOOTH",
"477 514 OFFCURVE",
"414 521 OFFCURVE",
"385 521 CURVE SMOOTH",
"353 521 OFFCURVE",
"324 516 OFFCURVE",
"311 510 CURVE",
"328 299 LINE",
"303 226 OFFCURVE",
"272 157 OFFCURVE",
"225 91 CURVE",
"222 91 LINE",
"222 133 LINE",
"198 514 LINE",
"-4 498 LINE",
"-4 427 LINE",
"71 407 LINE",
"90 128 LINE",
"90 -16 LINE"
);
}
);
width = 684;
}
);
leftKerningGroup = v;
leftMetricsKey = v;
rightKerningGroup = v;
rightMetricsKey = v;
unicode = 0077;
},
{
glyphname = x;
layers = (
{
anchors = (
{
name = bottom;
position = "{146, 0}";
},
{
name = top;
position = "{216, 494}";
}
);
layerId = "0a8077ec-4085-4bbf-a447-43ab7bcde2db";
paths = (
{
closed = 1;
nodes = (
"329 -3 OFFCURVE",
"369 24 OFFCURVE",
"373 27 CURVE",
"373 61 LINE",
"282 61 LINE",
"139 513 LINE",
"17 496 LINE",
"17 465 LINE",
"96 448 LINE",
"220 57 LINE SMOOTH",
"236 8 OFFCURVE",
"249 -3 OFFCURVE",
"288 -3 CURVE SMOOTH"
);
},
{
closed = 1;
nodes = (
"9 -8 OFFCURVE",
"46 0 OFFCURVE",
"82 60 CURVE SMOOTH",
"178 222 LINE",
"163 266 LINE",
"54 105 LINE SMOOTH",
"29 67 OFFCURVE",
"24 61 OFFCURVE",
"0 61 CURVE SMOOTH",
"-44 61 LINE",
"-50 55 OFFCURVE",
"-54 43 OFFCURVE",
"-54 33 CURVE SMOOTH",
"-54 11 OFFCURVE",
"-44 -8 OFFCURVE",
"-8 -8 CURVE SMOOTH"
);
},
{
closed = 1;
nodes = (
"309 402 LINE SMOOTH",
"331 436 OFFCURVE",
"345 444 OFFCURVE",
"375 444 CURVE SMOOTH",
"412 444 LINE",
"414 447 OFFCURVE",
"421 459 OFFCURVE",
"421 479 CURVE SMOOTH",
"421 500 OFFCURVE",
"409 513 OFFCURVE",
"386 513 CURVE SMOOTH",
"342 513 OFFCURVE",
"313 493 OFFCURVE",
"274 427 CURVE SMOOTH",
"197 296 LINE",
"212 255 LINE"
);
}
);
width = 371;
},
{
anchors = (
{
name = bottom;
position = "{193, 0}";
},
{
name = top;
position = "{263, 494}";
}
);
background = {
paths = (
{
closed = 0;
nodes = (
"301 450 LINE SMOOTH"
);
}
);
};
layerId = "42d03b0b-68f7-4941-bda2-1e253e993363";
paths = (
{
closed = 1;
nodes = (
"390 -10 OFFCURVE",
"437 23 OFFCURVE",
"442 27 CURVE",
"442 95 LINE",
"343 95 LINE",
"211 512 LINE",
"22 496 LINE",
"22 426 LINE",
"104 405 LINE",
"220 38 LINE SMOOTH",
"230 8 OFFCURVE",
"252 -10 OFFCURVE",
"311 -10 CURVE SMOOTH"
);
},
{
closed = 1;
nodes = (
"76 -10 OFFCURVE",
"106 11 OFFCURVE",
"138 68 CURVE SMOOTH",
"194 169 LINE",
"169 242 LINE",
"100 141 LINE SMOOTH",
"78 108 OFFCURVE",
"66 95 OFFCURVE",
"34 95 CURVE SMOOTH",
"-17 95 LINE",
"-30 82 OFFCURVE",
"-40 59 OFFCURVE",
"-40 42 CURVE SMOOTH",
"-40 10 OFFCURVE",
"-14 -10 OFFCURVE",
"27 -10 CURVE SMOOTH"
);
},
{
closed = 1;
nodes = (
"338 368 LINE SMOOTH",
"363 402 OFFCURVE",
"373 410 OFFCURVE",
"404 410 CURVE SMOOTH",
"449 410 LINE",
"463 417 OFFCURVE",
"474 439 OFFCURVE",
"474 461 CURVE SMOOTH",
"474 497 OFFCURVE",
"452 513 OFFCURVE",
"401 513 CURVE SMOOTH",
"353 513 OFFCURVE",
"323 490 OFFCURVE",
"288 426 CURVE SMOOTH",
"248 351 LINE",
"273 278 LINE"
);
}
);
width = 455;
}
);
leftKerningGroup = x;
rightKerningGroup = x;
unicode = 0078;
},
{
glyphname = y;
layers = (
{
anchors = (
{
name = bottom;
position = "{265, 30}";
},
{
name = top;
position = "{239, 494}";
}
);
layerId = "0a8077ec-4085-4bbf-a447-43ab7bcde2db";
paths = (
{
closed = 1;
nodes = (
"62 -170 OFFCURVE",
"85 -147 OFFCURVE",
"111 -99 CURVE SMOOTH",
"157 -14 LINE",
"352 208 OFFCURVE",
"417 399 OFFCURVE",
"417 461 CURVE SMOOTH",
"417 494 OFFCURVE",
"359 512 OFFCURVE",
"299 515 CURVE",
"281 483 LINE",
"354 432 LINE",
"324 297 OFFCURVE",
"252 180 OFFCURVE",
"173 73 CURVE",
"167 73 LINE",
"167 138 LINE",
"143 506 LINE",
"1 490 LINE",
"1 459 LINE",
"76 440 LINE",
"107 101 LINE",
"107 -9 LINE",
"40 -109 LINE",
"-56 -109 LINE",
"-59 -145 LINE",
"-30 -170 OFFCURVE",
"-6 -170 OFFCURVE",
"15 -170 CURVE SMOOTH"
);
}
);
width = 405;
},
{
anchors = (
{
name = bottom;
position = "{339, 30}";
},
{
name = top;
position = "{274, 494}";
}
);
layerId = "42d03b0b-68f7-4941-bda2-1e253e993363";
paths = (
{
closed = 1;
nodes = (
"88 -173 OFFCURVE",
"112 -171 OFFCURVE",
"144 -126 CURVE SMOOTH",
"235 -1 LINE SMOOTH",
"343 147 OFFCURVE",
"476 336 OFFCURVE",
"476 453 CURVE SMOOTH",
"476 512 OFFCURVE",
"366 531 OFFCURVE",
"313 512 CURVE",
"284 456 LINE",
"351 419 LINE",
"345 315 OFFCURVE",
"344 284 OFFCURVE",
"226 91 CURVE",
"222 91 LINE",
"223 135 LINE",
"197 514 LINE",
"-4 498 LINE",
"-4 427 LINE",
"67 408 LINE",
"94 128 LINE",
"94 -9 LINE",
"41 -70 LINE",
"-83 -70 LINE",
"-83 -139 LINE",
"-52 -153 OFFCURVE",
"-8 -173 OFFCURVE",
"41 -173 CURVE SMOOTH"
);
}
);
width = 449;
}
);
leftKerningGroup = v;
leftMetricsKey = v;
rightKerningGroup = v;
rightMetricsKey = v;
unicode = 0079;
},
{
glyphname = z;
layers = (
{
anchors = (
{
name = bottom;
position = "{163, 0}";
},
{
name = top;
position = "{243, 494}";
}
);
layerId = "0a8077ec-4085-4bbf-a447-43ab7bcde2db";
paths = (
{
closed = 1;
nodes = (
"321 -9 OFFCURVE",
"359 9 OFFCURVE",
"359 60 CURVE SMOOTH",
"359 107 OFFCURVE",
"341 131 OFFCURVE",
"338 135 CURVE",
"309 135 LINE",
"281 34 LINE",
"108 77 LINE",
"108 87 LINE",
"414 493 LINE",
"391 512 LINE",
"336 471 LINE",
"230 496 LINE SMOOTH",
"189 506 OFFCURVE",
"160 513 OFFCURVE",
"125 513 CURVE SMOOTH",
"82 513 OFFCURVE",
"49 497 OFFCURVE",
"49 446 CURVE SMOOTH",
"49 399 OFFCURVE",
"66 374 OFFCURVE",
"69 370 CURVE",
"98 370 LINE",
"125 471 LINE",
"283 422 LINE",
"283 412 LINE",
"-17 16 LINE",
"7 -7 LINE",
"58 29 LINE",
"177 6 LINE SMOOTH",
"196 2 OFFCURVE",
"250 -9 OFFCURVE",
"275 -9 CURVE SMOOTH"
);
}
);
width = 394;
},
{
anchors = (
{
name = bottom;
position = "{177, 0}";
},
{
name = top;
position = "{247, 494}";
}
);
layerId = "42d03b0b-68f7-4941-bda2-1e253e993363";
paths = (
{
closed = 1;
nodes = (
"347 -12 OFFCURVE",
"398 6 OFFCURVE",
"398 57 CURVE SMOOTH",
"398 84 OFFCURVE",
"386 125 OFFCURVE",
"369 154 CURVE",
"311 154 LINE",
"286 67 LINE",
"176 104 LINE",
"176 114 LINE",
"452 468 LINE",
"399 514 LINE",
"341 475 LINE",
"257 494 LINE SMOOTH",
"197 507 OFFCURVE",
"149 513 OFFCURVE",
"122 513 CURVE SMOOTH",
"72 513 OFFCURVE",
"27 484 OFFCURVE",
"27 433 CURVE SMOOTH",
"27 403 OFFCURVE",
"42 367 OFFCURVE",
"61 347 CURVE",
"123 347 LINE",
"148 432 LINE",
"244 389 LINE",
"244 380 LINE",
"-24 37 LINE",
"35 -11 LINE",
"81 19 LINE",
"156 5 LINE SMOOTH",
"227 -9 OFFCURVE",
"274 -12 OFFCURVE",
"316 -12 CURVE SMOOTH"
);
}
);
width = 425;
}
);
leftKerningGroup = z;
rightKerningGroup = z;
unicode = 007A;
},
{
glyphname = y.loclGUA;
layers = (
{
anchors = (
{
name = bottom;
position = "{163, -165}";
},
{
name = top;
position = "{297, 494}";
},
{
name = topright;
position = "{547, 494}";
}
);
layerId = "0a8077ec-4085-4bbf-a447-43ab7bcde2db";
paths = (
{
closed = 1;
nodes = (
"273 -165 OFFCURVE",
"353 -102 OFFCURVE",
"372 12 CURVE SMOOTH",
"455 514 LINE",
"395 502 LINE",
"338 178 LINE",
"311 152 OFFCURVE",
"245 94 OFFCURVE",
"192 94 CURVE SMOOTH",
"159 94 OFFCURVE",
"150 111 OFFCURVE",
"150 142 CURVE SMOOTH",
"150 156 OFFCURVE",
"152 173 OFFCURVE",
"154 187 CURVE SMOOTH",
"192 441 LINE",
"192 507 LINE",
"52 488 LINE",
"52 456 LINE",
"132 439 LINE",
"86 182 LINE SMOOTH",
"83 163 OFFCURVE",
"80 141 OFFCURVE",
"80 115 CURVE SMOOTH",
"80 47 OFFCURVE",
"113 33 OFFCURVE",
"154 33 CURVE SMOOTH",
"252 33 OFFCURVE",
"323 114 OFFCURVE",
"347 144 CURVE",
"350 142 LINE",
"327 114 OFFCURVE",
"323 97 OFFCURVE",
"302 -10 CURVE SMOOTH",
"282 -110 OFFCURVE",
"231 -122 OFFCURVE",
"161 -122 CURVE SMOOTH",
"106 -122 OFFCURVE",
"82 -99 OFFCURVE",
"78 -93 CURVE",
"78 2 LINE",
"51 2 LINE",
"23 -12 OFFCURVE",
"7 -46 OFFCURVE",
"7 -76 CURVE SMOOTH",
"7 -136 OFFCURVE",
"62 -165 OFFCURVE",
"150 -165 CURVE SMOOTH"
);
}
);
width = 477;
},
{
anchors = (
{
name = bottom;
position = "{204, -174}";
},
{
name = top;
position = "{312, 494}";
},
{
name = topright;
position = "{566, 494}";
}
);
layerId = "42d03b0b-68f7-4941-bda2-1e253e993363";
paths = (
{
closed = 1;
nodes = (
"367 -174 OFFCURVE",
"423 -36 OFFCURVE",
"436 41 CURVE SMOOTH",
"517 508 LINE",
"372 497 LINE",
"323 203 LINE",
"298 179 OFFCURVE",
"254 141 OFFCURVE",
"228 141 CURVE SMOOTH",
"211 141 OFFCURVE",
"205 150 OFFCURVE",
"205 165 CURVE SMOOTH",
"205 173 OFFCURVE",
"213 226 OFFCURVE",
"216 244 CURVE SMOOTH",
"247 422 LINE",
"247 510 LINE",
"32 491 LINE",
"32 422 LINE",
"105 405 LINE",
"73 224 LINE SMOOTH",
"69 204 OFFCURVE",
"61 147 OFFCURVE",
"61 123 CURVE SMOOTH",
"61 79 OFFCURVE",
"81 32 OFFCURVE",
"145 32 CURVE SMOOTH",
"220 32 OFFCURVE",
"291 108 OFFCURVE",
"322 143 CURVE",
"325 141 LINE",
"304 116 OFFCURVE",
"297 58 OFFCURVE",
"297 57 CURVE SMOOTH",
"281 -75 OFFCURVE",
"263 -85 OFFCURVE",
"201 -85 CURVE SMOOTH",
"172 -85 OFFCURVE",
"130 -82 OFFCURVE",
"97 -60 CURVE",
"97 20 LINE",
"33 20 LINE",
"13 2 OFFCURVE",
"-22 -30 OFFCURVE",
"-22 -75 CURVE SMOOTH",
"-22 -141 OFFCURVE",
"34 -174 OFFCURVE",
"144 -174 CURVE SMOOTH"
);
}
);
width = 535;
}
);
leftKerningGroup = y.loclGUA;
leftMetricsKey = u;
rightKerningGroup = y.loclGUA;
rightMetricsKey = g;
},
{
glyphname = f_f;
layers = (
{
layerId = "0a8077ec-4085-4bbf-a447-43ab7bcde2db";
paths = (
{
closed = 1;
nodes = (
"107 -163 LINE",
"195 454 LINE",
"386 454 LINE",
"316 -9 LINE",
"383 0 LINE",
"446 454 LINE",
"536 454 LINE",
"552 475 LINE",
"552 507 LINE",
"453 507 LINE",
"459 544 LINE SMOOTH",
"467 595 OFFCURVE",
"491 624 OFFCURVE",
"497 630 CURVE SMOOTH",
"501 635 OFFCURVE",
"529 640 OFFCURVE",
"551 640 CURVE SMOOTH",
"621 640 LINE",
"629 651 OFFCURVE",
"631 666 OFFCURVE",
"631 679 CURVE SMOOTH",
"631 705 OFFCURVE",
"620 711 OFFCURVE",
"597 711 CURVE SMOOTH",
"498 711 OFFCURVE",
"411 647 OFFCURVE",
"393 507 CURVE",
"201 507 LINE",
"207 544 LINE SMOOTH",
"215 593 OFFCURVE",
"237 622 OFFCURVE",
"245 630 CURVE SMOOTH",
"251 636 OFFCURVE",
"276 640 OFFCURVE",
"298 640 CURVE SMOOTH",
"367 640 LINE",
"376 651 OFFCURVE",
"379 661 OFFCURVE",
"379 679 CURVE SMOOTH",
"379 705 OFFCURVE",
"368 711 OFFCURVE",
"345 711 CURVE SMOOTH",
"247 711 OFFCURVE",
"157 645 OFFCURVE",
"141 507 CURVE",
"73 507 LINE",
"57 484 LINE",
"57 454 LINE",
"134 454 LINE",
"40 -173 LINE"
);
}
);
width = 525;
},
{
layerId = "42d03b0b-68f7-4941-bda2-1e253e993363";
paths = (
{
closed = 1;
nodes = (
"159 -174 LINE",
"241 431 LINE",
"388 431 LINE",
"310 -14 LINE",
"463 0 LINE",
"522 431 LINE",
"640 431 LINE",
"656 472 LINE",
"656 507 LINE",
"532 507 LINE",
"533 519 LINE SMOOTH",
"537 561 OFFCURVE",
"545 576 OFFCURVE",
"549 580 CURVE SMOOTH",
"559 589 OFFCURVE",
"579 594 OFFCURVE",
"641 594 CURVE SMOOTH",
"707 594 LINE",
"714 601 OFFCURVE",
"735 628 OFFCURVE",
"735 651 CURVE SMOOTH",
"735 692 OFFCURVE",
"711 711 OFFCURVE",
"668 711 CURVE SMOOTH",
"523 711 OFFCURVE",
"442 600 OFFCURVE",
"408 507 CURVE",
"252 507 LINE",
"253 519 LINE SMOOTH",
"257 561 OFFCURVE",
"265 576 OFFCURVE",
"269 580 CURVE SMOOTH",
"276 589 OFFCURVE",
"289 594 OFFCURVE",
"330 594 CURVE SMOOTH",
"397 594 LINE",
"401 598 OFFCURVE",
"424 625 OFFCURVE",
"424 651 CURVE SMOOTH",
"424 692 OFFCURVE",
"401 711 OFFCURVE",
"357 711 CURVE SMOOTH",
"240 711 OFFCURVE",
"161 598 OFFCURVE",
"128 507 CURVE",
"52 507 LINE",
"36 473 LINE",
"36 431 LINE",
"108 431 LINE",
"6 -188 LINE"
);
}
);
width = 609;
}
);
leftKerningGroup = f;
leftMetricsKey = f;
rightKerningGroup = f;
rightMetricsKey = f;
unicode = FB00;
},
{
glyphname = f_f_i;
layers = (
{
layerId = "0a8077ec-4085-4bbf-a447-43ab7bcde2db";
paths = (
{
closed = 1;
nodes = (
"107 -163 LINE",
"195 454 LINE",
"385 454 LINE",
"316 -10 LINE",
"383 0 LINE",
"446 454 LINE",
"553 454 LINE",
"628 438 LINE",
"560 62 LINE SMOOTH",
"559 57 OFFCURVE",
"558 52 OFFCURVE",
"558 47 CURVE SMOOTH",
"558 7 OFFCURVE",
"575 -3 OFFCURVE",
"616 -3 CURVE SMOOTH",
"654 -3 OFFCURVE",
"694 25 OFFCURVE",
"698 28 CURVE",
"698 62 LINE",
"625 62 LINE",
"688 437 LINE",
"688 507 LINE",
"452 507 LINE",
"457 541 LINE SMOOTH",
"465 597 OFFCURVE",
"493 630 OFFCURVE",
"498 635 CURVE SMOOTH",
"504 641 OFFCURVE",
"523 645 OFFCURVE",
"548 645 CURVE SMOOTH",
"586 645 OFFCURVE",
"639 635 OFFCURVE",
"681 615 CURVE",
"692 626 OFFCURVE",
"701 649 OFFCURVE",
"700 669 CURVE SMOOTH",
"699 697 OFFCURVE",
"684 710 OFFCURVE",
"635 710 CURVE SMOOTH",
"496 710 OFFCURVE",
"409 645 OFFCURVE",
"392 507 CURVE",
"201 507 LINE",
"207 544 LINE SMOOTH",
"215 593 OFFCURVE",
"237 622 OFFCURVE",
"245 630 CURVE SMOOTH",
"251 636 OFFCURVE",
"276 640 OFFCURVE",
"298 640 CURVE SMOOTH",
"367 640 LINE",
"376 651 OFFCURVE",
"379 661 OFFCURVE",
"379 679 CURVE SMOOTH",
"379 705 OFFCURVE",
"368 711 OFFCURVE",
"345 711 CURVE SMOOTH",
"247 711 OFFCURVE",
"157 645 OFFCURVE",
"141 507 CURVE",
"73 507 LINE",
"57 484 LINE",
"57 454 LINE",
"134 454 LINE",
"40 -173 LINE"
);
}
);
width = 754;
},
{
background = {
paths = (
{
closed = 1;
nodes = (
"301 431 LINE",
"388 431 LINE",
"310 -14 LINE",
"463 0 LINE",
"522 431 LINE",
"640 431 LINE",
"656 472 LINE",
"656 507 LINE",
"532 507 LINE",
"533 519 LINE SMOOTH",
"537 561 OFFCURVE",
"545 576 OFFCURVE",
"549 580 CURVE SMOOTH",
"559 589 OFFCURVE",
"579 594 OFFCURVE",
"641 594 CURVE SMOOTH",
"707 594 LINE",
"714 601 OFFCURVE",
"735 628 OFFCURVE",
"735 651 CURVE SMOOTH",
"735 692 OFFCURVE",
"711 711 OFFCURVE",
"668 711 CURVE SMOOTH",
"523 711 OFFCURVE",
"442 600 OFFCURVE",
"408 507 CURVE",
"301 507 LINE"
);
}
);
};
layerId = "42d03b0b-68f7-4941-bda2-1e253e993363";
paths = (
{
closed = 1;
nodes = (
"159 -174 LINE",
"241 431 LINE",
"388 431 LINE",
"310 -17 LINE",
"463 0 LINE",
"523 431 LINE",
"588 431 LINE",
"665 409 LINE",
"609 122 LINE SMOOTH",
"606 106 OFFCURVE",
"601 78 OFFCURVE",
"601 50 CURVE SMOOTH",
"601 26 OFFCURVE",
"617 -11 OFFCURVE",
"668 -11 CURVE SMOOTH",
"767 -11 OFFCURVE",
"816 18 OFFCURVE",
"822 22 CURVE",
"822 91 LINE",
"752 91 LINE",
"803 400 LINE",
"803 507 LINE",
"533 507 LINE",
"537 532 LINE SMOOTH",
"542 561 OFFCURVE",
"545 578 OFFCURVE",
"552 588 CURVE SMOOTH",
"558 596 OFFCURVE",
"568 599 OFFCURVE",
"586 599 CURVE SMOOTH",
"649 599 OFFCURVE",
"709 580 OFFCURVE",
"753 558 CURVE",
"786 572 OFFCURVE",
"806 603 OFFCURVE",
"806 641 CURVE SMOOTH",
"806 689 OFFCURVE",
"760 718 OFFCURVE",
"686 718 CURVE SMOOTH",
"526 718 OFFCURVE",
"453 599 OFFCURVE",
"409 507 CURVE",
"252 507 LINE",
"253 519 LINE SMOOTH",
"257 561 OFFCURVE",
"265 576 OFFCURVE",
"269 580 CURVE SMOOTH",
"276 589 OFFCURVE",
"289 594 OFFCURVE",
"330 594 CURVE SMOOTH",
"397 594 LINE",
"401 598 OFFCURVE",
"424 625 OFFCURVE",
"424 651 CURVE SMOOTH",
"424 692 OFFCURVE",
"401 711 OFFCURVE",
"357 711 CURVE SMOOTH",
"240 711 OFFCURVE",
"161 598 OFFCURVE",
"128 507 CURVE",
"52 507 LINE",
"36 473 LINE",
"36 431 LINE",
"108 431 LINE",
"6 -188 LINE"
);
}
);
width = 861;
}
);
leftKerningGroup = f;
leftMetricsKey = f;
rightKerningGroup = i;
rightMetricsKey = i;
},
{
glyphname = f_f_l;
layers = (
{
layerId = "0a8077ec-4085-4bbf-a447-43ab7bcde2db";
paths = (
{
closed = 1;
nodes = (
"107 -163 LINE",
"195 454 LINE",
"386 454 LINE",
"316 -9 LINE",
"383 1 LINE",
"446 454 LINE",
"549 454 LINE",
"565 475 LINE",
"565 507 LINE",
"453 507 LINE",
"458 543 LINE SMOOTH",
"466 597 OFFCURVE",
"493 625 OFFCURVE",
"498 630 CURVE SMOOTH",
"505 637 OFFCURVE",
"536 640 OFFCURVE",
"557 640 CURVE SMOOTH",
"597 640 OFFCURVE",
"617 639 OFFCURVE",
"663 630 CURVE",
"563 59 LINE SMOOTH",
"562 53 OFFCURVE",
"562 48 OFFCURVE",
"562 46 CURVE SMOOTH",
"562 7 OFFCURVE",
"586 -3 OFFCURVE",
"623 -3 CURVE SMOOTH",
"663 -3 OFFCURVE",
"700 24 OFFCURVE",
"704 27 CURVE",
"704 61 LINE",
"631 61 LINE",
"719 630 LINE",
"719 697 LINE",
"714 699 OFFCURVE",
"672 710 OFFCURVE",
"636 710 CURVE SMOOTH",
"497 710 OFFCURVE",
"410 645 OFFCURVE",
"393 507 CURVE",
"201 507 LINE",
"207 544 LINE SMOOTH",
"215 593 OFFCURVE",
"237 622 OFFCURVE",
"245 630 CURVE SMOOTH",
"251 636 OFFCURVE",
"276 640 OFFCURVE",
"298 640 CURVE SMOOTH",
"367 640 LINE",
"376 651 OFFCURVE",
"379 661 OFFCURVE",
"379 679 CURVE SMOOTH",
"379 705 OFFCURVE",
"368 711 OFFCURVE",
"345 711 CURVE SMOOTH",
"247 711 OFFCURVE",
"157 645 OFFCURVE",
"141 507 CURVE",
"73 507 LINE",
"57 484 LINE",
"57 454 LINE",
"134 454 LINE",
"40 -173 LINE"
);
}
);
width = 761;
},
{
layerId = "42d03b0b-68f7-4941-bda2-1e253e993363";
paths = (
{
closed = 1;
nodes = (
"159 -174 LINE",
"241 431 LINE",
"388 431 LINE",
"310 -14 LINE",
"463 3 LINE",
"524 431 LINE",
"624 431 LINE",
"640 472 LINE",
"640 507 LINE",
"533 507 LINE",
"535 520 LINE SMOOTH",
"542 566 OFFCURVE",
"550 583 OFFCURVE",
"553 587 CURVE SMOOTH",
"561 597 OFFCURVE",
"582 608 OFFCURVE",
"638 608 CURVE SMOOTH",
"656 608 OFFCURVE",
"674 606 OFFCURVE",
"692 600 CURVE",
"610 125 LINE SMOOTH",
"607 109 OFFCURVE",
"601 77 OFFCURVE",
"601 52 CURVE SMOOTH",
"601 29 OFFCURVE",
"604 -8 OFFCURVE",
"678 -8 CURVE SMOOTH",
"763 -8 OFFCURVE",
"814 20 OFFCURVE",
"820 24 CURVE",
"820 94 LINE",
"748 94 LINE",
"823 608 LINE",
"823 709 LINE",
"804 710 OFFCURVE",
"781 711 OFFCURVE",
"754 711 CURVE SMOOTH",
"535 711 OFFCURVE",
"451 629 OFFCURVE",
"409 507 CURVE",
"252 507 LINE",
"253 519 LINE SMOOTH",
"257 561 OFFCURVE",
"265 576 OFFCURVE",
"269 580 CURVE SMOOTH",
"276 589 OFFCURVE",
"289 594 OFFCURVE",
"330 594 CURVE SMOOTH",
"397 594 LINE",
"401 598 OFFCURVE",
"424 625 OFFCURVE",
"424 651 CURVE SMOOTH",
"424 692 OFFCURVE",
"401 711 OFFCURVE",
"357 711 CURVE SMOOTH",
"240 711 OFFCURVE",
"161 598 OFFCURVE",
"128 507 CURVE",
"52 507 LINE",
"36 473 LINE",
"36 431 LINE",
"108 431 LINE",
"6 -188 LINE"
);
}
);
width = 890;
}
);
leftKerningGroup = f;
rightKerningGroup = l;
},
{
glyphname = fi;
layers = (
{
layerId = "0a8077ec-4085-4bbf-a447-43ab7bcde2db";
paths = (
{
closed = 1;
nodes = (
"107 -163 LINE",
"195 454 LINE",
"302 454 LINE",
"377 438 LINE",
"309 62 LINE SMOOTH",
"308 56 OFFCURVE",
"307 48 OFFCURVE",
"307 47 CURVE SMOOTH",
"307 7 OFFCURVE",
"324 -3 OFFCURVE",
"365 -3 CURVE SMOOTH",
"403 -3 OFFCURVE",
"443 25 OFFCURVE",
"447 28 CURVE",
"447 62 LINE",
"374 62 LINE",
"437 437 LINE",
"437 507 LINE",
"201 507 LINE",
"206 541 LINE SMOOTH",
"214 597 OFFCURVE",
"242 630 OFFCURVE",
"247 635 CURVE SMOOTH",
"252 642 OFFCURVE",
"272 645 OFFCURVE",
"297 645 CURVE SMOOTH",
"335 645 OFFCURVE",
"388 635 OFFCURVE",
"430 615 CURVE",
"441 626 OFFCURVE",
"450 649 OFFCURVE",
"449 669 CURVE SMOOTH",
"448 697 OFFCURVE",
"433 710 OFFCURVE",
"384 710 CURVE SMOOTH",
"245 710 OFFCURVE",
"158 645 OFFCURVE",
"141 507 CURVE",
"71 507 LINE",
"57 484 LINE",
"57 454 LINE",
"134 454 LINE",
"40 -173 LINE"
);
}
);
width = 503;
},
{
layerId = "42d03b0b-68f7-4941-bda2-1e253e993363";
paths = (
{
closed = 1;
nodes = (
"159 -174 LINE",
"243 431 LINE",
"307 431 LINE",
"384 409 LINE",
"328 122 LINE SMOOTH",
"325 106 OFFCURVE",
"320 78 OFFCURVE",
"320 50 CURVE SMOOTH",
"320 26 OFFCURVE",
"336 -11 OFFCURVE",
"387 -11 CURVE SMOOTH",
"486 -11 OFFCURVE",
"535 18 OFFCURVE",
"541 22 CURVE",
"541 91 LINE",
"471 91 LINE",
"522 400 LINE",
"522 507 LINE",
"252 507 LINE",
"256 532 LINE SMOOTH",
"261 561 OFFCURVE",
"264 578 OFFCURVE",
"271 588 CURVE SMOOTH",
"277 596 OFFCURVE",
"287 599 OFFCURVE",
"305 599 CURVE SMOOTH",
"368 599 OFFCURVE",
"428 580 OFFCURVE",
"472 558 CURVE",
"505 572 OFFCURVE",
"525 603 OFFCURVE",
"525 641 CURVE SMOOTH",
"525 689 OFFCURVE",
"479 718 OFFCURVE",
"405 718 CURVE SMOOTH",
"245 718 OFFCURVE",
"172 599 OFFCURVE",
"128 507 CURVE",
"52 507 LINE",
"36 473 LINE",
"36 431 LINE",
"107 431 LINE",
"6 -191 LINE"
);
}
);
width = 580;
}
);
leftKerningGroup = f;
leftMetricsKey = f;
rightKerningGroup = i;
rightMetricsKey = i;
unicode = FB01;
},
{
glyphname = fl;
layers = (
{
layerId = "0a8077ec-4085-4bbf-a447-43ab7bcde2db";
paths = (
{
closed = 1;
nodes = (
"107 -163 LINE",
"194 454 LINE",
"297 454 LINE",
"313 475 LINE",
"313 507 LINE",
"201 507 LINE",
"206 543 LINE SMOOTH",
"214 597 OFFCURVE",
"241 625 OFFCURVE",
"246 630 CURVE SMOOTH",
"253 637 OFFCURVE",
"284 640 OFFCURVE",
"305 640 CURVE SMOOTH",
"345 640 OFFCURVE",
"365 639 OFFCURVE",
"411 630 CURVE",
"311 59 LINE SMOOTH",
"310 53 OFFCURVE",
"310 48 OFFCURVE",
"310 46 CURVE SMOOTH",
"310 7 OFFCURVE",
"334 -3 OFFCURVE",
"371 -3 CURVE SMOOTH",
"411 -3 OFFCURVE",
"448 24 OFFCURVE",
"452 27 CURVE",
"452 61 LINE",
"379 61 LINE",
"467 630 LINE",
"467 697 LINE",
"462 699 OFFCURVE",
"420 710 OFFCURVE",
"384 710 CURVE SMOOTH",
"245 710 OFFCURVE",
"158 645 OFFCURVE",
"141 507 CURVE",
"71 507 LINE",
"57 484 LINE",
"57 454 LINE",
"134 454 LINE",
"40 -173 LINE"
);
}
);
width = 515;
},
{
layerId = "42d03b0b-68f7-4941-bda2-1e253e993363";
paths = (
{
closed = 1;
nodes = (
"159 -174 LINE",
"243 431 LINE",
"343 431 LINE",
"359 472 LINE",
"359 507 LINE",
"252 507 LINE",
"254 520 LINE SMOOTH",
"261 566 OFFCURVE",
"269 583 OFFCURVE",
"272 587 CURVE SMOOTH",
"280 597 OFFCURVE",
"301 608 OFFCURVE",
"357 608 CURVE SMOOTH",
"375 608 OFFCURVE",
"393 606 OFFCURVE",
"411 600 CURVE",
"329 125 LINE SMOOTH",
"326 109 OFFCURVE",
"320 77 OFFCURVE",
"320 52 CURVE SMOOTH",
"320 29 OFFCURVE",
"323 -8 OFFCURVE",
"397 -8 CURVE SMOOTH",
"482 -8 OFFCURVE",
"533 20 OFFCURVE",
"539 24 CURVE",
"539 94 LINE",
"467 94 LINE",
"542 608 LINE",
"542 709 LINE",
"523 710 OFFCURVE",
"500 711 OFFCURVE",
"473 711 CURVE SMOOTH",
"254 711 OFFCURVE",
"170 629 OFFCURVE",
"128 507 CURVE",
"52 507 LINE",
"36 473 LINE",
"36 431 LINE",
"107 431 LINE",
"6 -191 LINE"
);
}
);
width = 573;
}
);
leftKerningGroup = f;
leftMetricsKey = f;
rightKerningGroup = l;
rightMetricsKey = l;
unicode = FB02;
},
{
glyphname = ordfeminine;
layers = (
{
layerId = "0a8077ec-4085-4bbf-a447-43ab7bcde2db";
paths = (
{
closed = 1;
nodes = (
"142 355 OFFCURVE",
"181 397 OFFCURVE",
"202 433 CURVE",
"206 431 LINE",
"196 415 OFFCURVE",
"192 403 OFFCURVE",
"192 392 CURVE SMOOTH",
"192 375 OFFCURVE",
"203 358 OFFCURVE",
"237 358 CURVE SMOOTH",
"259 358 OFFCURVE",
"287 368 OFFCURVE",
"305 381 CURVE",
"305 416 LINE",
"253 416 LINE",
"299 710 LINE",
"267 710 LINE",
"251 686 LINE",
"248 688 OFFCURVE",
"212 707 OFFCURVE",
"175 707 CURVE SMOOTH",
"55 707 OFFCURVE",
"22 520 OFFCURVE",
"22 464 CURVE SMOOTH",
"22 401 OFFCURVE",
"42 355 OFFCURVE",
"102 355 CURVE SMOOTH"
);
},
{
closed = 1;
nodes = (
"92 410 OFFCURVE",
"80 437 OFFCURVE",
"80 476 CURVE SMOOTH",
"80 539 OFFCURVE",
"97 624 OFFCURVE",
"119 647 CURVE",
"121 650 OFFCURVE",
"153 652 OFFCURVE",
"161 652 CURVE SMOOTH",
"196 652 OFFCURVE",
"212 644 OFFCURVE",
"234 631 CURVE",
"207 475 LINE",
"189 453 OFFCURVE",
"152 410 OFFCURVE",
"121 410 CURVE SMOOTH"
);
}
);
width = 346;
},
{
layerId = "42d03b0b-68f7-4941-bda2-1e253e993363";
paths = (
{
closed = 1;
nodes = (
"134 355 OFFCURVE",
"168 392 OFFCURVE",
"195 432 CURVE",
"198 430 LINE",
"189 416 OFFCURVE",
"183 403 OFFCURVE",
"183 392 CURVE SMOOTH",
"183 369 OFFCURVE",
"202 358 OFFCURVE",
"236 358 CURVE SMOOTH",
"274 358 OFFCURVE",
"312 369 OFFCURVE",
"327 384 CURVE",
"327 436 LINE",
"295 436 LINE",
"340 710 LINE",
"272 710 LINE",
"248 687 LINE",
"223 698 OFFCURVE",
"194 707 OFFCURVE",
"161 707 CURVE SMOOTH",
"66 707 OFFCURVE",
"13 580 OFFCURVE",
"13 463 CURVE SMOOTH",
"13 383 OFFCURVE",
"50 355 OFFCURVE",
"91 355 CURVE SMOOTH"
);
},
{
closed = 1;
nodes = (
"132 442 OFFCURVE",
"123 450 OFFCURVE",
"123 477 CURVE SMOOTH",
"123 547 OFFCURVE",
"131 584 OFFCURVE",
"142 628 CURVE SMOOTH",
"143 632 OFFCURVE",
"150 633 OFFCURVE",
"157 633 CURVE SMOOTH",
"174 633 OFFCURVE",
"191 632 OFFCURVE",
"222 611 CURVE",
"199 492 LINE",
"181 467 OFFCURVE",
"160 442 OFFCURVE",
"139 442 CURVE SMOOTH"
);
}
);
width = 331;
}
);
unicode = 00AA;
},
{
glyphname = ordmasculine;
layers = (
{
layerId = "0a8077ec-4085-4bbf-a447-43ab7bcde2db";
paths = (
{
closed = 1;
nodes = (
"246 355 OFFCURVE",
"302 459 OFFCURVE",
"302 579 CURVE SMOOTH",
"302 666 OFFCURVE",
"254 707 OFFCURVE",
"197 707 CURVE SMOOTH",
"92 707 OFFCURVE",
"27 600 OFFCURVE",
"27 486 CURVE SMOOTH",
"27 395 OFFCURVE",
"85 355 OFFCURVE",
"144 355 CURVE SMOOTH"
);
},
{
closed = 1;
nodes = (
"121 407 OFFCURVE",
"88 430 OFFCURVE",
"88 507 CURVE SMOOTH",
"88 556 OFFCURVE",
"108 633 OFFCURVE",
"117 642 CURVE SMOOTH",
"122 648 OFFCURVE",
"159 651 OFFCURVE",
"170 651 CURVE SMOOTH",
"208 651 OFFCURVE",
"242 629 OFFCURVE",
"242 553 CURVE SMOOTH",
"242 501 OFFCURVE",
"223 420 OFFCURVE",
"216 415 CURVE",
"208 407 OFFCURVE",
"172 407 OFFCURVE",
"162 407 CURVE SMOOTH"
);
}
);
width = 329;
},
{
layerId = "42d03b0b-68f7-4941-bda2-1e253e993363";
paths = (
{
closed = 1;
nodes = (
"254 356 OFFCURVE",
"324 467 OFFCURVE",
"324 587 CURVE SMOOTH",
"324 674 OFFCURVE",
"272 707 OFFCURVE",
"189 707 CURVE SMOOTH",
"85 707 OFFCURVE",
"12 613 OFFCURVE",
"12 471 CURVE SMOOTH",
"12 392 OFFCURVE",
"62 356 OFFCURVE",
"141 356 CURVE SMOOTH"
);
},
{
closed = 1;
nodes = (
"137 421 OFFCURVE",
"125 434 OFFCURVE",
"125 492 CURVE SMOOTH",
"125 584 OFFCURVE",
"141 628 OFFCURVE",
"147 637 CURVE SMOOTH",
"148 639 OFFCURVE",
"156 642 OFFCURVE",
"164 642 CURVE SMOOTH",
"191 642 OFFCURVE",
"210 640 OFFCURVE",
"210 578 CURVE SMOOTH",
"210 508 OFFCURVE",
"209 461 OFFCURVE",
"193 426 CURVE",
"194 426 OFFCURVE",
"181 421 OFFCURVE",
"165 421 CURVE SMOOTH"
);
}
);
width = 335;
}
);
unicode = 00BA;
},
{
glyphname = pi;
layers = (
{
layerId = "0a8077ec-4085-4bbf-a447-43ab7bcde2db";
paths = (
{
closed = 1;
nodes = (
"420 -4 OFFCURVE",
"461 23 OFFCURVE",
"465 26 CURVE",
"465 61 LINE",
"393 61 LINE",
"461 450 LINE",
"464 450 LINE SMOOTH",
"491 450 OFFCURVE",
"513 451 OFFCURVE",
"527 463 CURVE SMOOTH",
"575 505 LINE",
"553 542 LINE",
"462 511 LINE",
"159 511 LINE SMOOTH",
"127 511 OFFCURVE",
"99 501 OFFCURVE",
"79 483 CURVE SMOOTH",
"35 444 LINE",
"56 411 LINE",
"151 449 LINE",
"75 48 LINE",
"3 37 LINE",
"3 0 LINE",
"133 0 LINE",
"135 12 OFFCURVE",
"136 19 OFFCURVE",
"137 26 CURVE SMOOTH",
"213 450 LINE",
"391 450 LINE",
"337 149 LINE SMOOTH",
"332 123 OFFCURVE",
"322 71 OFFCURVE",
"322 44 CURVE SMOOTH",
"322 29 OFFCURVE",
"325 -4 OFFCURVE",
"375 -4 CURVE SMOOTH"
);
}
);
width = 524;
},
{
layerId = "42d03b0b-68f7-4941-bda2-1e253e993363";
paths = (
{
closed = 1;
nodes = (
"444 -7 OFFCURVE",
"493 10 OFFCURVE",
"529 34 CURVE",
"529 95 LINE",
"455 95 LINE",
"507 408 LINE",
"510 408 LINE",
"566 408 OFFCURVE",
"586 429 OFFCURVE",
"649 494 CURVE SMOOTH",
"682 528 LINE",
"642 576 LINE",
"559 522 LINE",
"205 522 LINE SMOOTH",
"131 522 OFFCURVE",
"124 515 OFFCURVE",
"55 442 CURVE SMOOTH",
"22 407 LINE",
"62 358 LINE",
"150 410 LINE",
"90 91 LINE",
"49 65 LINE",
"49 0 LINE",
"85 0 LINE SMOOTH",
"188 0 OFFCURVE",
"209 28 OFFCURVE",
"221 95 CURVE SMOOTH",
"279 409 LINE",
"376 409 LINE",
"326 135 LINE SMOOTH",
"322 112 OFFCURVE",
"316 77 OFFCURVE",
"316 64 CURVE SMOOTH",
"316 15 OFFCURVE",
"342 -7 OFFCURVE",
"401 -7 CURVE SMOOTH"
);
}
);
width = 608;
}
);
unicode = 03C0;
},
{
glyphname = zero;
layers = (
{
layerId = "0a8077ec-4085-4bbf-a447-43ab7bcde2db";
paths = (
{
closed = 1;
nodes = (
"463 -10 OFFCURVE",
"492 345 OFFCURVE",
"492 449 CURVE SMOOTH",
"492 581 OFFCURVE",
"433 661 OFFCURVE",
"326 661 CURVE SMOOTH",
"85 661 OFFCURVE",
"40 370 OFFCURVE",
"40 206 CURVE SMOOTH",
"40 70 OFFCURVE",
"97 -10 OFFCURVE",
"211 -10 CURVE SMOOTH"
);
},
{
closed = 1;
nodes = (
"138 36 OFFCURVE",
"114 93 OFFCURVE",
"114 203 CURVE SMOOTH",
"114 234 OFFCURVE",
"117 270 OFFCURVE",
"122 311 CURVE SMOOTH",
"147 515 OFFCURVE",
"183 612 OFFCURVE",
"308 612 CURVE SMOOTH",
"396 612 OFFCURVE",
"417 559 OFFCURVE",
"417 447 CURVE SMOOTH",
"417 418 OFFCURVE",
"416 390 OFFCURVE",
"410 343 CURVE SMOOTH",
"384 139 OFFCURVE",
"348 36 OFFCURVE",
"220 36 CURVE SMOOTH"
);
}
);
width = 508;
},
{
layerId = "42d03b0b-68f7-4941-bda2-1e253e993363";
paths = (
{
closed = 1;
nodes = (
"518 -11 OFFCURVE",
"583 255 OFFCURVE",
"583 421 CURVE SMOOTH",
"583 570 OFFCURVE",
"515 660 OFFCURVE",
"338 660 CURVE SMOOTH",
"98 660 OFFCURVE",
"45 386 OFFCURVE",
"45 229 CURVE SMOOTH",
"45 79 OFFCURVE",
"104 -11 OFFCURVE",
"267 -11 CURVE SMOOTH"
);
},
{
closed = 1;
nodes = (
"215 61 OFFCURVE",
"213 115 OFFCURVE",
"213 197 CURVE SMOOTH",
"213 259 OFFCURVE",
"216 331 OFFCURVE",
"233 419 CURVE SMOOTH",
"252 519 OFFCURVE",
"267 590 OFFCURVE",
"334 590 CURVE SMOOTH",
"411 590 OFFCURVE",
"415 529 OFFCURVE",
"415 452 CURVE SMOOTH",
"415 391 OFFCURVE",
"401 273 OFFCURVE",
"395 231 CURVE SMOOTH",
"380 128 OFFCURVE",
"362 61 OFFCURVE",
"302 61 CURVE SMOOTH"
);
}
);
width = 605;
}
);
unicode = 0030;
},
{
glyphname = one;
layers = (
{
layerId = "0a8077ec-4085-4bbf-a447-43ab7bcde2db";
paths = (
{
closed = 1;
nodes = (
"326 0 LINE",
"330 37 LINE",
"202 51 LINE",
"287 652 LINE",
"253 652 LINE",
"61 621 LINE",
"61 582 LINE",
"211 582 LINE",
"137 51 LINE",
"17 38 LINE",
"13 0 LINE"
);
}
);
width = 375;
},
{
layerId = "42d03b0b-68f7-4941-bda2-1e253e993363";
paths = (
{
closed = 1;
nodes = (
"382 0 LINE",
"391 65 LINE",
"277 80 LINE",
"357 649 LINE",
"268 649 LINE",
"52 598 LINE",
"52 535 LINE",
"192 535 LINE",
"128 80 LINE",
"-2 61 LINE",
"-10 0 LINE"
);
}
);
width = 407;
}
);
unicode = 0031;
},
{
glyphname = two;
layers = (
{
layerId = "0a8077ec-4085-4bbf-a447-43ab7bcde2db";
paths = (
{
closed = 1;
nodes = (
"394 0 LINE",
"424 149 LINE",
"383 155 LINE",
"351 64 LINE",
"105 64 LINE",
"96 64 LINE",
"93 72 LINE",
"227 204 LINE SMOOTH",
"362 337 OFFCURVE",
"437 414 OFFCURVE",
"437 518 CURVE SMOOTH",
"437 600 OFFCURVE",
"384 660 OFFCURVE",
"284 660 CURVE SMOOTH",
"168 660 OFFCURVE",
"97 568 OFFCURVE",
"79 539 CURVE",
"96 524 LINE",
"141 563 OFFCURVE",
"184 591 OFFCURVE",
"244 591 CURVE SMOOTH",
"329 591 OFFCURVE",
"365 556 OFFCURVE",
"365 492 CURVE SMOOTH",
"365 433 OFFCURVE",
"343 381 OFFCURVE",
"202 246 CURVE SMOOTH",
"2 54 LINE",
"27 0 LINE"
);
}
);
width = 463;
},
{
layerId = "42d03b0b-68f7-4941-bda2-1e253e993363";
paths = (
{
closed = 1;
nodes = (
"449 0 LINE",
"479 197 LINE",
"415 208 LINE",
"368 100 LINE",
"142 100 LINE",
"131 95 LINE",
"129 97 LINE",
"285 224 LINE SMOOTH",
"445 354 OFFCURVE",
"477 439 OFFCURVE",
"477 524 CURVE SMOOTH",
"477 603 OFFCURVE",
"407 660 OFFCURVE",
"288 660 CURVE SMOOTH",
"172 660 OFFCURVE",
"94 588 OFFCURVE",
"59 526 CURVE",
"99 496 LINE",
"142 534 OFFCURVE",
"177 562 OFFCURVE",
"236 562 CURVE SMOOTH",
"286 562 OFFCURVE",
"317 527 OFFCURVE",
"317 492 CURVE SMOOTH",
"317 445 OFFCURVE",
"316 394 OFFCURVE",
"209 287 CURVE SMOOTH",
"-23 56 LINE",
"3 0 LINE"
);
}
);
width = 510;
}
);
unicode = 0032;
},
{
glyphname = three;
layers = (
{
layerId = "0a8077ec-4085-4bbf-a447-43ab7bcde2db";
paths = (
{
closed = 1;
nodes = (
"307 -10 OFFCURVE",
"398 79 OFFCURVE",
"398 204 CURVE SMOOTH",
"398 271 OFFCURVE",
"351 331 OFFCURVE",
"279 350 CURVE",
"279 352 LINE",
"356 377 OFFCURVE",
"408 450 OFFCURVE",
"408 520 CURVE SMOOTH",
"408 603 OFFCURVE",
"346 660 OFFCURVE",
"255 660 CURVE SMOOTH",
"184 660 OFFCURVE",
"109 611 OFFCURVE",
"72 537 CURVE",
"91 527 LINE",
"139 578 OFFCURVE",
"175 596 OFFCURVE",
"234 596 CURVE SMOOTH",
"300 596 OFFCURVE",
"341 560 OFFCURVE",
"341 504 CURVE SMOOTH",
"341 425 OFFCURVE",
"274 367 OFFCURVE",
"187 367 CURVE SMOOTH",
"145 367 LINE",
"145 341 LINE",
"155 318 LINE",
"178 318 LINE SMOOTH",
"280 318 OFFCURVE",
"327 270 OFFCURVE",
"327 168 CURVE SMOOTH",
"327 83 OFFCURVE",
"273 35 OFFCURVE",
"179 35 CURVE SMOOTH",
"137 35 OFFCURVE",
"94 48 OFFCURVE",
"78 67 CURVE",
"71 158 LINE",
"51 158 LINE",
"35 158 OFFCURVE",
"7 112 OFFCURVE",
"7 87 CURVE SMOOTH",
"7 26 OFFCURVE",
"69 -10 OFFCURVE",
"176 -10 CURVE SMOOTH"
);
}
);
width = 437;
},
{
layerId = "42d03b0b-68f7-4941-bda2-1e253e993363";
paths = (
{
closed = 1;
nodes = (
"316 -11 OFFCURVE",
"435 85 OFFCURVE",
"435 222 CURVE SMOOTH",
"435 283 OFFCURVE",
"404 332 OFFCURVE",
"330 353 CURVE",
"330 359 LINE",
"402 385 OFFCURVE",
"443 445 OFFCURVE",
"443 520 CURVE SMOOTH",
"443 616 OFFCURVE",
"382 660 OFFCURVE",
"254 660 CURVE SMOOTH",
"174 660 OFFCURVE",
"84 613 OFFCURVE",
"51 563 CURVE",
"92 528 LINE",
"115 545 OFFCURVE",
"161 565 OFFCURVE",
"202 565 CURVE SMOOTH",
"259 565 OFFCURVE",
"287 548 OFFCURVE",
"287 496 CURVE SMOOTH",
"287 419 OFFCURVE",
"218 374 OFFCURVE",
"110 374 CURVE SMOOTH",
"104 374 LINE",
"104 331 LINE",
"123 299 LINE",
"174 299 LINE SMOOTH",
"245 299 OFFCURVE",
"276 262 OFFCURVE",
"276 212 CURVE SMOOTH",
"276 114 OFFCURVE",
"242 72 OFFCURVE",
"167 72 CURVE SMOOTH",
"130 72 OFFCURVE",
"96 76 OFFCURVE",
"89 81 CURVE",
"79 181 LINE",
"26 181 LINE",
"11 181 OFFCURVE",
"-28 104 OFFCURVE",
"-28 73 CURVE SMOOTH",
"-28 15 OFFCURVE",
"28 -11 OFFCURVE",
"152 -11 CURVE SMOOTH"
);
}
);
width = 456;
}
);
unicode = 0033;
},
{
glyphname = four;
layers = (
{
guideLines = (
{
position = "{0, 683}";
}
);
layerId = "0a8077ec-4085-4bbf-a447-43ab7bcde2db";
paths = (
{
closed = 1;
nodes = (
"317 0 LINE",
"342 189 LINE",
"437 189 LINE",
"444 244 LINE",
"348 244 LINE",
"402 663 LINE",
"361 684 LINE",
"-9 237 LINE",
"6 189 LINE",
"275 189 LINE",
"251 0 LINE"
);
},
{
closed = 1;
nodes = (
"60 252 LINE",
"313 563 LINE",
"323 574 LINE",
"324 573 LINE",
"322 561 LINE",
"282 244 LINE",
"63 244 LINE"
);
}
);
width = 470;
},
{
layerId = "42d03b0b-68f7-4941-bda2-1e253e993363";
paths = (
{
closed = 1;
nodes = (
"400 0 LINE",
"421 139 LINE",
"496 139 LINE",
"507 231 LINE",
"435 231 LINE",
"491 644 LINE",
"379 665 LINE",
"-1 223 LINE",
"31 139 LINE",
"274 139 LINE",
"253 0 LINE"
);
},
{
closed = 1;
nodes = (
"133 237 LINE",
"316 458 LINE",
"321 471 LINE",
"326 471 LINE",
"321 457 LINE",
"287 231 LINE",
"136 231 LINE"
);
}
);
width = 540;
}
);
unicode = 0034;
},
{
glyphname = five;
layers = (
{
background = {
paths = (
{
closed = 1;
nodes = (
"322 -10 OFFCURVE",
"408 89 OFFCURVE",
"408 228 CURVE SMOOTH",
"408 333 OFFCURVE",
"325 398 OFFCURVE",
"151 420 CURVE",
"177 579 LINE",
"432 579 LINE",
"447 683 LINE",
"409 683 LINE",
"395 648 LINE",
"143 648 LINE",
"91 381 LINE",
"288 357 OFFCURVE",
"333 302 OFFCURVE",
"333 192 CURVE SMOOTH",
"333 74 OFFCURVE",
"272 36 OFFCURVE",
"192 36 CURVE SMOOTH",
"111 36 OFFCURVE",
"81 63 OFFCURVE",
"78 67 CURVE",
"71 158 LINE",
"51 158 LINE",
"50 158 OFFCURVE",
"8 132 OFFCURVE",
"8 87 CURVE SMOOTH",
"8 22 OFFCURVE",
"72 -10 OFFCURVE",
"175 -10 CURVE SMOOTH"
);
}
);
};
layerId = "0a8077ec-4085-4bbf-a447-43ab7bcde2db";
paths = (
{
closed = 1;
nodes = (
"322 -10 OFFCURVE",
"408 89 OFFCURVE",
"408 228 CURVE SMOOTH",
"408 333 OFFCURVE",
"325 398 OFFCURVE",
"151 420 CURVE",
"177 579 LINE",
"432 579 LINE",
"447 683 LINE",
"409 683 LINE",
"395 648 LINE",
"143 648 LINE",
"91 381 LINE",
"288 357 OFFCURVE",
"333 302 OFFCURVE",
"333 192 CURVE SMOOTH",
"333 74 OFFCURVE",
"272 36 OFFCURVE",
"192 36 CURVE SMOOTH",
"111 36 OFFCURVE",
"81 63 OFFCURVE",
"78 67 CURVE",
"71 158 LINE",
"51 158 LINE",
"26 143 OFFCURVE",
"8 114 OFFCURVE",
"8 87 CURVE SMOOTH",
"8 22 OFFCURVE",
"72 -10 OFFCURVE",
"175 -10 CURVE SMOOTH"
);
}
);
width = 462;
},
{
background = {
paths = (
{
closed = 1;
nodes = (
"273 -11 OFFCURVE",
"438 58 OFFCURVE",
"438 234 CURVE SMOOTH",
"438 370 OFFCURVE",
"319 408 OFFCURVE",
"178 428 CURVE",
"193 533 LINE",
"459 533 LINE",
"486 706 LINE",
"406 706 LINE",
"379 648 LINE",
"127 648 LINE",
"71 349 LINE",
"236 330 OFFCURVE",
"280 286 OFFCURVE",
"280 212 CURVE SMOOTH",
"280 127 OFFCURVE",
"258 61 OFFCURVE",
"174 61 CURVE SMOOTH",
"117 61 OFFCURVE",
"101 79 OFFCURVE",
"100 81 CURVE",
"91 181 LINE",
"38 181 LINE",
"37 181 OFFCURVE",
"-17 132 OFFCURVE",
"-17 76 CURVE SMOOTH",
"-17 9 OFFCURVE",
"56 -11 OFFCURVE",
"162 -11 CURVE SMOOTH"
);
}
);
};
layerId = "42d03b0b-68f7-4941-bda2-1e253e993363";
paths = (
{
closed = 1;
nodes = (
"273 -11 OFFCURVE",
"438 58 OFFCURVE",
"438 234 CURVE SMOOTH",
"438 370 OFFCURVE",
"319 408 OFFCURVE",
"178 428 CURVE",
"193 533 LINE",
"459 533 LINE",
"486 706 LINE",
"406 706 LINE",
"379 648 LINE",
"127 648 LINE",
"71 349 LINE",
"236 330 OFFCURVE",
"280 286 OFFCURVE",
"280 212 CURVE SMOOTH",
"280 127 OFFCURVE",
"258 61 OFFCURVE",
"174 61 CURVE SMOOTH",
"117 61 OFFCURVE",
"101 79 OFFCURVE",
"100 81 CURVE",
"91 181 LINE",
"38 181 LINE",
"6 154 OFFCURVE",
"-17 110 OFFCURVE",
"-17 76 CURVE SMOOTH",
"-17 9 OFFCURVE",
"56 -11 OFFCURVE",
"162 -11 CURVE SMOOTH"
);
}
);
width = 449;
}
);
unicode = 0035;
},
